{
classes = (
{
automatic = 1;
code = "S A B C D E F G H I J K L M N O P Q R T U V W X Y Z Agrave Aacute Acircumflex Atilde Adieresis Aring AE Ccedilla Egrave Eacute Ecircumflex Edieresis Igrave Iacute Icircumflex Idieresis Eth Ntilde Ograve Oacute Ocircumflex Otilde Odieresis Oslash Ugrave Uacute Ucircumflex Udieresis Yacute Thorn Amacron Abreve Aogonek Cacute Ccircumflex Cdotaccent Ccaron Dcaron Dcroat Emacron Ebreve Edotaccent Eogonek Ecaron Gcircumflex Gbreve Gdotaccent Gcommaaccent Hcircumflex Hbar Itilde Imacron Ibreve Iogonek Idotaccent IJ Jcircumflex Kcommaaccent Lacute Lcommaaccent Lcaron Ldot Lslash Nacute Ncommaaccent Ncaron Eng Omacron Obreve Ohungarumlaut OE Racute Rcommaaccent Rcaron Sacute Scircumflex uni015E Scaron uni0162 Tcaron Tbar Utilde Umacron Ubreve Uring Uhungarumlaut Uogonek Wcircumflex Ycircumflex Ydieresis Zacute Zdotaccent Zcaron Schwa uni01C4 uni01C5 uni01C7 uni01C8 uni01CA uni01CB Oogonek uni01F1 uni01F2 Gacute Aringacute AEacute Oslashacute Adblgrave Ainvertedbreve Edblgrave Einvertedbreve Idblgrave Iinvertedbreve Odblgrave Oinvertedbreve Rdblgrave Rinvertedbreve Udblgrave Uinvertedbreve uni0218 uni021A uni0394 uni03A9 Ddotbelow Hdotbelow Ndotaccent Rdotbelow Sdotbelow Tdotbelow Wgrave Wacute Wdieresis Zdotbelow Edotbelow Etilde Idotbelow Odotbelow Udotbelow Ygrave Ytilde Omega Delta W.alt G.alt uni0406 uni0407 uni0408 uni0409 uni040A uni040B uni040C uni041A uni040D uni0418 uni040E uni040F uni0410 uni0411 uni0412 uni0415 uni0416 uni041C uni041D uni041E uni041F uni0420 uni0421 uni0422 uni0423 uni0424 uni0425 uni0426 uni0427 uni0428 uni0429 uni042A uni042B uni042C uni042D uni042E uni042F uni0400 uni0401 uni0402 uni0403 uni0413 uni0404 uni0405 uni0414 uni0417 uni0419 uni041B uni0490 uni04B0 J.alt";
name = Uppercase;
}
);

glyphs = (
{
color = 4;
glyphname = exclam;
lastChange = "2014-12-10 10:26:42 +0000";
layers = (
{
layerId = "23F2D7CD-FF69-4F10-BF0B-9629FD16792A";
name = Bold;
paths = (
{
closed = 1;
nodes = (
"221 267 LINE",
"221 717 LINE",
"87 717 LINE",
"87 267 LINE"
);
},
{
closed = 1;
nodes = (
"195 -8 OFFCURVE",
"234 29 OFFCURVE",
"234 72 CURVE",
"234 114 OFFCURVE",
"195 151 OFFCURVE",
"153 151 CURVE",
"111 151 OFFCURVE",
"73 114 OFFCURVE",
"73 72 CURVE",
"73 30 OFFCURVE",
"111 -8 OFFCURVE",
"153 -8 CURVE"
);
}
);
width = 307;
}
);
leftKerningGroup = exclam;
unicode = 0021;
},
{
color = 4;
glyphname = quotedbl;
lastChange = "2014-12-10 10:31:49 +0000";
layers = (
{
layerId = "23F2D7CD-FF69-4F10-BF0B-9629FD16792A";
name = Bold;
paths = (
{
closed = 1;
nodes = (
"175 479 LINE",
"175 723 LINE",
"61 723 LINE",
"61 479 LINE"
);
},
{
closed = 1;
nodes = (
"332 479 LINE",
"332 723 LINE",
"218 723 LINE",
"218 479 LINE"
);
}
);
width = 393;
}
);
leftKerningGroup = quotedbl;
rightKerningGroup = quotedbl;
unicode = 0022;
},
{
glyphname = numbersign;
layers = (
{
layerId = "23F2D7CD-FF69-4F10-BF0B-9629FD16792A";
name = Bold;
paths = (
{
closed = 1;
nodes = (
"685 518 LINE",
"563 518 LINE",
"610 710 LINE",
"502 710 LINE",
"456 518 LINE",
"336 518 LINE",
"384 710 LINE",
"276 710 LINE",
"229 518 LINE",
"84 518 LINE",
"84 424 LINE",
"206 424 LINE",
"173 287 LINE",
"37 287 LINE",
"37 187 LINE",
"149 187 LINE",
"103 0 LINE",
"211 0 LINE",
"256 187 LINE",
"376 187 LINE",
"329 0 LINE",
"437 0 LINE",
"483 187 LINE",
"638 187 LINE",
"638 287 LINE",
"507 287 LINE",
"539 424 LINE",
"685 424 LINE"
);
},
{
closed = 1;
nodes = (
"280 287 LINE",
"313 424 LINE",
"432 424 LINE",
"400 287 LINE"
);
}
);
width = 721;
}
);
unicode = 0023;
},
{
glyphname = dollar;
layers = (
{
layerId = "23F2D7CD-FF69-4F10-BF0B-9629FD16792A";
name = Bold;
paths = (
{
closed = 1;
nodes = (
"570 636 LINE",
"514 674 OFFCURVE",
"438 707 OFFCURVE",
"351 714 CURVE",
"351 815 LINE",
"291 815 LINE",
"291 713 LINE",
"162 703 OFFCURVE",
"63 626 OFFCURVE",
"63 492 CURVE SMOOTH",
"63 383 OFFCURVE",
"129 338 OFFCURVE",
"264 300 CURVE",
"276 296 OFFCURVE",
"288 293 OFFCURVE",
"300 290 CURVE",
"300 118 LINE",
"204 129 OFFCURVE",
"116 181 OFFCURVE",
"95 203 CURVE",
"34 84 LINE",
"105 33 OFFCURVE",
"198 1 OFFCURVE",
"291 -6 CURVE",
"291 -117 LINE",
"351 -117 LINE",
"351 -7 LINE",
"482 -2 OFFCURVE",
"595 57 OFFCURVE",
"595 203 CURVE SMOOTH",
"595 333 OFFCURVE",
"507 377 OFFCURVE",
"367 413 CURVE SMOOTH",
"342 419 LINE",
"342 592 LINE",
"419 584 OFFCURVE",
"492 542 OFFCURVE",
"509 524 CURVE"
);
},
{
closed = 1;
nodes = (
"448 143 OFFCURVE",
"411 118 OFFCURVE",
"342 116 CURVE",
"342 277 LINE",
"408 256 OFFCURVE",
"448 234 OFFCURVE",
"448 189 CURVE SMOOTH"
);
},
{
closed = 1;
nodes = (
"205 561 OFFCURVE",
"237 589 OFFCURVE",
"300 593 CURVE",
"300 431 LINE",
"237 450 OFFCURVE",
"205 469 OFFCURVE",
"205 514 CURVE SMOOTH"
);
}
);
width = 634;
}
);
unicode = 0024;
},
{
glyphname = S;
lastChange = "2014-12-10 12:43:57 +0000";
layers = (
{
anchors = (
{
name = bottom;
position = "{307, 0}";
},
{
name = top;
position = "{307, 710}";
}
);
layerId = "23F2D7CD-FF69-4F10-BF0B-9629FD16792A";
name = Bold;
paths = (
{
closed = 1;
nodes = (
"558 636 LINE",
"496 678 OFFCURVE",
"409 715 OFFCURVE",
"310 715 CURVE SMOOTH",
"166 715 OFFCURVE",
"51 637 OFFCURVE",
"51 492 CURVE SMOOTH",
"51 383 OFFCURVE",
"117 338 OFFCURVE",
"252 300 CURVE SMOOTH",
"363 269 OFFCURVE",
"436 250 OFFCURVE",
"436 189 CURVE SMOOTH",
"436 142 OFFCURVE",
"397 116 OFFCURVE",
"322 116 CURVE SMOOTH",
"214 116 OFFCURVE",
"107 179 OFFCURVE",
"83 203 CURVE",
"22 84 LINE",
"104 26 OFFCURVE",
"214 -8 OFFCURVE",
"320 -8 CURVE SMOOTH",
"459 -8 OFFCURVE",
"583 50 OFFCURVE",
"583 203 CURVE SMOOTH",
"583 333 OFFCURVE",
"495 377 OFFCURVE",
"355 413 CURVE SMOOTH",
"248 441 OFFCURVE",
"193 456 OFFCURVE",
"193 514 CURVE SMOOTH",
"193 565 OFFCURVE",
"231 594 OFFCURVE",
"306 594 CURVE SMOOTH",
"391 594 OFFCURVE",
"479 544 OFFCURVE",
"497 524 CURVE"
);
}
);
width = 613;
}
);
leftKerningGroup = S;
rightKerningGroup = S;
unicode = 0053;
},
{
glyphname = percent;
layers = (
{
layerId = "23F2D7CD-FF69-4F10-BF0B-9629FD16792A";
name = Bold;
paths = (
{
closed = 1;
nodes = (
"292 417 OFFCURVE",
"365 484 OFFCURVE",
"365 569 CURVE SMOOTH",
"365 653 OFFCURVE",
"292 720 OFFCURVE",
"200 720 CURVE SMOOTH",
"108 720 OFFCURVE",
"35 653 OFFCURVE",
"35 569 CURVE SMOOTH",
"35 484 OFFCURVE",
"108 417 OFFCURVE",
"200 417 CURVE SMOOTH"
);
},
{
closed = 1;
nodes = (
"161 484 OFFCURVE",
"129 522 OFFCURVE",
"129 569 CURVE SMOOTH",
"129 614 OFFCURVE",
"161 653 OFFCURVE",
"200 653 CURVE SMOOTH",
"238 653 OFFCURVE",
"271 615 OFFCURVE",
"271 569 CURVE SMOOTH",
"271 523 OFFCURVE",
"239 484 OFFCURVE",
"200 484 CURVE SMOOTH"
);
},
{
closed = 1;
nodes = (
"679 -10 OFFCURVE",
"751 57 OFFCURVE",
"751 141 CURVE SMOOTH",
"751 226 OFFCURVE",
"679 293 OFFCURVE",
"586 293 CURVE SMOOTH",
"494 293 OFFCURVE",
"421 226 OFFCURVE",
"421 141 CURVE SMOOTH",
"421 57 OFFCURVE",
"494 -10 OFFCURVE",
"586 -10 CURVE SMOOTH"
);
},
{
closed = 1;
nodes = (
"548 57 OFFCURVE",
"515 95 OFFCURVE",
"515 141 CURVE SMOOTH",
"515 187 OFFCURVE",
"547 226 OFFCURVE",
"586 226 CURVE SMOOTH",
"624 226 OFFCURVE",
"657 188 OFFCURVE",
"657 141 CURVE SMOOTH",
"657 96 OFFCURVE",
"625 57 OFFCURVE",
"586 57 CURVE SMOOTH"
);
},
{
closed = 1;
nodes = (
"152 -7 LINE",
"421 341 LINE",
"694 664 LINE",
"633 718 LINE",
"373 376 LINE",
"91 47 LINE"
);
}
);
width = 786;
}
);
unicode = 0025;
},
{
glyphname = fraction;
layers = (
{
layerId = "23F2D7CD-FF69-4F10-BF0B-9629FD16792A";
name = Bold;
paths = (
{
closed = 1;
nodes = (
"-141 -7 LINE",
"128 341 LINE",
"401 664 LINE",
"340 718 LINE",
"80 376 LINE",
"-202 47 LINE"
);
}
);
width = 200;
}
);
unicode = 2044;
},
{
glyphname = ampersand;
layers = (
{
layerId = "23F2D7CD-FF69-4F10-BF0B-9629FD16792A";
name = Bold;
paths = (
{
closed = 1;
nodes = (
"712 0 LINE",
"565 154 LINE",
"603 217 OFFCURVE",
"626 295 OFFCURVE",
"627 389 CURVE",
"518 389 LINE",
"518 331 OFFCURVE",
"506 280 OFFCURVE",
"486 237 CURVE",
"350 379 LINE",
"420 429 OFFCURVE",
"471 485 OFFCURVE",
"471 562 CURVE SMOOTH",
"471 666 OFFCURVE",
"380 719 OFFCURVE",
"282 719 CURVE SMOOTH",
"171 719 OFFCURVE",
"87 651 OFFCURVE",
"87 549 CURVE SMOOTH",
"87 498 OFFCURVE",
"108 458 OFFCURVE",
"165 394 CURVE",
"99 348 OFFCURVE",
"40 289 OFFCURVE",
"40 201 CURVE SMOOTH",
"40 88 OFFCURVE",
"133 -10 OFFCURVE",
"280 -10 CURVE SMOOTH",
"352 -10 OFFCURVE",
"422 14 OFFCURVE",
"480 59 CURVE",
"536 0 LINE"
);
},
{
closed = 1;
nodes = (
"221 95 OFFCURVE",
"169 143 OFFCURVE",
"169 200 CURVE SMOOTH",
"169 243 OFFCURVE",
"198 276 OFFCURVE",
"244 309 CURVE",
"408 136 LINE",
"373 109 OFFCURVE",
"333 95 OFFCURVE",
"293 95 CURVE SMOOTH"
);
},
{
closed = 1;
nodes = (
"209 590 OFFCURVE",
"239 620 OFFCURVE",
"282 620 CURVE SMOOTH",
"320 620 OFFCURVE",
"348 596 OFFCURVE",
"348 560 CURVE SMOOTH",
"348 524 OFFCURVE",
"320 496 OFFCURVE",
"270 462 CURVE",
"223 512 OFFCURVE",
"209 529 OFFCURVE",
"209 553 CURVE SMOOTH"
);
}
);
width = 712;
}
);
leftKerningGroup = ampersand;
rightKerningGroup = ampersand;
unicode = 0026;
},
{
color = 4;
glyphname = quotesingle;
lastChange = "2014-12-10 10:31:46 +0000";
layers = (
{
layerId = "23F2D7CD-FF69-4F10-BF0B-9629FD16792A";
name = Bold;
paths = (
{
closed = 1;
nodes = (
"175 479 LINE",
"175 723 LINE",
"61 723 LINE",
"61 479 LINE"
);
}
);
width = 235;
}
);
leftKerningGroup = quotedbl;
rightKerningGroup = quotedbl;
unicode = 0027;
},
{
glyphname = parenleft;
layers = (
{
layerId = "23F2D7CD-FF69-4F10-BF0B-9629FD16792A";
name = Bold;
paths = (
{
closed = 1;
nodes = (
"34 212 OFFCURVE",
"101 71 OFFCURVE",
"184 -53 CURVE",
"282 -4 LINE",
"210 119 OFFCURVE",
"159 237 OFFCURVE",
"159 344 CURVE SMOOTH",
"159 481 OFFCURVE",
"243 650 OFFCURVE",
"285 714 CURVE",
"183 757 LINE",
"100 616 OFFCURVE",
"34 482 OFFCURVE",
"34 347 CURVE SMOOTH"
);
}
);
width = 310;
}
);
rightKerningGroup = parenleft;
unicode = 0028;
},
{
glyphname = parenright;
layers = (
{
layerId = "23F2D7CD-FF69-4F10-BF0B-9629FD16792A";
name = Bold;
paths = (
{
closed = 1;
nodes = (
"275 482 OFFCURVE",
"210 616 OFFCURVE",
"127 757 CURVE",
"24 714 LINE",
"66 650 OFFCURVE",
"150 481 OFFCURVE",
"150 344 CURVE SMOOTH",
"150 237 OFFCURVE",
"100 119 OFFCURVE",
"27 -4 CURVE",
"125 -53 LINE",
"208 71 OFFCURVE",
"275 212 OFFCURVE",
"275 347 CURVE SMOOTH"
);
}
);
width = 309;
}
);
leftKerningGroup = parenright;
unicode = 0029;
},
{
glyphname = asterisk;
layers = (
{
layerId = "23F2D7CD-FF69-4F10-BF0B-9629FD16792A";
name = Bold;
paths = (
{
closed = 1;
nodes = (
"127 486 LINE",
"173 561 LINE",
"218 486 LINE",
"270 520 LINE",
"223 591 LINE",
"293 613 LINE",
"275 671 LINE",
"203 640 LINE",
"208 717 LINE",
"137 717 LINE",
"142 640 LINE",
"69 671 LINE",
"51 613 LINE",
"122 591 LINE",
"75 520 LINE"
);
}
);
width = 345;
}
);
leftKerningGroup = asterisk;
rightKerningGroup = asterisk;
unicode = 002A;
},
{
glyphname = plus;
layers = (
{
layerId = "23F2D7CD-FF69-4F10-BF0B-9629FD16792A";
name = Bold;
paths = (
{
closed = 1;
nodes = (
"271 409 LINE",
"271 522 LINE",
"150 522 LINE",
"150 409 LINE",
"47 409 LINE",
"47 301 LINE",
"150 301 LINE",
"150 188 LINE",
"271 188 LINE",
"271 301 LINE",
"374 301 LINE",
"374 409 LINE"
);
}
);
width = 421;
}
);
unicode = 002B;
},
{
color = 4;
glyphname = comma;
lastChange = "2014-12-10 10:27:32 +0000";
layers = (
{
layerId = "23F2D7CD-FF69-4F10-BF0B-9629FD16792A";
name = Bold;
paths = (
{
closed = 1;
nodes = (
"104 -140 LINE",
"8 -140 LINE",
"75 95 LINE",
"200 95 LINE"
);
}
);
width = 232;
}
);
leftKerningGroup = comma;
rightKerningGroup = comma;
unicode = 002C;
},
{
glyphname = hyphen;
layers = (
{
layerId = "23F2D7CD-FF69-4F10-BF0B-9629FD16792A";
name = Bold;
paths = (
{
closed = 1;
nodes = (
"361 214 LINE",
"361 335 LINE",
"58 335 LINE",
"58 214 LINE"
);
}
);
width = 418;
}
);
leftKerningGroup = hyphen;
rightKerningGroup = hyphen;
unicode = 002D;
},
{
color = 4;
glyphname = period;
lastChange = "2014-12-09 15:56:16 +0000";
layers = (
{
layerId = "23F2D7CD-FF69-4F10-BF0B-9629FD16792A";
name = Bold;
paths = (
{
closed = 1;
nodes = (
"166 -9 OFFCURVE",
"207 31 OFFCURVE",
"207 76 CURVE",
"207 121 OFFCURVE",
"166 161 OFFCURVE",
"122 161 CURVE",
"77 161 OFFCURVE",
"37 121 OFFCURVE",
"37 76 CURVE",
"37 32 OFFCURVE",
"77 -9 OFFCURVE",
"122 -9 CURVE"
);
}
);
width = 241;
}
);
leftKerningGroup = comma;
rightKerningGroup = comma;
unicode = 002E;
},
{
color = 6;
glyphname = slash;
lastChange = "2015-01-02 14:10:25 +0000";
layers = (
{
layerId = "23F2D7CD-FF69-4F10-BF0B-9629FD16792A";
name = Bold;
paths = (
{
closed = 1;
nodes = (
"325 745 LINE",
"6 0 LINE",
"132 -46 LINE",
"450 701 LINE"
);
}
);
width = 450;
}
);
leftKerningGroup = slash;
rightKerningGroup = slash;
unicode = 002F;
},
{
glyphname = zero;
lastChange = "2014-12-09 15:31:21 +0000";
layers = (
{
layerId = "23F2D7CD-FF69-4F10-BF0B-9629FD16792A";
name = Bold;
paths = (
{
closed = 1;
nodes = (
"541 -9 OFFCURVE",
"659 177 OFFCURVE",
"659 350 CURVE SMOOTH",
"659 505 OFFCURVE",
"554 710 OFFCURVE",
"350 710 CURVE SMOOTH",
"160 710 OFFCURVE",
"42 521 OFFCURVE",
"42 350 CURVE SMOOTH",
"42 190 OFFCURVE",
"147 -8 OFFCURVE",
"350 -10 CURVE SMOOTH"
);
},
{
closed = 1;
nodes = (
"181 450 OFFCURVE",
"232 588 OFFCURVE",
"350 588 CURVE SMOOTH",
"462 588 OFFCURVE",
"520 461 OFFCURVE",
"520 350 CURVE SMOOTH",
"520 250 OFFCURVE",
"469 112 OFFCURVE",
"350 112 CURVE SMOOTH",
"236 112 OFFCURVE",
"183 239 OFFCURVE",
"181 350 CURVE"
);
}
);
width = 701;
}
);
leftKerningGroup = zero.lnum;
rightKerningGroup = zero.lnum;
unicode = 0030;
},
{
color = 4;
glyphname = one;
lastChange = "2014-12-09 15:32:30 +0000";
layers = (
{
layerId = "23F2D7CD-FF69-4F10-BF0B-9629FD16792A";
name = Bold;
paths = (
{
closed = 1;
nodes = (
"341 0 LINE",
"341 717 LINE",
"204 717 LINE",
"19 611 LINE",
"73 507 LINE",
"204 583 LINE",
"204 0 LINE"
);
}
);
width = 490;
}
);
leftKerningGroup = one.lnum;
rightKerningGroup = one.lnum;
unicode = 0031;
},
{
glyphname = two;
lastChange = "2014-12-09 15:31:45 +0000";
layers = (
{
layerId = "23F2D7CD-FF69-4F10-BF0B-9629FD16792A";
name = Bold;
paths = (
{
closed = 1;
nodes = (
"557 0 LINE",
"557 121 LINE",
"217 121 LINE",
"217 190 OFFCURVE",
"280 231 OFFCURVE",
"382 281 CURVE SMOOTH",
"477 327 OFFCURVE",
"556 380 OFFCURVE",
"556 502 CURVE SMOOTH",
"556 630 OFFCURVE",
"472 719 OFFCURVE",
"317 719 CURVE SMOOTH",
"177 719 OFFCURVE",
"80 643 OFFCURVE",
"44 601 CURVE",
"128 513 LINE",
"163 551 OFFCURVE",
"225 598 OFFCURVE",
"300 598 CURVE SMOOTH",
"366 598 OFFCURVE",
"405 560 OFFCURVE",
"405 500 CURVE SMOOTH",
"405 406 OFFCURVE",
"311 375 OFFCURVE",
"224 333 CURVE SMOOTH",
"87 266 OFFCURVE",
"41 185 OFFCURVE",
"41 0 CURVE"
);
}
);
width = 608;
}
);
rightKerningGroup = two.lnum;
unicode = 0032;
},
{
glyphname = three;
lastChange = "2014-12-09 15:31:41 +0000";
layers = (
{
layerId = "23F2D7CD-FF69-4F10-BF0B-9629FD16792A";
name = Bold;
paths = (
{
closed = 1;
nodes = (
"406 -9 OFFCURVE",
"540 56 OFFCURVE",
"540 191 CURVE SMOOTH",
"540 280 OFFCURVE",
"482 357 OFFCURVE",
"391 373 CURVE",
"473 391 OFFCURVE",
"525 445 OFFCURVE",
"525 524 CURVE SMOOTH",
"525 634 OFFCURVE",
"420 719 OFFCURVE",
"277 719 CURVE SMOOTH",
"184 719 OFFCURVE",
"84 682 OFFCURVE",
"39 617 CURVE",
"125 520 LINE",
"146 558 OFFCURVE",
"197 601 OFFCURVE",
"278 601 CURVE SMOOTH",
"325 601 OFFCURVE",
"382 576 OFFCURVE",
"382 517 CURVE SMOOTH",
"382 451 OFFCURVE",
"303 422 OFFCURVE",
"196 422 CURVE SMOOTH",
"163 422 LINE",
"163 310 LINE",
"196 310 LINE SMOOTH",
"324 310 OFFCURVE",
"401 277 OFFCURVE",
"401 209 CURVE SMOOTH",
"401 149 OFFCURVE",
"341 114 OFFCURVE",
"271 114 CURVE SMOOTH",
"170 114 OFFCURVE",
"119 182 OFFCURVE",
"112 218 CURVE",
"41 130 LINE",
"73 41 OFFCURVE",
"158 -9 OFFCURVE",
"273 -9 CURVE SMOOTH"
);
}
);
width = 585;
}
);
unicode = 0033;
},
{
glyphname = four;
lastChange = "2014-12-09 15:31:26 +0000";
layers = (
{
layerId = "23F2D7CD-FF69-4F10-BF0B-9629FD16792A";
name = Bold;
paths = (
{
closed = 1;
nodes = (
"459 0 LINE",
"459 161 LINE",
"547 161 LINE",
"547 282 LINE",
"459 282 LINE",
"459 710 LINE",
"367 710 LINE",
"26 281 LINE",
"26 161 LINE",
"325 161 LINE",
"325 0 LINE"
);
},
{
closed = 1;
nodes = (
"340 508 LINE",
"340 282 LINE",
"161 282 LINE"
);
}
);
width = 586;
}
);
leftKerningGroup = four.lnum;
unicode = 0034;
},
{
glyphname = five;
lastChange = "2014-12-09 15:31:24 +0000";
layers = (
{
layerId = "23F2D7CD-FF69-4F10-BF0B-9629FD16792A";
name = Bold;
paths = (
{
closed = 1;
nodes = (
"252 459 OFFCURVE",
"221 447 OFFCURVE",
"205 429 CURVE",
"233 588 LINE",
"486 588 LINE",
"486 710 LINE",
"136 710 LINE SMOOTH",
"136 710 OFFCURVE",
"57 304 OFFCURVE",
"54 288 CURVE",
"171 288 LINE",
"194 323 OFFCURVE",
"235 344 OFFCURVE",
"278 344 CURVE SMOOTH",
"344 344 OFFCURVE",
"393 296 OFFCURVE",
"393 228 CURVE SMOOTH",
"393 157 OFFCURVE",
"342 109 OFFCURVE",
"270 109 CURVE SMOOTH",
"210 109 OFFCURVE",
"151 142 OFFCURVE",
"113 194 CURVE",
"36 114 LINE",
"80 37 OFFCURVE",
"166 -10 OFFCURVE",
"269 -10 CURVE SMOOTH",
"420 -10 OFFCURVE",
"531 88 OFFCURVE",
"531 231 CURVE SMOOTH",
"531 365 OFFCURVE",
"431 459 OFFCURVE",
"297 459 CURVE SMOOTH"
);
}
);
width = 569;
}
);
unicode = 0035;
},
{
glyphname = six;
lastChange = "2014-12-09 15:31:39 +0000";
layers = (
{
layerId = "23F2D7CD-FF69-4F10-BF0B-9629FD16792A";
name = Bold;
paths = (
{
closed = 1;
nodes = (
"567 371 OFFCURVE",
"459 474 OFFCURVE",
"319 474 CURVE SMOOTH",
"252 474 OFFCURVE",
"198 444 OFFCURVE",
"170 396 CURVE",
"173 524 OFFCURVE",
"230 599 OFFCURVE",
"319 599 CURVE SMOOTH",
"377 599 OFFCURVE",
"431 569 OFFCURVE",
"463 519 CURVE",
"540 603 LINE",
"488 675 OFFCURVE",
"410 715 OFFCURVE",
"321 715 CURVE SMOOTH",
"152 715 OFFCURVE",
"46 575 OFFCURVE",
"46 316 CURVE SMOOTH",
"46 111 OFFCURVE",
"146 -10 OFFCURVE",
"307 -10 CURVE SMOOTH",
"454 -10 OFFCURVE",
"567 99 OFFCURVE",
"567 237 CURVE SMOOTH"
);
},
{
closed = 1;
nodes = (
"237 103 OFFCURVE",
"177 165 OFFCURVE",
"177 237 CURVE SMOOTH",
"177 309 OFFCURVE",
"235 367 OFFCURVE",
"308 367 CURVE SMOOTH",
"379 367 OFFCURVE",
"439 309 OFFCURVE",
"439 237 CURVE SMOOTH",
"439 164 OFFCURVE",
"378 103 OFFCURVE",
"308 103 CURVE SMOOTH"
);
}
);
width = 607;
}
);
unicode = 0036;
},
{
glyphname = seven;
lastChange = "2014-12-09 15:31:35 +0000";
layers = (
{
layerId = "23F2D7CD-FF69-4F10-BF0B-9629FD16792A";
name = Bold;
paths = (
{
closed = 1;
nodes = (
"63 0 LINE",
"215 0 LINE",
"568 710 LINE",
"34 710 LINE",
"34 588 LINE",
"356 588 LINE"
);
}
);
width = 563;
}
);
leftKerningGroup = seven.lnum;
rightKerningGroup = seven.lnum;
unicode = 0037;
},
{
glyphname = eight;
lastChange = "2014-12-09 15:31:18 +0000";
layers = (
{
layerId = "23F2D7CD-FF69-4F10-BF0B-9629FD16792A";
name = Bold;
paths = (
{
closed = 1;
nodes = (
"560 292 OFFCURVE",
"505 351 OFFCURVE",
"447 380 CURVE",
"498 403 OFFCURVE",
"539 457 OFFCURVE",
"539 514 CURVE SMOOTH",
"539 642 OFFCURVE",
"410 710 OFFCURVE",
"302 710 CURVE SMOOTH",
"194 710 OFFCURVE",
"66 640 OFFCURVE",
"66 513 CURVE SMOOTH",
"66 456 OFFCURVE",
"106 404 OFFCURVE",
"155 380 CURVE",
"103 353 OFFCURVE",
"44 295 OFFCURVE",
"44 215 CURVE SMOOTH",
"44 84 OFFCURVE",
"159 -9 OFFCURVE",
"301 -9 CURVE SMOOTH",
"442 -9 OFFCURVE",
"560 78 OFFCURVE",
"560 210 CURVE SMOOTH"
);
},
{
closed = 1;
nodes = (
"424 157 OFFCURVE",
"365 112 OFFCURVE",
"302 112 CURVE SMOOTH",
"241 112 OFFCURVE",
"180 154 OFFCURVE",
"180 218 CURVE SMOOTH",
"180 282 OFFCURVE",
"237 324 OFFCURVE",
"301 324 CURVE SMOOTH",
"363 324 OFFCURVE",
"424 285 OFFCURVE",
"424 218 CURVE SMOOTH"
);
},
{
closed = 1;
nodes = (
"202 558 OFFCURVE",
"247 591 OFFCURVE",
"301 591 CURVE SMOOTH",
"356 591 OFFCURVE",
"402 559 OFFCURVE",
"402 510 CURVE SMOOTH",
"402 455 OFFCURVE",
"348 425 OFFCURVE",
"302 425 CURVE SMOOTH",
"255 425 OFFCURVE",
"202 454 OFFCURVE",
"202 509 CURVE SMOOTH"
);
}
);
width = 604;
}
);
unicode = 0038;
},
{
glyphname = nine;
lastChange = "2014-12-09 15:31:29 +0000";
layers = (
{
layerId = "23F2D7CD-FF69-4F10-BF0B-9629FD16792A";
name = Bold;
paths = (
{
closed = 1;
nodes = (
"40 335 OFFCURVE",
"148 232 OFFCURVE",
"288 232 CURVE SMOOTH",
"354 232 OFFCURVE",
"409 262 OFFCURVE",
"437 310 CURVE",
"435 181 OFFCURVE",
"377 107 OFFCURVE",
"288 107 CURVE SMOOTH",
"229 107 OFFCURVE",
"176 137 OFFCURVE",
"144 187 CURVE",
"67 103 LINE",
"119 31 OFFCURVE",
"197 -10 OFFCURVE",
"286 -10 CURVE SMOOTH",
"454 -10 OFFCURVE",
"561 131 OFFCURVE",
"561 390 CURVE SMOOTH",
"561 595 OFFCURVE",
"460 715 OFFCURVE",
"300 715 CURVE SMOOTH",
"153 715 OFFCURVE",
"40 607 OFFCURVE",
"40 468 CURVE SMOOTH"
);
},
{
closed = 1;
nodes = (
"370 603 OFFCURVE",
"431 541 OFFCURVE",
"431 468 CURVE SMOOTH",
"431 397 OFFCURVE",
"372 339 OFFCURVE",
"300 339 CURVE SMOOTH",
"228 339 OFFCURVE",
"169 397 OFFCURVE",
"169 469 CURVE SMOOTH",
"169 541 OFFCURVE",
"228 603 OFFCURVE",
"299 603 CURVE SMOOTH"
);
}
);
width = 607;
}
);
rightKerningGroup = nine.lnum;
unicode = 0039;
},
{
color = 4;
glyphname = colon;
lastChange = "2014-12-09 16:30:29 +0000";
layers = (
{
layerId = "23F2D7CD-FF69-4F10-BF0B-9629FD16792A";
name = Bold;
paths = (
{
closed = 1;
nodes = (
"166 -10 OFFCURVE",
"206 28 OFFCURVE",
"206 72 CURVE",
"206 115 OFFCURVE",
"166 153 OFFCURVE",
"124 153 CURVE",
"81 153 OFFCURVE",
"42 115 OFFCURVE",
"42 72 CURVE",
"42 29 OFFCURVE",
"81 -10 OFFCURVE",
"124 -10 CURVE"
);
},
{
closed = 1;
nodes = (
"166 371 OFFCURVE",
"206 409 OFFCURVE",
"206 453 CURVE",
"206 496 OFFCURVE",
"166 534 OFFCURVE",
"124 534 CURVE",
"81 534 OFFCURVE",
"42 496 OFFCURVE",
"42 453 CURVE",
"42 410 OFFCURVE",
"81 371 OFFCURVE",
"124 371 CURVE"
);
}
);
width = 247;
}
);
leftKerningGroup = colon;
rightKerningGroup = colon;
unicode = 003A;
},
{
color = 4;
glyphname = semicolon;
lastChange = "2014-12-10 10:26:06 +0000";
layers = (
{
layerId = "23F2D7CD-FF69-4F10-BF0B-9629FD16792A";
name = Bold;
paths = (
{
closed = 1;
nodes = (
"104 -140 LINE",
"8 -140 LINE",
"75 95 LINE",
"200 95 LINE"
);
},
{
closed = 1;
nodes = (
"183 371 OFFCURVE",
"223 409 OFFCURVE",
"223 453 CURVE",
"223 496 OFFCURVE",
"183 534 OFFCURVE",
"141 534 CURVE",
"98 534 OFFCURVE",
"59 496 OFFCURVE",
"59 453 CURVE",
"59 410 OFFCURVE",
"98 371 OFFCURVE",
"141 371 CURVE"
);
}
);
width = 259;
}
);
leftKerningGroup = colon;
rightKerningGroup = colon;
unicode = 003B;
},
{
glyphname = less;
layers = (
{
layerId = "23F2D7CD-FF69-4F10-BF0B-9629FD16792A";
name = Bold;
paths = (
{
closed = 1;
nodes = (
"32 223 LINE",
"454 -27 LINE",
"454 123 LINE",
"227 259 LINE",
"454 401 LINE",
"454 543 LINE",
"32 288 LINE"
);
}
);
width = 515;
}
);
unicode = 003C;
},
{
glyphname = equal;
layers = (
{
layerId = "23F2D7CD-FF69-4F10-BF0B-9629FD16792A";
name = Bold;
paths = (
{
closed = 1;
nodes = (
"375 144 LINE",
"375 231 LINE",
"62 231 LINE",
"62 144 LINE"
);
},
{
closed = 1;
nodes = (
"375 321 LINE",
"375 408 LINE",
"62 408 LINE",
"62 321 LINE"
);
}
);
width = 436;
}
);
unicode = 003D;
},
{
glyphname = greater;
layers = (
{
layerId = "23F2D7CD-FF69-4F10-BF0B-9629FD16792A";
name = Bold;
paths = (
{
closed = 1;
nodes = (
"483 288 LINE",
"61 543 LINE",
"61 401 LINE",
"288 259 LINE",
"61 123 LINE",
"61 -27 LINE",
"483 223 LINE"
);
}
);
width = 515;
}
);
unicode = 003E;
},
{
glyphname = question;
lastChange = "2014-12-10 12:26:36 +0000";
layers = (
{
layerId = "23F2D7CD-FF69-4F10-BF0B-9629FD16792A";
name = Bold;
paths = (
{
closed = 1;
nodes = (
"232 233 LINE",
"232 301 OFFCURVE",
"293 321 OFFCURVE",
"346 354 CURVE SMOOTH",
"409 393 OFFCURVE",
"451 437 OFFCURVE",
"451 522 CURVE SMOOTH",
"451 661 OFFCURVE",
"344 719 OFFCURVE",
"243 719 CURVE SMOOTH",
"152 719 OFFCURVE",
"69 672 OFFCURVE",
"34 590 CURVE",
"121 530 LINE",
"143 566 OFFCURVE",
"181 610 OFFCURVE",
"239 610 CURVE SMOOTH",
"288 610 OFFCURVE",
"334 579 OFFCURVE",
"334 524 CURVE SMOOTH",
"334 449 OFFCURVE",
"244 413 OFFCURVE",
"204 389 CURVE SMOOTH",
"137 350 OFFCURVE",
"122 298 OFFCURVE",
"122 233 CURVE"
);
},
{
closed = 1;
nodes = (
"222 -8 OFFCURVE",
"258 26 OFFCURVE",
"258 67 CURVE",
"258 106 OFFCURVE",
"222 140 OFFCURVE",
"183 140 CURVE",
"144 140 OFFCURVE",
"108 106 OFFCURVE",
"108 67 CURVE",
"108 27 OFFCURVE",
"144 -8 OFFCURVE",
"183 -8 CURVE"
);
}
);
width = 486;
}
);
leftKerningGroup = question;
unicode = 003F;
},
{
glyphname = at;
layers = (
{
layerId = "23F2D7CD-FF69-4F10-BF0B-9629FD16792A";
name = Bold;
paths = (
{
closed = 1;
nodes = (
"222 603 OFFCURVE",
"42 467 OFFCURVE",
"42 230 CURVE SMOOTH",
"42 6 OFFCURVE",
"205 -146 OFFCURVE",
"405 -146 CURVE SMOOTH",
"463 -146 OFFCURVE",
"524 -133 OFFCURVE",
"579 -106 CURVE",
"563 -54 LINE",
"513 -76 OFFCURVE",
"470 -92 OFFCURVE",
"407 -92 CURVE SMOOTH",
"220 -92 OFFCURVE",
"98 52 OFFCURVE",
"98 230 CURVE SMOOTH",
"98 415 OFFCURVE",
"230 549 OFFCURVE",
"418 549 CURVE SMOOTH",
"609 549 OFFCURVE",
"739 410 OFFCURVE",
"739 224 CURVE SMOOTH",
"739 168 OFFCURVE",
"726 44 OFFCURVE",
"654 44 CURVE SMOOTH",
"607 44 OFFCURVE",
"603 98 OFFCURVE",
"603 157 CURVE SMOOTH",
"603 253 LINE SMOOTH",
"603 344 OFFCURVE",
"595 462 OFFCURVE",
"422 462 CURVE SMOOTH",
"358 462 OFFCURVE",
"300 445 OFFCURVE",
"250 412 CURVE",
"276 341 LINE",
"308 368 OFFCURVE",
"355 385 OFFCURVE",
"409 385 CURVE SMOOTH",
"499 385 OFFCURVE",
"523 335 OFFCURVE",
"523 262 CURVE",
"503 271 OFFCURVE",
"463 284 OFFCURVE",
"410 284 CURVE SMOOTH",
"319 284 OFFCURVE",
"223 248 OFFCURVE",
"223 138 CURVE SMOOTH",
"223 56 OFFCURVE",
"277 -2 OFFCURVE",
"376 -2 CURVE SMOOTH",
"443 -2 OFFCURVE",
"505 25 OFFCURVE",
"546 66 CURVE",
"551 28 OFFCURVE",
"569 -16 OFFCURVE",
"641 -16 CURVE SMOOTH",
"786 -16 OFFCURVE",
"795 165 OFFCURVE",
"795 222 CURVE SMOOTH",
"795 469 OFFCURVE",
"618 603 OFFCURVE",
"422 603 CURVE SMOOTH"
);
},
{
closed = 1;
nodes = (
"446 74 OFFCURVE",
"410 67 OFFCURVE",
"384 67 CURVE SMOOTH",
"333 67 OFFCURVE",
"303 96 OFFCURVE",
"303 141 CURVE SMOOTH",
"303 198 OFFCURVE",
"348 220 OFFCURVE",
"410 220 CURVE SMOOTH",
"460 220 OFFCURVE",
"504 205 OFFCURVE",
"522 199 CURVE",
"522 161 LINE SMOOTH",
"522 131 OFFCURVE",
"507 104 OFFCURVE",
"471 87 CURVE"
);
}
);
width = 845;
}
);
leftKerningGroup = at;
rightKerningGroup = at;
unicode = 0040;
},
{
glyphname = A;
lastChange = "2014-12-10 12:28:19 +0000";
layers = (
{
anchors = (
{
name = ogonek;
position = "{605, 10}";
},
{
name = top;
position = "{336, 710}";
}
);
layerId = "23F2D7CD-FF69-4F10-BF0B-9629FD16792A";
name = Bold;
paths = (
{
closed = 1;
nodes = (
"5 0 LINE",
"147 0 LINE",
"212 177 LINE",
"460 177 LINE",
"526 0 LINE",
"668 0 LINE",
"398 710 LINE",
"276 710 LINE"
);
},
{
closed = 1;
nodes = (
"235 274 LINE",
"337 553 LINE",
"435 274 LINE"
);
}
);
width = 672;
}
);
leftKerningGroup = A;
rightKerningGroup = A;
unicode = 0041;
},
{
glyphname = B;
layers = (
{
layerId = "23F2D7CD-FF69-4F10-BF0B-9629FD16792A";
name = Bold;
paths = (
{
closed = 1;
nodes = (
"646 276 OFFCURVE",
"595 340 OFFCURVE",
"514 364 CURVE",
"580 393 OFFCURVE",
"616 460 OFFCURVE",
"616 529 CURVE SMOOTH",
"616 618 OFFCURVE",
"554 710 OFFCURVE",
"454 710 CURVE SMOOTH",
"74 710 LINE",
"74 0 LINE",
"417 0 LINE SMOOTH",
"542 0 OFFCURVE",
"646 64 OFFCURVE",
"646 183 CURVE SMOOTH"
);
},
{
closed = 1;
nodes = (
"507 158 OFFCURVE",
"467 117 OFFCURVE",
"417 117 CURVE SMOOTH",
"212 117 LINE",
"212 304 LINE",
"424 304 LINE SMOOTH",
"471 304 OFFCURVE",
"507 261 OFFCURVE",
"507 209 CURVE SMOOTH"
);
},
{
closed = 1;
nodes = (
"402 592 LINE SMOOTH",
"446 592 OFFCURVE",
"480 557 OFFCURVE",
"480 503 CURVE SMOOTH",
"480 447 OFFCURVE",
"442 413 OFFCURVE",
"396 413 CURVE SMOOTH",
"212 413 LINE",
"212 592 LINE"
);
}
);
width = 680;
}
);
leftKerningGroup = B;
rightKerningGroup = B;
unicode = 0042;
},
{
glyphname = C;
lastChange = "2014-12-10 12:29:55 +0000";
layers = (
{
anchors = (
{
name = bottom;
position = "{343, 0}";
},
{
name = top;
position = "{343, 710}";
}
);
layerId = "23F2D7CD-FF69-4F10-BF0B-9629FD16792A";
name = Bold;
paths = (
{
closed = 1;
nodes = (
"31 180 OFFCURVE",
"173 -6 OFFCURVE",
"375 -6 CURVE SMOOTH",
"490 -6 OFFCURVE",
"623 53 OFFCURVE",
"667 159 CURVE",
"554 224 LINE",
"521 147 OFFCURVE",
"444 116 OFFCURVE",
"379 116 CURVE SMOOTH",
"256 116 OFFCURVE",
"171 230 OFFCURVE",
"171 356 CURVE SMOOTH",
"171 469 OFFCURVE",
"239 592 OFFCURVE",
"377 592 CURVE SMOOTH",
"440 592 OFFCURVE",
"515 566 OFFCURVE",
"551 486 CURVE",
"657 559 LINE",
"611 651 OFFCURVE",
"511 714 OFFCURVE",
"381 714 CURVE SMOOTH",
"160 714 OFFCURVE",
"31 533 OFFCURVE",
"31 360 CURVE SMOOTH"
);
}
);
width = 686;
}
);
leftKerningGroup = C;
rightKerningGroup = C;
unicode = 0043;
},
{
glyphname = D;
lastChange = "2014-12-10 12:54:41 +0000";
layers = (
{
anchors = (
{
name = bottom;
position = "{333, 1}";
},
{
name = center;
position = "{358, 355}";
},
{
name = top;
position = "{332, 710}";
}
);
layerId = "23F2D7CD-FF69-4F10-BF0B-9629FD16792A";
name = Bold;
paths = (
{
closed = 1;
nodes = (
"332 0 LINE SMOOTH",
"545 0 OFFCURVE",
"682 141 OFFCURVE",
"682 356 CURVE SMOOTH",
"682 552 OFFCURVE",
"564 710 OFFCURVE",
"332 710 CURVE SMOOTH",
"74 710 LINE",
"74 0 LINE"
);
},
{
closed = 1;
nodes = (
"543 222 OFFCURVE",
"468 121 OFFCURVE",
"332 121 CURVE SMOOTH",
"212 121 LINE",
"212 589 LINE",
"332 589 LINE SMOOTH",
"466 589 OFFCURVE",
"543 493 OFFCURVE",
"543 356 CURVE SMOOTH"
);
}
);
width = 716;
}
);
leftKerningGroup = B;
rightKerningGroup = D;
unicode = 0044;
},
{
glyphname = E;
lastChange = "2014-12-10 12:30:47 +0000";
layers = (
{
anchors = (
{
name = bottom;
position = "{301, 0}";
},
{
name = ogonek;
position = "{541, 10}";
},
{
name = top;
position = "{311, 710}";
}
);
layerId = "23F2D7CD-FF69-4F10-BF0B-9629FD16792A";
name = Bold;
paths = (
{
closed = 1;
nodes = (
"212 121 LINE",
"212 306 LINE",
"511 306 LINE",
"511 418 LINE",
"212 418 LINE",
"212 589 LINE",
"558 589 LINE",
"558 710 LINE",
"74 710 LINE",
"74 0 LINE",
"567 0 LINE",
"567 121 LINE"
);
}
);
width = 601;
}
);
leftKerningGroup = B;
rightKerningGroup = E;
unicode = 0045;
},
{
glyphname = F;
layers = (
{
layerId = "23F2D7CD-FF69-4F10-BF0B-9629FD16792A";
name = Bold;
paths = (
{
closed = 1;
nodes = (
"212 0 LINE",
"212 294 LINE",
"494 294 LINE",
"494 406 LINE",
"212 406 LINE",
"212 589 LINE",
"551 589 LINE",
"551 710 LINE",
"74 710 LINE",
"74 0 LINE"
);
}
);
width = 574;
}
);
leftKerningGroup = B;
rightKerningGroup = F;
unicode = 0046;
},
{
color = 6;
glyphname = G;
lastChange = "2015-01-02 14:06:49 +0000";
layers = (
{
anchors = (
{
name = bottom;
position = "{361, 0}";
},
{
name = top;
position = "{374, 710}";
}
);
layerId = "23F2D7CD-FF69-4F10-BF0B-9629FD16792A";
name = Bold;
paths = (
{
closed = 1;
nodes = (
"582 -5 OFFCURVE",
"727 139 OFFCURVE",
"734 308 CURVE",
"734 312 OFFCURVE",
"735 373 OFFCURVE",
"735 375 CURVE",
"431 375 LINE",
"431 260 LINE",
"592 260 LINE",
"584 179 OFFCURVE",
"496 117 OFFCURVE",
"384 117 CURVE SMOOTH",
"244 117 OFFCURVE",
"167 232 OFFCURVE",
"167 355 CURVE SMOOTH",
"167 483 OFFCURVE",
"248 593 OFFCURVE",
"385 593 CURVE SMOOTH",
"500 593 OFFCURVE",
"562 525 OFFCURVE",
"584 486 CURVE",
"688 566 LINE",
"627 658 OFFCURVE",
"523 715 OFFCURVE",
"393 715 CURVE SMOOTH",
"173 715 OFFCURVE",
"28 552 OFFCURVE",
"28 359 CURVE SMOOTH",
"28 162 OFFCURVE",
"182 -5 OFFCURVE",
"397 -5 CURVE SMOOTH"
);
}
);
width = 770;
}
);
leftKerningGroup = C;
rightKerningGroup = G.alt;
unicode = 0047;
},
{
glyphname = H;
lastChange = "2014-12-10 12:37:21 +0000";
layers = (
{
anchors = (
{
name = center;
position = "{373, 355}";
},
{
name = top;
position = "{373, 710}";
}
);
layerId = "23F2D7CD-FF69-4F10-BF0B-9629FD16792A";
name = Bold;
paths = (
{
closed = 1;
nodes = (
"534 710 LINE",
"534 423 LINE",
"212 423 LINE",
"212 710 LINE",
"74 710 LINE",
"74 0 LINE",
"212 0 LINE",
"212 303 LINE",
"534 303 LINE",
"534 0 LINE",
"671 0 LINE",
"671 710 LINE"
);
}
);
width = 745;
}
);
leftKerningGroup = B;
rightKerningGroup = H;
unicode = 0048;
},
{
glyphname = I;
lastChange = "2014-12-10 12:31:15 +0000";
layers = (
{
anchors = (
{
name = ogonek;
position = "{257, 10}";
},
{
name = top;
position = "{143, 710}";
}
);
layerId = "23F2D7CD-FF69-4F10-BF0B-9629FD16792A";
name = Bold;
paths = (
{
closed = 1;
nodes = (
"212 0 LINE",
"212 710 LINE",
"74 710 LINE",
"74 0 LINE"
);
}
);
width = 286;
}
);
leftKerningGroup = B;
rightKerningGroup = H;
unicode = 0049;
},
{
color = 6;
glyphname = J;
lastChange = "2015-01-02 14:08:29 +0000";
layers = (
{
anchors = (
{
name = top;
position = "{401, 710}";
}
);
layerId = "23F2D7CD-FF69-4F10-BF0B-9629FD16792A";
name = Bold;
paths = (
{
closed = 1;
nodes = (
"124 146 OFFCURVE",
"159 119 OFFCURVE",
"218 119 CURVE",
"280 119 OFFCURVE",
"334 158 OFFCURVE",
"334 256 CURVE",
"334 710 LINE",
"470 710 LINE",
"470 251 LINE",
"474 78 OFFCURVE",
"353 -11 OFFCURVE",
"214 -11 CURVE",
"106 -11 OFFCURVE",
"13 50 OFFCURVE",
"-15 154 CURVE",
"102 207 LINE"
);
}
);
width = 508;
}
);
leftKerningGroup = J;
rightKerningGroup = J;
unicode = 004A;
},
{
glyphname = K;
lastChange = "2014-12-10 12:38:29 +0000";
layers = (
{
anchors = (
{
name = bottom;
position = "{335, 0}";
},
{
name = top;
position = "{335, 710}";
}
);
layerId = "23F2D7CD-FF69-4F10-BF0B-9629FD16792A";
name = Bold;
paths = (
{
closed = 1;
nodes = (
"212 0 LINE",
"212 212 LINE",
"303 307 LINE",
"524 0 LINE",
"679 0 LINE",
"390 395 LINE",
"662 710 LINE",
"510 710 LINE",
"212 372 LINE",
"212 709 LINE",
"74 709 LINE",
"74 0 LINE"
);
}
);
width = 669;
}
);
leftKerningGroup = B;
rightKerningGroup = K;
unicode = 004B;
},
{
glyphname = L;
lastChange = "2014-12-10 12:39:52 +0000";
layers = (
{
anchors = (
{
name = bottom;
position = "{292, 0}";
},
{
name = top;
position = "{149, 710}";
},
{
name = topright;
position = "{300, 524}";
}
);
layerId = "23F2D7CD-FF69-4F10-BF0B-9629FD16792A";
name = Bold;
paths = (
{
closed = 1;
nodes = (
"574 0 LINE",
"574 121 LINE",
"212 121 LINE",
"212 710 LINE",
"74 710 LINE",
"74 0 LINE"
);
}
);
width = 584;
}
);
leftKerningGroup = B;
rightKerningGroup = L;
unicode = 004C;
},
{
glyphname = M;
layers = (
{
layerId = "23F2D7CD-FF69-4F10-BF0B-9629FD16792A";
name = Bold;
paths = (
{
closed = 1;
nodes = (
"791 0 LINE",
"791 710 LINE",
"644 710 LINE",
"432 306 LINE",
"222 710 LINE",
"74 710 LINE",
"74 0 LINE",
"212 0 LINE",
"212 470 LINE",
"395 120 LINE",
"470 120 LINE",
"653 470 LINE",
"653 0 LINE"
);
}
);
width = 865;
}
);
leftKerningGroup = B;
rightKerningGroup = H;
unicode = 004D;
},
{
glyphname = N;
lastChange = "2014-12-10 12:42:34 +0000";
layers = (
{
anchors = (
{
name = bottom;
position = "{382, 0}";
},
{
name = top;
position = "{370, 710}";
}
);
layerId = "23F2D7CD-FF69-4F10-BF0B-9629FD16792A";
name = Bold;
paths = (
{
closed = 1;
nodes = (
"577 0 LINE",
"689 0 LINE",
"689 709 LINE",
"551 709 LINE",
"551 244 LINE",
"181 710 LINE",
"74 710 LINE",
"74 0 LINE",
"212 0 LINE",
"212 455 LINE"
);
}
);
width = 763;
}
);
leftKerningGroup = B;
rightKerningGroup = H;
unicode = 004E;
},
{
glyphname = O;
lastChange = "2014-12-10 12:49:38 +0000";
layers = (
{
anchors = (
{
name = ogonek;
position = "{425, 12}";
},
{
name = top;
position = "{378, 710}";
}
);
layerId = "23F2D7CD-FF69-4F10-BF0B-9629FD16792A";
name = Bold;
paths = (
{
closed = 1;
nodes = (
"578 -5 OFFCURVE",
"724 165 OFFCURVE",
"724 353 CURVE SMOOTH",
"724 532 OFFCURVE",
"586 715 OFFCURVE",
"380 715 CURVE SMOOTH",
"179 715 OFFCURVE",
"31 544 OFFCURVE",
"31 355 CURVE SMOOTH",
"31 173 OFFCURVE",
"170 -5 OFFCURVE",
"377 -5 CURVE SMOOTH"
);
},
{
closed = 1;
nodes = (
"171 472 OFFCURVE",
"244 592 OFFCURVE",
"378 592 CURVE SMOOTH",
"506 592 OFFCURVE",
"585 478 OFFCURVE",
"585 355 CURVE SMOOTH",
"585 238 OFFCURVE",
"512 117 OFFCURVE",
"378 117 CURVE SMOOTH",
"247 117 OFFCURVE",
"171 232 OFFCURVE",
"171 355 CURVE SMOOTH"
);
}
);
width = 756;
}
);
leftKerningGroup = C;
rightKerningGroup = O;
unicode = 004F;
},
{
glyphname = P;
layers = (
{
layerId = "23F2D7CD-FF69-4F10-BF0B-9629FD16792A";
name = Bold;
paths = (
{
closed = 1;
nodes = (
"212 0 LINE",
"212 238 LINE",
"380 238 LINE SMOOTH",
"512 238 OFFCURVE",
"601 353 OFFCURVE",
"601 474 CURVE SMOOTH",
"601 590 OFFCURVE",
"506 710 OFFCURVE",
"375 710 CURVE SMOOTH",
"74 710 LINE",
"74 0 LINE"
);
},
{
closed = 1;
nodes = (
"212 589 LINE",
"366 589 LINE SMOOTH",
"415 589 OFFCURVE",
"461 547 OFFCURVE",
"461 474 CURVE SMOOTH",
"461 404 OFFCURVE",
"423 359 OFFCURVE",
"372 359 CURVE SMOOTH",
"212 359 LINE"
);
}
);
width = 623;
}
);
leftKerningGroup = B;
rightKerningGroup = P;
unicode = 0050;
},
{
color = 6;
glyphname = Q;
lastChange = "2015-01-02 14:08:09 +0000";
layers = (
{
layerId = "23F2D7CD-FF69-4F10-BF0B-9629FD16792A";
name = Bold;
paths = (
{
closed = 1;
nodes = (
"628 -35 LINE",
"706 21 LINE",
"631 109 LINE",
"689 174 OFFCURVE",
"724 261 OFFCURVE",
"724 353 CURVE SMOOTH",
"724 532 OFFCURVE",
"586 715 OFFCURVE",
"380 715 CURVE SMOOTH",
"179 715 OFFCURVE",
"31 544 OFFCURVE",
"31 355 CURVE SMOOTH",
"31 173 OFFCURVE",
"170 -4 OFFCURVE",
"377 -5 CURVE SMOOTH",
"444 -5 OFFCURVE",
"505 14 OFFCURVE",
"557 46 CURVE"
);
},
{
closed = 1;
nodes = (
"247 117 OFFCURVE",
"171 232 OFFCURVE",
"171 355 CURVE SMOOTH",
"171 472 OFFCURVE",
"244 593 OFFCURVE",
"378 593 CURVE SMOOTH",
"506 593 OFFCURVE",
"585 478 OFFCURVE",
"585 355 CURVE SMOOTH",
"585 303 OFFCURVE",
"570 250 OFFCURVE",
"543 208 CURVE",
"483 275 LINE",
"406 217 LINE",
"472 141 LINE",
"445 126 OFFCURVE",
"414 117 OFFCURVE",
"378 117 CURVE SMOOTH"
);
}
);
width = 755;
}
);
leftKerningGroup = C;
rightKerningGroup = O;
unicode = 0051;
},
{
glyphname = R;
lastChange = "2014-12-10 12:43:31 +0000";
layers = (
{
anchors = (
{
name = bottom;
position = "{333, 0}";
},
{
name = top;
position = "{307, 710}";
}
);
layerId = "23F2D7CD-FF69-4F10-BF0B-9629FD16792A";
name = Bold;
paths = (
{
closed = 1;
nodes = (
"212 0 LINE",
"212 238 LINE",
"348 238 LINE",
"493 0 LINE",
"648 0 LINE",
"486 267 LINE",
"564 300 OFFCURVE",
"614 383 OFFCURVE",
"614 474 CURVE SMOOTH",
"614 590 OFFCURVE",
"519 710 OFFCURVE",
"388 710 CURVE SMOOTH",
"74 710 LINE",
"74 0 LINE"
);
},
{
closed = 1;
nodes = (
"212 589 LINE",
"379 589 LINE SMOOTH",
"428 589 OFFCURVE",
"475 540 OFFCURVE",
"475 474 CURVE SMOOTH",
"475 410 OFFCURVE",
"436 359 OFFCURVE",
"385 359 CURVE SMOOTH",
"212 359 LINE"
);
}
);
width = 665;
}
);
leftKerningGroup = B;
rightKerningGroup = R;
unicode = 0052;
},
{
glyphname = T;
lastChange = "2014-12-10 12:44:29 +0000";
layers = (
{
anchors = (
{
name = bottom;
position = "{310, 0}";
},
{
name = center;
position = "{310, 355}";
},
{
name = top;
position = "{310, 710}";
}
);
layerId = "23F2D7CD-FF69-4F10-BF0B-9629FD16792A";
name = Bold;
paths = (
{
closed = 1;
nodes = (
"605 710 LINE",
"14 710 LINE",
"14 589 LINE",
"241 589 LINE",
"241 0 LINE",
"378 0 LINE",
"378 589 LINE",
"605 589 LINE"
);
}
);
width = 619;
}
);
leftKerningGroup = T;
rightKerningGroup = T;
unicode = 0054;
},
{
glyphname = U;
lastChange = "2014-12-10 12:46:23 +0000";
layers = (
{
anchors = (
{
name = ogonek;
position = "{434, 10}";
},
{
name = top;
position = "{375, 710}";
}
);
layerId = "23F2D7CD-FF69-4F10-BF0B-9629FD16792A";
name = Bold;
paths = (
{
closed = 1;
nodes = (
"245 117 OFFCURVE",
"202 229 OFFCURVE",
"202 348 CURVE SMOOTH",
"202 710 LINE",
"64 710 LINE",
"64 348 LINE SMOOTH",
"64 164 OFFCURVE",
"148 -5 OFFCURVE",
"375 -5 CURVE SMOOTH",
"594 -5 OFFCURVE",
"685 154 OFFCURVE",
"685 348 CURVE SMOOTH",
"685 710 LINE",
"548 710 LINE",
"548 348 LINE SMOOTH",
"548 232 OFFCURVE",
"506 117 OFFCURVE",
"374 117 CURVE SMOOTH"
);
}
);
width = 750;
}
);
leftKerningGroup = U;
rightKerningGroup = U;
unicode = 0055;
},
{
glyphname = V;
layers = (
{
layerId = "23F2D7CD-FF69-4F10-BF0B-9629FD16792A";
name = Bold;
paths = (
{
closed = 1;
nodes = (
"2 710 LINE",
"281 0 LINE",
"397 0 LINE",
"674 710 LINE",
"529 710 LINE",
"339 173 LINE",
"147 710 LINE"
);
}
);
width = 676;
}
);
leftKerningGroup = V;
rightKerningGroup = V;
unicode = 0056;
},
{
color = 4;
glyphname = W;
lastChange = "2014-12-10 12:46:34 +0000";
layers = (
{
anchors = (
{
name = top;
position = "{555, 710}";
}
);
layerId = "23F2D7CD-FF69-4F10-BF0B-9629FD16792A";
name = Bold;
paths = (
{
closed = 1;
nodes = (
"943 710 LINE",
"793 207 LINE",
"627 710 LINE",
"478 710 LINE",
"317 206 LINE",
"165 710 LINE",
"10 710 LINE",
"232 0 LINE",
"375 0 LINE",
"553 485 LINE",
"735 0 LINE",
"877 0 LINE",
"1100 710 LINE"
);
}
);
width = 1109;
}
);
leftKerningGroup = W.alt;
rightKerningGroup = W.alt;
unicode = 0057;
},
{
glyphname = X;
layers = (
{
layerId = "23F2D7CD-FF69-4F10-BF0B-9629FD16792A";
name = Bold;
paths = (
{
closed = 1;
nodes = (
"-3 710 LINE",
"250 350 LINE",
"5 0 LINE",
"155 0 LINE",
"324 254 LINE",
"492 0 LINE",
"641 0 LINE",
"396 350 LINE",
"649 710 LINE",
"500 710 LINE",
"324 446 LINE",
"147 710 LINE"
);
}
);
width = 646;
}
);
leftKerningGroup = X;
rightKerningGroup = X;
unicode = 0058;
},
{
glyphname = Y;
lastChange = "2014-12-10 12:32:42 +0000";
layers = (
{
anchors = (
{
name = top;
position = "{330, 710}";
}
);
layerId = "23F2D7CD-FF69-4F10-BF0B-9629FD16792A";
name = Bold;
paths = (
{
closed = 1;
nodes = (
"4 710 LINE",
"261 250 LINE",
"261 0 LINE",
"398 0 LINE",
"398 248 LINE",
"656 710 LINE",
"507 710 LINE",
"329 368 LINE",
"154 710 LINE"
);
}
);
width = 660;
}
);
leftKerningGroup = Y;
rightKerningGroup = Y;
unicode = 0059;
},
{
glyphname = Z;
lastChange = "2014-12-10 12:46:53 +0000";
layers = (
{
anchors = (
{
name = top;
position = "{314, 710}";
}
);
layerId = "23F2D7CD-FF69-4F10-BF0B-9629FD16792A";
name = Bold;
paths = (
{
closed = 1;
nodes = (
"30 0 LINE",
"593 0 LINE",
"593 121 LINE",
"202 121 LINE",
"590 606 LINE",
"590 710 LINE",
"41 710 LINE",
"41 589 LINE",
"431 589 LINE",
"30 104 LINE"
);
}
);
width = 627;
}
);
leftKerningGroup = Z;
rightKerningGroup = Z;
unicode = 005A;
},
{
glyphname = bracketleft;
layers = (
{
layerId = "23F2D7CD-FF69-4F10-BF0B-9629FD16792A";
name = Bold;
paths = (
{
closed = 1;
nodes = (
"269 -40 LINE",
"269 67 LINE",
"206 67 LINE",
"206 633 LINE",
"269 633 LINE",
"269 740 LINE",
"82 740 LINE",
"82 -40 LINE"
);
}
);
width = 316;
}
);
rightKerningGroup = bracketleft;
unicode = 005B;
},
{
color = 6;
glyphname = backslash;
lastChange = "2015-01-02 14:10:44 +0000";
layers = (
{
layerId = "23F2D7CD-FF69-4F10-BF0B-9629FD16792A";
name = Bold;
paths = (
{
closed = 1;
nodes = (
"324 -46 LINE",
"450 0 LINE",
"131 745 LINE",
"6 701 LINE"
);
}
);
width = 450;
}
);
leftKerningGroup = backslash;
rightKerningGroup = backslash;
unicode = 005C;
},
{
glyphname = bracketright;
layers = (
{
layerId = "23F2D7CD-FF69-4F10-BF0B-9629FD16792A";
name = Bold;
paths = (
{
closed = 1;
nodes = (
"234 -40 LINE",
"234 740 LINE",
"46 740 LINE",
"46 633 LINE",
"110 633 LINE",
"110 67 LINE",
"46 67 LINE",
"46 -40 LINE"
);
}
);
width = 316;
}
);
leftKerningGroup = bracketright;
unicode = 005D;
},
{
glyphname = asciicircum;
layers = (
{
layerId = "23F2D7CD-FF69-4F10-BF0B-9629FD16792A";
name = Bold;
paths = (
{
closed = 1;
nodes = (
"147 303 LINE",
"293 597 LINE",
"436 303 LINE",
"546 303 LINE",
"349 710 LINE",
"237 710 LINE",
"39 303 LINE"
);
}
);
width = 585;
}
);
unicode = 005E;
},
{
glyphname = underscore;
layers = (
{
layerId = "23F2D7CD-FF69-4F10-BF0B-9629FD16792A";
name = Bold;
paths = (
{
closed = 1;
nodes = (
"421 -121 LINE",
"421 0 LINE",
"54 0 LINE",
"54 -121 LINE"
);
}
);
width = 475;
}
);
unicode = 005F;
},
{
color = 9;
glyphname = grave;
lastChange = "2015-01-02 12:02:43 +0000";
layers = (
{
anchors = (
{
name = _top;
position = "{204, 524}";
}
);
layerId = "23F2D7CD-FF69-4F10-BF0B-9629FD16792A";
name = Bold;
paths = (
{
closed = 1;
nodes = (
"154 596 LINE",
"239 596 LINE",
"151 751 LINE",
"4 751 LINE"
);
}
);
width = 255;
}
);
unicode = 0060;
},
{
color = 4;
glyphname = a;
lastChange = "2014-12-09 15:53:47 +0000";
layers = (
{
anchors = (
{
name = ogonek;
position = "{508, 10}";
},
{
name = top;
position = "{272, 524}";
}
);
layerId = "23F2D7CD-FF69-4F10-BF0B-9629FD16792A";
name = Bold;
paths = (
{
closed = 1;
nodes = (
"510 0 LINE",
"510 317 LINE SMOOTH",
"510 453 OFFCURVE",
"425 533 OFFCURVE",
"272 533 CURVE SMOOTH",
"191 533 OFFCURVE",
"118 508 OFFCURVE",
"54 466 CURVE",
"95 381 LINE",
"151 420 OFFCURVE",
"203 440 OFFCURVE",
"259 440 CURVE SMOOTH",
"336 440 OFFCURVE",
"376 400 OFFCURVE",
"376 332 CURVE SMOOTH",
"376 302 LINE",
"349 314 OFFCURVE",
"303 325 OFFCURVE",
"248 325 CURVE SMOOTH",
"129 325 OFFCURVE",
"25 264 OFFCURVE",
"25 156 CURVE SMOOTH",
"25 61 OFFCURVE",
"102 -10 OFFCURVE",
"204 -10 CURVE SMOOTH",
"277 -10 OFFCURVE",
"341 17 OFFCURVE",
"381 73 CURVE",
"381 0 LINE"
);
},
{
closed = 1;
nodes = (
"329 102 OFFCURVE",
"282 88 OFFCURVE",
"242 88 CURVE SMOOTH",
"193 88 OFFCURVE",
"152 120 OFFCURVE",
"152 167 CURVE SMOOTH",
"152 222 OFFCURVE",
"211 250 OFFCURVE",
"270 250 CURVE SMOOTH",
"303 250 OFFCURVE",
"343 243 OFFCURVE",
"376 230 CURVE",
"376 170 LINE SMOOTH",
"376 157 OFFCURVE",
"368 143 OFFCURVE",
"354 132 CURVE"
);
}
);
width = 565;
}
);
leftKerningGroup = a;
rightKerningGroup = a.alt2;
unicode = 0061;
},
{
glyphname = b;
layers = (
{
layerId = "23F2D7CD-FF69-4F10-BF0B-9629FD16792A";
name = Bold;
paths = (
{
closed = 1;
nodes = (
"499 -10 OFFCURVE",
"604 109 OFFCURVE",
"604 260 CURVE SMOOTH",
"604 408 OFFCURVE",
"511 533 OFFCURVE",
"375 533 CURVE SMOOTH",
"294 533 OFFCURVE",
"232 495 OFFCURVE",
"195 432 CURVE",
"195 730 LINE",
"61 730 LINE",
"61 0 LINE",
"178 0 LINE",
"178 91 LINE",
"214 29 OFFCURVE",
"279 -10 OFFCURVE",
"359 -10 CURVE SMOOTH"
);
},
{
closed = 1;
nodes = (
"271 104 OFFCURVE",
"213 139 OFFCURVE",
"195 192 CURVE",
"195 317 LINE",
"220 374 OFFCURVE",
"271 419 OFFCURVE",
"330 419 CURVE SMOOTH",
"410 419 OFFCURVE",
"467 344 OFFCURVE",
"467 259 CURVE SMOOTH",
"467 175 OFFCURVE",
"408 104 OFFCURVE",
"322 104 CURVE SMOOTH"
);
}
);
width = 634;
}
);
leftKerningGroup = b;
rightKerningGroup = b;
unicode = 0062;
},
{
glyphname = c;
lastChange = "2014-12-10 14:01:53 +0000";
layers = (
{
anchors = (
{
name = bottom;
position = "{282, 0}";
},
{
name = top;
position = "{282, 524}";
}
);
layerId = "23F2D7CD-FF69-4F10-BF0B-9629FD16792A";
name = Bold;
paths = (
{
closed = 1;
nodes = (
"28 117 OFFCURVE",
"135 -10 OFFCURVE",
"305 -10 CURVE SMOOTH",
"420 -10 OFFCURVE",
"507 47 OFFCURVE",
"543 126 CURVE",
"412 166 LINE",
"396 131 OFFCURVE",
"351 104 OFFCURVE",
"303 104 CURVE SMOOTH",
"228 104 OFFCURVE",
"166 170 OFFCURVE",
"166 262 CURVE SMOOTH",
"166 355 OFFCURVE",
"226 419 OFFCURVE",
"303 419 CURVE SMOOTH",
"348 419 OFFCURVE",
"388 397 OFFCURVE",
"410 359 CURVE",
"541 399 LINE",
"501 479 OFFCURVE",
"418 533 OFFCURVE",
"304 533 CURVE SMOOTH",
"133 533 OFFCURVE",
"28 408 OFFCURVE",
"28 262 CURVE SMOOTH"
);
}
);
width = 564;
}
);
leftKerningGroup = c;
rightKerningGroup = c;
unicode = 0063;
},
{
color = 4;
glyphname = d;
lastChange = "2014-12-10 14:28:37 +0000";
layers = (
{
anchors = (
{
name = center;
position = "{317, 262}";
},
{
name = topright;
position = "{645, 524}";
}
);
layerId = "23F2D7CD-FF69-4F10-BF0B-9629FD16792A";
name = Bold;
paths = (
{
closed = 1;
nodes = (
"574 0 LINE",
"574 730 LINE",
"440 730 LINE",
"440 432 LINE",
"404 491 OFFCURVE",
"340 533 OFFCURVE",
"262 533 CURVE SMOOTH",
"128 533 OFFCURVE",
"29 413 OFFCURVE",
"29 262 CURVE SMOOTH",
"29 110 OFFCURVE",
"133 -10 OFFCURVE",
"278 -10 CURVE SMOOTH",
"350 -10 OFFCURVE",
"406 24 OFFCURVE",
"440 82 CURVE",
"440 0 LINE"
);
},
{
closed = 1;
nodes = (
"440 192 LINE",
"423 141 OFFCURVE",
"365 104 OFFCURVE",
"312 104 CURVE SMOOTH",
"230 104 OFFCURVE",
"168 172 OFFCURVE",
"168 259 CURVE SMOOTH",
"168 342 OFFCURVE",
"224 419 OFFCURVE",
"304 419 CURVE SMOOTH",
"359 419 OFFCURVE",
"418 377 OFFCURVE",
"440 317 CURVE"
);
}
);
width = 634;
}
);
leftKerningGroup = d;
unicode = 0064;
},
{
glyphname = e;
lastChange = "2014-12-10 14:02:05 +0000";
layers = (
{
anchors = (
{
name = bottom;
position = "{300, 0}";
},
{
name = ogonek;
position = "{539, 10}";
},
{
name = top;
position = "{300, 524}";
}
);
layerId = "23F2D7CD-FF69-4F10-BF0B-9629FD16792A";
name = Bold;
paths = (
{
closed = 1;
nodes = (
"420 -10 OFFCURVE",
"510 47 OFFCURVE",
"548 127 CURVE",
"433 159 LINE",
"416 116 OFFCURVE",
"362 88 OFFCURVE",
"309 88 CURVE SMOOTH",
"239 88 OFFCURVE",
"177 137 OFFCURVE",
"170 219 CURVE",
"575 219 LINE",
"577 230 OFFCURVE",
"578 247 OFFCURVE",
"578 264 CURVE SMOOTH",
"578 406 OFFCURVE",
"476 533 OFFCURVE",
"305 533 CURVE SMOOTH",
"134 533 OFFCURVE",
"28 408 OFFCURVE",
"28 259 CURVE SMOOTH",
"28 114 OFFCURVE",
"135 -10 OFFCURVE",
"304 -10 CURVE SMOOTH"
);
},
{
closed = 1;
nodes = (
"168 306 LINE",
"174 384 OFFCURVE",
"231 436 OFFCURVE",
"303 436 CURVE SMOOTH",
"376 436 OFFCURVE",
"433 384 OFFCURVE",
"440 306 CURVE"
);
}
);
width = 599;
}
);
leftKerningGroup = c;
rightKerningGroup = e;
unicode = 0065;
},
{
glyphname = f;
layers = (
{
layerId = "23F2D7CD-FF69-4F10-BF0B-9629FD16792A";
name = Bold;
paths = (
{
closed = 1;
nodes = (
"227 0 LINE",
"227 394 LINE",
"355 394 LINE",
"355 496 LINE",
"227 496 LINE",
"227 533 LINE SMOOTH",
"227 594 OFFCURVE",
"251 627 OFFCURVE",
"297 627 CURVE SMOOTH",
"320 627 OFFCURVE",
"350 619 OFFCURVE",
"370 608 CURVE",
"397 709 LINE",
"355 729 OFFCURVE",
"310 740 OFFCURVE",
"268 740 CURVE SMOOTH",
"161 740 OFFCURVE",
"93 658 OFFCURVE",
"93 528 CURVE SMOOTH",
"93 496 LINE",
"24 496 LINE",
"24 394 LINE",
"93 394 LINE",
"93 0 LINE"
);
}
);
width = 370;
}
);
leftKerningGroup = f;
rightKerningGroup = f;
unicode = 0066;
},
{
glyphname = g;
lastChange = "2014-12-10 14:30:33 +0000";
layers = (
{
anchors = (
{
name = top;
position = "{317, 524}";
}
);
layerId = "23F2D7CD-FF69-4F10-BF0B-9629FD16792A";
name = Bold;
paths = (
{
closed = 1;
nodes = (
"337 -3 OFFCURVE",
"405 31 OFFCURVE",
"440 91 CURVE",
"440 25 LINE SMOOTH",
"440 -77 OFFCURVE",
"367 -122 OFFCURVE",
"283 -122 CURVE SMOOTH",
"215 -122 OFFCURVE",
"151 -92 OFFCURVE",
"111 -43 CURVE",
"38 -114 LINE",
"94 -183 OFFCURVE",
"169 -223 OFFCURVE",
"283 -223 CURVE SMOOTH",
"451 -223 OFFCURVE",
"574 -130 OFFCURVE",
"574 25 CURVE SMOOTH",
"574 524 LINE",
"457 524 LINE",
"457 432 LINE",
"417 493 OFFCURVE",
"355 533 OFFCURVE",
"274 533 CURVE SMOOTH",
"130 533 OFFCURVE",
"30 413 OFFCURVE",
"30 262 CURVE SMOOTH",
"30 118 OFFCURVE",
"126 -3 OFFCURVE",
"266 -3 CURVE SMOOTH"
);
},
{
closed = 1;
nodes = (
"229 104 OFFCURVE",
"167 172 OFFCURVE",
"167 258 CURVE SMOOTH",
"167 341 OFFCURVE",
"221 419 OFFCURVE",
"303 419 CURVE SMOOTH",
"359 419 OFFCURVE",
"416 378 OFFCURVE",
"440 317 CURVE",
"440 192 LINE",
"421 144 OFFCURVE",
"369 104 OFFCURVE",
"311 104 CURVE SMOOTH"
);
}
);
width = 634;
}
);
leftKerningGroup = d;
rightKerningGroup = g;
unicode = 0067;
},
{
glyphname = h;
lastChange = "2014-12-10 14:32:38 +0000";
layers = (
{
anchors = (
{
name = center;
position = "{302, 262}";
},
{
name = top;
position = "{302, 710}";
}
);
layerId = "23F2D7CD-FF69-4F10-BF0B-9629FD16792A";
name = Bold;
paths = (
{
closed = 1;
nodes = (
"548 327 LINE SMOOTH",
"548 430 OFFCURVE",
"518 533 OFFCURVE",
"383 533 CURVE SMOOTH",
"304 533 OFFCURVE",
"234 494 OFFCURVE",
"195 427 CURVE",
"195 730 LINE",
"61 730 LINE",
"61 0 LINE",
"195 0 LINE",
"195 306 LINE",
"215 370 OFFCURVE",
"277 415 OFFCURVE",
"326 415 CURVE SMOOTH",
"381 415 OFFCURVE",
"414 376 OFFCURVE",
"414 294 CURVE SMOOTH",
"414 0 LINE",
"548 0 LINE"
);
}
);
width = 604;
}
);
leftKerningGroup = b;
rightKerningGroup = h;
unicode = 0068;
},
{
color = 4;
glyphname = i;
lastChange = "2014-12-09 15:52:18 +0000";
layers = (
{
layerId = "23F2D7CD-FF69-4F10-BF0B-9629FD16792A";
name = Bold;
paths = (
{
closed = 1;
nodes = (
"197 0 LINE",
"197 524 LINE",
"63 524 LINE",
"63 0 LINE"
);
},
{
closed = 1;
nodes = (
"168 589 OFFCURVE",
"204 623 OFFCURVE",
"204 663 CURVE",
"204 702 OFFCURVE",
"168 736 OFFCURVE",
"130 736 CURVE",
"91 736 OFFCURVE",
"56 702 OFFCURVE",
"56 663 CURVE",
"56 624 OFFCURVE",
"91 589 OFFCURVE",
"130 589 CURVE"
);
}
);
width = 255;
}
);
leftKerningGroup = i;
rightKerningGroup = i;
unicode = 0069;
},
{
color = 4;
glyphname = j;
lastChange = "2014-12-10 14:35:23 +0000";
layers = (
{
layerId = "23F2D7CD-FF69-4F10-BF0B-9629FD16792A";
name = Bold;
paths = (
{
closed = 1;
nodes = (
"63 -213 LINE",
"197 -213 LINE",
"197 524 LINE",
"63 524 LINE"
);
},
{
closed = 1;
nodes = (
"168 589 OFFCURVE",
"204 623 OFFCURVE",
"204 663 CURVE",
"204 702 OFFCURVE",
"168 736 OFFCURVE",
"130 736 CURVE",
"91 736 OFFCURVE",
"56 702 OFFCURVE",
"56 663 CURVE",
"56 624 OFFCURVE",
"91 589 OFFCURVE",
"130 589 CURVE"
);
}
);
width = 255;
}
);
leftKerningGroup = i;
rightKerningGroup = i;
unicode = 006A;
},
{
glyphname = k;
lastChange = "2014-12-10 14:36:02 +0000";
layers = (
{
anchors = (
{
name = bottom;
position = "{279, 0}";
}
);
layerId = "23F2D7CD-FF69-4F10-BF0B-9629FD16792A";
name = Bold;
paths = (
{
closed = 1;
nodes = (
"562 0 LINE",
"353 301 LINE",
"548 523 LINE",
"405 523 LINE",
"195 287 LINE",
"195 730 LINE",
"61 730 LINE",
"61 0 LINE",
"195 0 LINE",
"195 156 LINE",
"267 227 LINE",
"419 0 LINE"
);
}
);
width = 558;
}
);
leftKerningGroup = b;
rightKerningGroup = k;
unicode = 006B;
},
{
color = 4;
glyphname = l;
lastChange = "2014-12-10 14:36:35 +0000";
layers = (
{
anchors = (
{
name = bottom;
position = "{131, 0}";
},
{
name = top;
position = "{131, 710}";
},
{
name = topright;
position = "{268, 524}";
}
);
layerId = "23F2D7CD-FF69-4F10-BF0B-9629FD16792A";
name = Bold;
paths = (
{
closed = 1;
nodes = (
"63 0 LINE",
"197 0 LINE",
"197 730 LINE",
"63 730 LINE"
);
}
);
width = 261;
}
);
unicode = 006C;
},
{
glyphname = m;
layers = (
{
layerId = "23F2D7CD-FF69-4F10-BF0B-9629FD16792A";
name = Bold;
paths = (
{
closed = 1;
nodes = (
"875 327 LINE SMOOTH",
"875 428 OFFCURVE",
"847 533 OFFCURVE",
"718 533 CURVE SMOOTH",
"635 533 OFFCURVE",
"567 494 OFFCURVE",
"525 422 CURVE",
"512 484 OFFCURVE",
"464 533 OFFCURVE",
"377 533 CURVE SMOOTH",
"291 533 OFFCURVE",
"221 495 OFFCURVE",
"182 427 CURVE",
"182 524 LINE",
"61 524 LINE",
"61 0 LINE",
"195 0 LINE",
"195 306 LINE",
"215 371 OFFCURVE",
"268 415 OFFCURVE",
"320 415 CURVE SMOOTH",
"371 415 OFFCURVE",
"401 378 OFFCURVE",
"401 294 CURVE SMOOTH",
"401 0 LINE",
"535 0 LINE",
"535 305 LINE",
"555 370 OFFCURVE",
"607 415 OFFCURVE",
"660 415 CURVE SMOOTH",
"711 415 OFFCURVE",
"741 377 OFFCURVE",
"741 294 CURVE SMOOTH",
"741 0 LINE",
"875 0 LINE"
);
}
);
width = 931;
}
);
leftKerningGroup = m;
rightKerningGroup = m;
unicode = 006D;
},
{
glyphname = n;
lastChange = "2014-12-10 14:02:49 +0000";
layers = (
{
anchors = (
{
name = bottom;
position = "{302, 0}";
},
{
name = top;
position = "{302, 524}";
}
);
layerId = "23F2D7CD-FF69-4F10-BF0B-9629FD16792A";
name = Bold;
paths = (
{
closed = 1;
nodes = (
"548 327 LINE SMOOTH",
"548 429 OFFCURVE",
"521 533 OFFCURVE",
"390 533 CURVE SMOOTH",
"299 533 OFFCURVE",
"221 493 OFFCURVE",
"182 427 CURVE",
"182 524 LINE",
"61 524 LINE",
"61 0 LINE",
"195 0 LINE",
"195 306 LINE",
"215 369 OFFCURVE",
"277 415 OFFCURVE",
"331 415 CURVE SMOOTH",
"383 415 OFFCURVE",
"414 378 OFFCURVE",
"414 294 CURVE SMOOTH",
"414 0 LINE",
"548 0 LINE"
);
}
);
width = 604;
}
);
leftKerningGroup = m;
rightKerningGroup = m;
unicode = 006E;
},
{
glyphname = o;
lastChange = "2014-12-10 14:02:55 +0000";
layers = (
{
anchors = (
{
name = top;
position = "{303, 524}";
}
);
layerId = "23F2D7CD-FF69-4F10-BF0B-9629FD16792A";
name = Bold;
paths = (
{
closed = 1;
nodes = (
"474 -10 OFFCURVE",
"577 117 OFFCURVE",
"577 261 CURVE SMOOTH",
"577 407 OFFCURVE",
"473 533 OFFCURVE",
"303 533 CURVE SMOOTH",
"133 533 OFFCURVE",
"28 407 OFFCURVE",
"28 261 CURVE SMOOTH",
"28 117 OFFCURVE",
"132 -10 OFFCURVE",
"303 -10 CURVE SMOOTH"
);
},
{
closed = 1;
nodes = (
"166 352 OFFCURVE",
"226 419 OFFCURVE",
"303 419 CURVE SMOOTH",
"380 419 OFFCURVE",
"440 353 OFFCURVE",
"440 262 CURVE SMOOTH",
"440 170 OFFCURVE",
"380 104 OFFCURVE",
"303 104 CURVE SMOOTH",
"226 104 OFFCURVE",
"166 169 OFFCURVE",
"166 261 CURVE SMOOTH"
);
}
);
width = 606;
}
);
leftKerningGroup = c;
rightKerningGroup = o;
unicode = 006F;
},
{
glyphname = p;
layers = (
{
layerId = "23F2D7CD-FF69-4F10-BF0B-9629FD16792A";
name = Bold;
paths = (
{
closed = 1;
nodes = (
"508 -10 OFFCURVE",
"604 110 OFFCURVE",
"604 263 CURVE SMOOTH",
"604 411 OFFCURVE",
"500 533 OFFCURVE",
"359 533 CURVE SMOOTH",
"280 533 OFFCURVE",
"217 495 OFFCURVE",
"178 434 CURVE",
"178 524 LINE",
"61 524 LINE",
"61 -213 LINE",
"195 -213 LINE",
"195 92 LINE",
"230 30 OFFCURVE",
"293 -10 OFFCURVE",
"375 -10 CURVE SMOOTH"
);
},
{
closed = 1;
nodes = (
"273 104 OFFCURVE",
"219 149 OFFCURVE",
"195 208 CURVE",
"195 331 LINE",
"213 382 OFFCURVE",
"271 419 OFFCURVE",
"322 419 CURVE SMOOTH",
"405 419 OFFCURVE",
"467 351 OFFCURVE",
"467 263 CURVE SMOOTH",
"467 180 OFFCURVE",
"411 104 OFFCURVE",
"330 104 CURVE SMOOTH"
);
}
);
width = 634;
}
);
leftKerningGroup = m;
rightKerningGroup = b;
unicode = 0070;
},
{
color = 4;
glyphname = q;
lastChange = "2014-12-09 15:43:25 +0000";
layers = (
{
layerId = "23F2D7CD-FF69-4F10-BF0B-9629FD16792A";
name = Bold;
paths = (
{
closed = 1;
nodes = (
"337 -10 OFFCURVE",
"400 25 OFFCURVE",
"439 92 CURVE",
"439 -213 LINE",
"573 -213 LINE",
"573 524 LINE",
"456 524 LINE",
"456 433 LINE",
"418 493 OFFCURVE",
"355 533 OFFCURVE",
"275 533 CURVE SMOOTH",
"136 533 OFFCURVE",
"30 414 OFFCURVE",
"30 263 CURVE SMOOTH",
"30 112 OFFCURVE",
"125 -10 OFFCURVE",
"259 -10 CURVE SMOOTH"
);
},
{
closed = 1;
nodes = (
"225 104 OFFCURVE",
"167 172 OFFCURVE",
"167 259 CURVE SMOOTH",
"167 343 OFFCURVE",
"225 419 OFFCURVE",
"307 419 CURVE SMOOTH",
"363 419 OFFCURVE",
"424 373 OFFCURVE",
"439 314 CURVE",
"439 190 LINE",
"409 139 OFFCURVE",
"366 104 OFFCURVE",
"309 104 CURVE SMOOTH"
);
}
);
width = 634;
}
);
leftKerningGroup = d;
rightKerningGroup = g;
unicode = 0071;
},
{
glyphname = r;
lastChange = "2014-12-10 14:40:04 +0000";
layers = (
{
anchors = (
{
name = bottom;
position = "{129, 0}";
},
{
name = top;
position = "{194, 524}";
}
);
layerId = "23F2D7CD-FF69-4F10-BF0B-9629FD16792A";
name = Bold;
paths = (
{
closed = 1;
nodes = (
"373 530 LINE",
"367 531 OFFCURVE",
"360 531 OFFCURVE",
"346 531 CURVE SMOOTH",
"290 531 OFFCURVE",
"221 483 OFFCURVE",
"184 412 CURVE",
"184 524 LINE",
"61 524 LINE",
"61 0 LINE",
"195 0 LINE",
"195 317 LINE",
"223 376 OFFCURVE",
"292 407 OFFCURVE",
"373 408 CURVE"
);
}
);
width = 387;
}
);
leftKerningGroup = m;
rightKerningGroup = r;
unicode = 0072;
},
{
glyphname = s;
lastChange = "2014-12-10 14:40:16 +0000";
layers = (
{
anchors = (
{
name = bottom;
position = "{249, 0}";
},
{
name = top;
position = "{249, 524}";
}
);
layerId = "23F2D7CD-FF69-4F10-BF0B-9629FD16792A";
name = Bold;
paths = (
{
closed = 1;
nodes = (
"389 -10 OFFCURVE",
"471 54 OFFCURVE",
"471 156 CURVE SMOOTH",
"471 244 OFFCURVE",
"413 278 OFFCURVE",
"268 314 CURVE SMOOTH",
"191 334 OFFCURVE",
"165 344 OFFCURVE",
"165 380 CURVE SMOOTH",
"165 421 OFFCURVE",
"200 439 OFFCURVE",
"245 439 CURVE SMOOTH",
"294 439 OFFCURVE",
"344 421 OFFCURVE",
"397 381 CURVE",
"451 462 LINE",
"394 512 OFFCURVE",
"324 534 OFFCURVE",
"246 534 CURVE SMOOTH",
"129 534 OFFCURVE",
"40 468 OFFCURVE",
"40 361 CURVE SMOOTH",
"40 281 OFFCURVE",
"90 252 OFFCURVE",
"227 215 CURVE SMOOTH",
"309 193 OFFCURVE",
"342 181 OFFCURVE",
"342 144 CURVE SMOOTH",
"342 107 OFFCURVE",
"309 86 OFFCURVE",
"256 86 CURVE SMOOTH",
"196 86 OFFCURVE",
"135 110 OFFCURVE",
"72 155 CURVE",
"22 71 LINE",
"81 19 OFFCURVE",
"172 -10 OFFCURVE",
"259 -10 CURVE SMOOTH"
);
}
);
width = 497;
}
);
leftKerningGroup = s;
rightKerningGroup = s;
unicode = 0073;
},
{
glyphname = t;
lastChange = "2014-12-10 14:40:56 +0000";
layers = (
{
anchors = (
{
name = bottom;
position = "{192, 0}";
},
{
name = center;
position = "{192, 262}";
},
{
name = topright;
position = "{310, 524}";
}
);
layerId = "23F2D7CD-FF69-4F10-BF0B-9629FD16792A";
name = Bold;
paths = (
{
closed = 1;
nodes = (
"348 133 LINE",
"332 126 OFFCURVE",
"303 114 OFFCURVE",
"275 114 CURVE SMOOTH",
"247 114 OFFCURVE",
"225 128 OFFCURVE",
"225 165 CURVE SMOOTH",
"225 421 LINE",
"335 421 LINE",
"335 524 LINE",
"225 524 LINE",
"225 694 LINE",
"91 694 LINE",
"91 524 LINE",
"22 524 LINE",
"22 421 LINE",
"91 421 LINE",
"91 120 LINE SMOOTH",
"91 27 OFFCURVE",
"153 -9 OFFCURVE",
"227 -9 CURVE SMOOTH",
"284 -9 OFFCURVE",
"339 11 OFFCURVE",
"375 27 CURVE"
);
}
);
width = 384;
}
);
leftKerningGroup = t;
rightKerningGroup = t;
unicode = 0074;
},
{
color = 4;
glyphname = u;
lastChange = "2014-12-10 14:26:20 +0000";
layers = (
{
anchors = (
{
name = ogonek;
position = "{546, 10}";
},
{
name = top;
position = "{304, 524}";
}
);
layerId = "23F2D7CD-FF69-4F10-BF0B-9629FD16792A";
name = Bold;
paths = (
{
closed = 1;
nodes = (
"546 0 LINE",
"546 524 LINE",
"412 524 LINE",
"412 199 LINE",
"383 139 OFFCURVE",
"332 104 OFFCURVE",
"281 104 CURVE SMOOTH",
"211 104 OFFCURVE",
"190 155 OFFCURVE",
"190 225 CURVE SMOOTH",
"190 524 LINE",
"56 524 LINE",
"56 196 LINE SMOOTH",
"56 71 OFFCURVE",
"103 -10 OFFCURVE",
"229 -10 CURVE SMOOTH",
"305 -10 OFFCURVE",
"379 23 OFFCURVE",
"417 90 CURVE",
"417 0 LINE"
);
}
);
width = 607;
}
);
leftKerningGroup = u;
rightKerningGroup = g;
unicode = 0075;
},
{
glyphname = v;
layers = (
{
layerId = "23F2D7CD-FF69-4F10-BF0B-9629FD16792A";
name = Bold;
paths = (
{
closed = 1;
nodes = (
"347 0 LINE",
"540 524 LINE",
"414 524 LINE",
"280 109 LINE",
"147 524 LINE",
"9 524 LINE",
"202 0 LINE"
);
}
);
width = 549;
}
);
leftKerningGroup = v;
rightKerningGroup = v;
unicode = 0076;
},
{
color = 4;
glyphname = w;
lastChange = "2014-12-10 14:41:30 +0000";
layers = (
{
anchors = (
{
name = top;
position = "{436, 524}";
}
);
layerId = "23F2D7CD-FF69-4F10-BF0B-9629FD16792A";
name = Bold;
paths = (
{
closed = 1;
nodes = (
"681 0 LINE",
"860 524 LINE",
"723 524 LINE",
"603 160 LINE",
"499 524 LINE",
"373 524 LINE",
"269 160 LINE",
"149 524 LINE",
"10 524 LINE",
"191 0 LINE",
"335 0 LINE",
"435 316 LINE",
"536 0 LINE"
);
}
);
width = 871;
}
);
leftKerningGroup = w.alt;
rightKerningGroup = w.alt;
unicode = 0077;
},
{
glyphname = x;
layers = (
{
layerId = "23F2D7CD-FF69-4F10-BF0B-9629FD16792A";
name = Bold;
paths = (
{
closed = 1;
nodes = (
"7 524 LINE",
"193 261 LINE",
"4 0 LINE",
"142 0 LINE",
"257 163 LINE",
"265 180 LINE",
"274 163 LINE",
"390 0 LINE",
"528 0 LINE",
"338 261 LINE",
"525 524 LINE",
"387 524 LINE",
"275 360 LINE",
"265 342 LINE",
"257 360 LINE",
"144 524 LINE"
);
}
);
width = 531;
}
);
leftKerningGroup = x;
rightKerningGroup = x;
unicode = 0078;
},
{
glyphname = y;
lastChange = "2014-12-10 14:26:34 +0000";
layers = (
{
anchors = (
{
name = top;
position = "{275, 524}";
}
);
layerId = "23F2D7CD-FF69-4F10-BF0B-9629FD16792A";
name = Bold;
paths = (
{
closed = 1;
nodes = (
"72 -218 LINE",
"96 -226 OFFCURVE",
"118 -229 OFFCURVE",
"139 -229 CURVE SMOOTH",
"229 -229 OFFCURVE",
"293 -177 OFFCURVE",
"318 -104 CURVE SMOOTH",
"538 524 LINE",
"412 524 LINE",
"286 116 LINE",
"144 524 LINE",
"6 524 LINE",
"213 0 LINE",
"186 -89 OFFCURVE",
"168 -112 OFFCURVE",
"132 -112 CURVE SMOOTH",
"118 -112 OFFCURVE",
"95 -108 OFFCURVE",
"72 -102 CURVE"
);
}
);
width = 550;
}
);
leftKerningGroup = y;
rightKerningGroup = y;
unicode = 0079;
},
{
color = 4;
glyphname = z;
lastChange = "2014-12-10 14:01:20 +0000";
layers = (
{
anchors = (
{
name = top;
position = "{247, 524}";
}
);
layerId = "23F2D7CD-FF69-4F10-BF0B-9629FD16792A";
name = Bold;
paths = (
{
closed = 1;
nodes = (
"26 0 LINE",
"464 0 LINE",
"464 94 LINE",
"169 94 LINE",
"459 442 LINE",
"459 524 LINE",
"38 524 LINE",
"38 430 LINE",
"318 430 LINE",
"26 82 LINE"
);
}
);
width = 493;
}
);
leftKerningGroup = z;
rightKerningGroup = z;
unicode = 007A;
},
{
glyphname = braceleft;
layers = (
{
layerId = "23F2D7CD-FF69-4F10-BF0B-9629FD16792A";
name = Bold;
paths = (
{
closed = 1;
nodes = (
"267 633 LINE",
"267 740 LINE",
"115 740 LINE SMOOTH",
"107 740 OFFCURVE",
"92 735 OFFCURVE",
"92 710 CURVE SMOOTH",
"92 473 LINE SMOOTH",
"92 445 OFFCURVE",
"70 408 OFFCURVE",
"42 408 CURVE",
"42 314 LINE",
"68 309 OFFCURVE",
"92 282 OFFCURVE",
"92 247 CURVE SMOOTH",
"92 -1 LINE SMOOTH",
"92 -25 OFFCURVE",
"106 -31 OFFCURVE",
"115 -31 CURVE SMOOTH",
"267 -31 LINE",
"267 76 LINE",
"212 76 LINE",
"212 291 LINE SMOOTH",
"212 317 OFFCURVE",
"198 342 OFFCURVE",
"178 360 CURVE",
"199 379 OFFCURVE",
"212 402 OFFCURVE",
"212 429 CURVE SMOOTH",
"212 633 LINE"
);
}
);
width = 317;
}
);
rightKerningGroup = braceleft;
unicode = 007B;
},
{
glyphname = bar;
layers = (
{
layerId = "23F2D7CD-FF69-4F10-BF0B-9629FD16792A";
name = Bold;
paths = (
{
closed = 1;
nodes = (
"193 -130 LINE",
"193 775 LINE",
"79 775 LINE",
"79 -130 LINE"
);
}
);
width = 272;
}
);
unicode = 007C;
},
{
glyphname = braceright;
layers = (
{
layerId = "23F2D7CD-FF69-4F10-BF0B-9629FD16792A";
name = Bold;
paths = (
{
closed = 1;
nodes = (
"105 633 LINE",
"105 429 LINE SMOOTH",
"105 402 OFFCURVE",
"119 379 OFFCURVE",
"140 360 CURVE",
"119 342 OFFCURVE",
"105 317 OFFCURVE",
"105 291 CURVE SMOOTH",
"105 76 LINE",
"50 76 LINE",
"50 -31 LINE",
"203 -31 LINE SMOOTH",
"211 -31 OFFCURVE",
"226 -25 OFFCURVE",
"226 -1 CURVE SMOOTH",
"226 247 LINE SMOOTH",
"226 282 OFFCURVE",
"249 309 OFFCURVE",
"276 314 CURVE",
"276 408 LINE",
"248 408 OFFCURVE",
"226 445 OFFCURVE",
"226 473 CURVE SMOOTH",
"226 710 LINE SMOOTH",
"226 735 OFFCURVE",
"210 740 OFFCURVE",
"203 740 CURVE SMOOTH",
"50 740 LINE",
"50 633 LINE"
);
}
);
width = 317;
}
);
leftKerningGroup = braceright;
unicode = 007D;
},
{
glyphname = asciitilde;
layers = (
{
layerId = "23F2D7CD-FF69-4F10-BF0B-9629FD16792A";
name = Bold;
paths = (
{
closed = 1;
nodes = (
"130 228 LINE",
"130 230 OFFCURVE",
"139 280 OFFCURVE",
"194 280 CURVE SMOOTH",
"251 280 OFFCURVE",
"298 228 OFFCURVE",
"370 228 CURVE SMOOTH",
"480 228 OFFCURVE",
"514 344 OFFCURVE",
"514 358 CURVE",
"440 358 LINE",
"440 353 OFFCURVE",
"427 306 OFFCURVE",
"371 306 CURVE SMOOTH",
"311 306 OFFCURVE",
"267 360 OFFCURVE",
"195 360 CURVE SMOOTH",
"90 360 OFFCURVE",
"56 251 OFFCURVE",
"56 228 CURVE"
);
}
);
width = 567;
}
);
unicode = 007E;
},
{
color = 4;
glyphname = exclamdown;
lastChange = "2014-12-10 10:27:08 +0000";
layers = (
{
layerId = "23F2D7CD-FF69-4F10-BF0B-9629FD16792A";
name = Bold;
paths = (
{
closed = 1;
nodes = (
"86 445 LINE",
"86 -5 LINE",
"220 -5 LINE",
"220 445 LINE"
);
},
{
closed = 1;
nodes = (
"195 561 OFFCURVE",
"234 598 OFFCURVE",
"234 641 CURVE",
"234 683 OFFCURVE",
"195 720 OFFCURVE",
"153 720 CURVE",
"111 720 OFFCURVE",
"73 683 OFFCURVE",
"73 641 CURVE",
"73 599 OFFCURVE",
"111 561 OFFCURVE",
"153 561 CURVE"
);
}
);
width = 305;
}
);
rightKerningGroup = exclamdown;
unicode = 00A1;
},
{
glyphname = cent;
layers = (
{
layerId = "23F2D7CD-FF69-4F10-BF0B-9629FD16792A";
name = Bold;
paths = (
{
closed = 1;
nodes = (
"336 -120 LINE",
"336 -10 LINE",
"405 -10 OFFCURVE",
"516 35 OFFCURVE",
"555 126 CURVE",
"424 166 LINE",
"413 135 OFFCURVE",
"372 113 OFFCURVE",
"336 107 CURVE",
"336 415 LINE",
"370 412 OFFCURVE",
"403 393 OFFCURVE",
"422 359 CURVE",
"552 399 LINE",
"509 483 OFFCURVE",
"429 529 OFFCURVE",
"336 532 CURVE",
"336 645 LINE",
"276 645 LINE",
"276 532 LINE",
"124 510 OFFCURVE",
"39 393 OFFCURVE",
"39 258 CURVE SMOOTH",
"39 131 OFFCURVE",
"138 2 OFFCURVE",
"276 -9 CURVE",
"276 -120 LINE"
);
},
{
closed = 1;
nodes = (
"177 329 OFFCURVE",
"214 397 OFFCURVE",
"276 409 CURVE",
"276 113 LINE",
"216 132 OFFCURVE",
"177 192 OFFCURVE",
"177 258 CURVE SMOOTH"
);
}
);
width = 592;
}
);
unicode = 00A2;
},
{
glyphname = sterling;
layers = (
{
layerId = "23F2D7CD-FF69-4F10-BF0B-9629FD16792A";
name = Bold;
paths = (
{
closed = 1;
nodes = (
"57 280 LINE",
"158 280 LINE",
"158 206 OFFCURVE",
"122 146 OFFCURVE",
"51 87 CURVE",
"80 -8 LINE",
"123 5 OFFCURVE",
"173 14 OFFCURVE",
"208 14 CURVE SMOOTH",
"272 14 OFFCURVE",
"332 -15 OFFCURVE",
"393 -15 CURVE SMOOTH",
"431 -15 OFFCURVE",
"475 -3 OFFCURVE",
"508 15 CURVE",
"475 115 LINE",
"445 104 OFFCURVE",
"424 99 OFFCURVE",
"400 99 CURVE SMOOTH",
"355 99 OFFCURVE",
"313 116 OFFCURVE",
"264 116 CURVE SMOOTH",
"241 116 OFFCURVE",
"217 113 OFFCURVE",
"188 104 CURVE",
"250 168 OFFCURVE",
"272 218 OFFCURVE",
"272 280 CURVE",
"434 280 LINE",
"434 381 LINE",
"250 381 LINE",
"228 435 OFFCURVE",
"196 478 OFFCURVE",
"196 524 CURVE SMOOTH",
"196 571 OFFCURVE",
"231 606 OFFCURVE",
"280 606 CURVE SMOOTH",
"329 606 OFFCURVE",
"386 574 OFFCURVE",
"419 528 CURVE",
"489 610 LINE",
"440 675 OFFCURVE",
"363 715 OFFCURVE",
"282 715 CURVE SMOOTH",
"167 715 OFFCURVE",
"76 636 OFFCURVE",
"76 537 CURVE SMOOTH",
"76 481 OFFCURVE",
"105 432 OFFCURVE",
"129 381 CURVE",
"57 381 LINE"
);
}
);
width = 545;
}
);
unicode = 00A3;
},
{
glyphname = currency;
layers = (
{
layerId = "23F2D7CD-FF69-4F10-BF0B-9629FD16792A";
name = Bold;
paths = (
{
closed = 1;
nodes = (
"100 567 LINE",
"46 512 LINE",
"114 443 LINE",
"94 413 OFFCURVE",
"84 376 OFFCURVE",
"84 337 CURVE SMOOTH",
"84 298 OFFCURVE",
"95 262 OFFCURVE",
"115 231 CURVE",
"46 162 LINE",
"95 112 LINE",
"168 181 LINE",
"197 162 OFFCURVE",
"234 151 OFFCURVE",
"277 151 CURVE SMOOTH",
"319 151 OFFCURVE",
"355 162 OFFCURVE",
"384 180 CURVE",
"456 112 LINE",
"506 162 LINE",
"437 230 LINE",
"458 261 OFFCURVE",
"469 298 OFFCURVE",
"469 337 CURVE SMOOTH",
"469 377 OFFCURVE",
"458 414 OFFCURVE",
"438 445 CURVE",
"506 512 LINE",
"451 567 LINE",
"382 496 LINE",
"353 514 OFFCURVE",
"317 525 OFFCURVE",
"277 525 CURVE SMOOTH",
"235 525 OFFCURVE",
"199 514 OFFCURVE",
"170 495 CURVE"
);
},
{
closed = 1;
nodes = (
"183 397 OFFCURVE",
"224 440 OFFCURVE",
"277 440 CURVE SMOOTH",
"330 440 OFFCURVE",
"370 398 OFFCURVE",
"370 338 CURVE SMOOTH",
"370 278 OFFCURVE",
"330 235 OFFCURVE",
"277 235 CURVE SMOOTH",
"224 235 OFFCURVE",
"183 277 OFFCURVE",
"183 337 CURVE SMOOTH"
);
}
);
width = 552;
}
);
unicode = 00A4;
},
{
glyphname = yen;
layers = (
{
layerId = "23F2D7CD-FF69-4F10-BF0B-9629FD16792A";
name = Bold;
paths = (
{
closed = 1;
nodes = (
"681 710 LINE",
"531 710 LINE",
"354 368 LINE",
"178 710 LINE",
"29 710 LINE",
"205 402 LINE",
"131 402 LINE",
"131 315 LINE",
"251 315 LINE",
"285 250 LINE",
"285 218 LINE",
"130 218 LINE",
"130 131 LINE",
"285 131 LINE",
"285 0 LINE",
"422 0 LINE",
"422 131 LINE",
"579 131 LINE",
"579 218 LINE",
"422 218 LINE",
"422 248 LINE",
"458 315 LINE",
"578 315 LINE",
"578 402 LINE",
"505 402 LINE"
);
}
);
width = 712;
}
);
unicode = 00A5;
},
{
glyphname = brokenbar;
layers = (
{
layerId = "23F2D7CD-FF69-4F10-BF0B-9629FD16792A";
name = Bold;
paths = (
{
closed = 1;
nodes = (
"81 264 LINE",
"81 -130 LINE",
"195 -130 LINE",
"195 264 LINE"
);
},
{
closed = 1;
nodes = (
"81 775 LINE",
"81 381 LINE",
"195 381 LINE",
"195 775 LINE"
);
}
);
width = 275;
}
);
unicode = 00A6;
},
{
glyphname = section;
layers = (
{
layerId = "23F2D7CD-FF69-4F10-BF0B-9629FD16792A";
name = Bold;
paths = (
{
closed = 1;
nodes = (
"466 228 OFFCURVE",
"477 259 OFFCURVE",
"477 297 CURVE SMOOTH",
"477 421 OFFCURVE",
"361 462 OFFCURVE",
"262 465 CURVE SMOOTH",
"215 466 OFFCURVE",
"178 478 OFFCURVE",
"178 527 CURVE SMOOTH",
"178 569 OFFCURVE",
"214 596 OFFCURVE",
"262 596 CURVE SMOOTH",
"307 596 OFFCURVE",
"345 577 OFFCURVE",
"363 543 CURVE",
"466 592 LINE",
"432 641 OFFCURVE",
"370 715 OFFCURVE",
"254 715 CURVE SMOOTH",
"138 715 OFFCURVE",
"43 628 OFFCURVE",
"43 525 CURVE SMOOTH",
"43 473 OFFCURVE",
"65 433 OFFCURVE",
"84 415 CURVE",
"77 402 OFFCURVE",
"65 379 OFFCURVE",
"65 341 CURVE SMOOTH",
"65 239 OFFCURVE",
"140 172 OFFCURVE",
"272 163 CURVE SMOOTH",
"309 161 OFFCURVE",
"352 155 OFFCURVE",
"352 108 CURVE SMOOTH",
"352 64 OFFCURVE",
"308 39 OFFCURVE",
"263 39 CURVE SMOOTH",
"219 39 OFFCURVE",
"179 56 OFFCURVE",
"139 98 CURVE",
"53 16 LINE",
"86 -22 OFFCURVE",
"163 -88 OFFCURVE",
"269 -88 CURVE SMOOTH",
"361 -88 OFFCURVE",
"491 -32 OFFCURVE",
"491 113 CURVE SMOOTH",
"491 163 OFFCURVE",
"477 196 OFFCURVE",
"456 215 CURVE"
);
},
{
closed = 1;
nodes = (
"195 340 OFFCURVE",
"202 357 OFFCURVE",
"211 366 CURVE",
"222 362 OFFCURVE",
"245 357 OFFCURVE",
"267 357 CURVE SMOOTH",
"302 357 OFFCURVE",
"350 342 OFFCURVE",
"350 293 CURVE SMOOTH",
"350 277 OFFCURVE",
"343 258 OFFCURVE",
"332 248 CURVE",
"290 264 OFFCURVE",
"195 245 OFFCURVE",
"195 323 CURVE SMOOTH"
);
}
);
width = 532;
}
);
unicode = 00A7;
},
{
color = 9;
glyphname = dieresis;
lastChange = "2015-01-02 12:06:29 +0000";
layers = (
{
anchors = (
{
name = _top;
position = "{230, 524}";
}
);
layerId = "23F2D7CD-FF69-4F10-BF0B-9629FD16792A";
name = Bold;
paths = (
{
closed = 1;
nodes = (
"391 585 OFFCURVE",
"427 619 OFFCURVE",
"427 659 CURVE",
"427 698 OFFCURVE",
"391 732 OFFCURVE",
"353 732 CURVE",
"314 732 OFFCURVE",
"279 698 OFFCURVE",
"279 659 CURVE",
"279 620 OFFCURVE",
"314 585 OFFCURVE",
"353 585 CURVE"
);
},
{
closed = 1;
nodes = (
"144 583 OFFCURVE",
"180 617 OFFCURVE",
"180 657 CURVE",
"180 696 OFFCURVE",
"144 730 OFFCURVE",
"106 730 CURVE",
"67 730 OFFCURVE",
"32 696 OFFCURVE",
"32 657 CURVE",
"32 618 OFFCURVE",
"67 583 OFFCURVE",
"106 583 CURVE"
);
}
);
width = 457;
}
);
unicode = 00A8;
},
{
glyphname = copyright;
layers = (
{
layerId = "23F2D7CD-FF69-4F10-BF0B-9629FD16792A";
name = Bold;
paths = (
{
closed = 1;
nodes = (
"636 -7 OFFCURVE",
"798 148 OFFCURVE",
"798 355 CURVE SMOOTH",
"798 561 OFFCURVE",
"636 715 OFFCURVE",
"417 715 CURVE SMOOTH",
"202 715 OFFCURVE",
"43 561 OFFCURVE",
"43 355 CURVE SMOOTH",
"43 148 OFFCURVE",
"202 -7 OFFCURVE",
"417 -7 CURVE SMOOTH"
);
},
{
closed = 1;
nodes = (
"233 43 OFFCURVE",
"96 179 OFFCURVE",
"96 354 CURVE SMOOTH",
"96 529 OFFCURVE",
"234 665 OFFCURVE",
"417 665 CURVE SMOOTH",
"605 665 OFFCURVE",
"744 529 OFFCURVE",
"744 354 CURVE SMOOTH",
"744 170 OFFCURVE",
"601 43 OFFCURVE",
"417 43 CURVE SMOOTH"
);
},
{
closed = 1;
nodes = (
"539 116 OFFCURVE",
"618 179 OFFCURVE",
"649 247 CURVE",
"518 286 LINE",
"500 251 OFFCURVE",
"462 230 OFFCURVE",
"424 230 CURVE SMOOTH",
"369 230 OFFCURVE",
"311 275 OFFCURVE",
"311 355 CURVE SMOOTH",
"311 422 OFFCURVE",
"353 479 OFFCURVE",
"423 479 CURVE SMOOTH",
"456 479 OFFCURVE",
"495 466 OFFCURVE",
"515 425 CURVE",
"645 465 LINE",
"609 543 OFFCURVE",
"530 593 OFFCURVE",
"424 593 CURVE SMOOTH",
"258 593 OFFCURVE",
"174 476 OFFCURVE",
"174 355 CURVE SMOOTH",
"174 220 OFFCURVE",
"276 116 OFFCURVE",
"426 116 CURVE SMOOTH"
);
}
);
width = 841;
}
);
leftKerningGroup = copyright;
unicode = 00A9;
},
{
color = 4;
glyphname = ordfeminine;
lastChange = "2014-12-09 15:47:15 +0000";
layers = (
{
layerId = "23F2D7CD-FF69-4F10-BF0B-9629FD16792A";
name = Bold;
paths = (
{
closed = 1;
nodes = (
"210 339 OFFCURVE",
"256 362 OFFCURVE",
"288 404 CURVE",
"295 346 LINE",
"371 346 LINE",
"371 563 LINE SMOOTH",
"371 661 OFFCURVE",
"310 713 OFFCURVE",
"207 713 CURVE SMOOTH",
"153 713 OFFCURVE",
"105 698 OFFCURVE",
"58 666 CURVE",
"88 605 LINE",
"126 631 OFFCURVE",
"160 645 OFFCURVE",
"198 645 CURVE SMOOTH",
"248 645 OFFCURVE",
"273 619 OFFCURVE",
"273 575 CURVE SMOOTH",
"273 556 LINE",
"251 566 OFFCURVE",
"221 572 OFFCURVE",
"190 572 CURVE SMOOTH",
"102 572 OFFCURVE",
"40 523 OFFCURVE",
"40 453 CURVE SMOOTH",
"40 388 OFFCURVE",
"92 339 OFFCURVE",
"160 339 CURVE SMOOTH"
);
},
{
closed = 1;
nodes = (
"157 411 OFFCURVE",
"132 433 OFFCURVE",
"132 462 CURVE SMOOTH",
"132 494 OFFCURVE",
"163 515 OFFCURVE",
"207 515 CURVE SMOOTH",
"228 515 OFFCURVE",
"253 511 OFFCURVE",
"273 503 CURVE",
"273 464 LINE SMOOTH",
"273 456 OFFCURVE",
"268 446 OFFCURVE",
"259 438 CURVE",
"244 422 OFFCURVE",
"216 411 OFFCURVE",
"189 411 CURVE SMOOTH"
);
}
);
width = 444;
}
);
leftKerningGroup = ordfeminine;
unicode = 00AA;
},
{
glyphname = guillemotleft;
layers = (
{
layerId = "23F2D7CD-FF69-4F10-BF0B-9629FD16792A";
name = Bold;
paths = (
{
closed = 1;
nodes = (
"35 223 LINE",
"299 46 LINE",
"299 156 LINE",
"142 259 LINE",
"299 368 LINE",
"299 477 LINE",
"35 288 LINE"
);
},
{
closed = 1;
nodes = (
"327 223 LINE",
"590 46 LINE",
"590 156 LINE",
"433 259 LINE",
"590 368 LINE",
"590 477 LINE",
"327 288 LINE"
);
}
);
width = 649;
}
);
leftKerningGroup = guillemotleft;
rightKerningGroup = guillemotleft;
unicode = 00AB;
},
{
glyphname = logicalnot;
layers = (
{
layerId = "23F2D7CD-FF69-4F10-BF0B-9629FD16792A";
name = Bold;
paths = (
{
closed = 1;
nodes = (
"59 400 LINE",
"59 280 LINE",
"433 280 LINE",
"433 106 LINE",
"547 106 LINE",
"547 400 LINE"
);
}
);
width = 612;
}
);
unicode = 00AC;
},
{
glyphname = uni00AD;
layers = (
{
layerId = "23F2D7CD-FF69-4F10-BF0B-9629FD16792A";
name = Bold;
paths = (
{
closed = 1;
nodes = (
"546 214 LINE",
"546 335 LINE",
"58 335 LINE",
"58 214 LINE"
);
}
);
width = 603;
}
);
leftKerningGroup = hyphen;
rightKerningGroup = hyphen;
unicode = 00AD;
},
{
glyphname = registered;
layers = (
{
layerId = "23F2D7CD-FF69-4F10-BF0B-9629FD16792A";
name = Bold;
paths = (
{
closed = 1;
nodes = (
"636 -7 OFFCURVE",
"798 148 OFFCURVE",
"798 355 CURVE SMOOTH",
"798 561 OFFCURVE",
"636 715 OFFCURVE",
"419 715 CURVE SMOOTH",
"202 715 OFFCURVE",
"43 561 OFFCURVE",
"43 355 CURVE SMOOTH",
"43 148 OFFCURVE",
"202 -7 OFFCURVE",
"419 -7 CURVE SMOOTH"
);
},
{
closed = 1;
nodes = (
"233 42 OFFCURVE",
"99 179 OFFCURVE",
"99 355 CURVE SMOOTH",
"99 529 OFFCURVE",
"233 665 OFFCURVE",
"419 665 CURVE SMOOTH",
"605 665 OFFCURVE",
"742 529 OFFCURVE",
"742 353 CURVE SMOOTH",
"742 171 OFFCURVE",
"601 42 OFFCURVE",
"419 42 CURVE SMOOTH"
);
},
{
closed = 1;
nodes = (
"257 136 LINE",
"352 136 LINE",
"352 284 LINE",
"416 284 LINE",
"508 136 LINE",
"615 136 LINE",
"512 302 LINE",
"560 321 OFFCURVE",
"592 374 OFFCURVE",
"592 429 CURVE SMOOTH",
"592 500 OFFCURVE",
"533 576 OFFCURVE",
"452 576 CURVE SMOOTH",
"257 576 LINE"
);
},
{
closed = 1;
nodes = (
"352 366 LINE",
"352 492 LINE",
"442 492 LINE SMOOTH",
"472 492 OFFCURVE",
"498 471 OFFCURVE",
"498 429 CURVE SMOOTH",
"498 389 OFFCURVE",
"477 366 OFFCURVE",
"444 366 CURVE SMOOTH"
);
}
);
width = 841;
}
);
leftKerningGroup = registered;
unicode = 00AE;
},
{
glyphname = macron;
lastChange = "2014-12-10 12:32:54 +0000";
layers = (
{
anchors = (
{
name = _top;
position = "{210, 524}";
}
);
layerId = "23F2D7CD-FF69-4F10-BF0B-9629FD16792A";
name = Bold;
paths = (
{
closed = 1;
nodes = (
"360 633 LINE",
"360 716 LINE",
"60 716 LINE",
"60 633 LINE"
);
}
);
width = 419;
}
);
unicode = 00AF;
},
{
glyphname = degree;
layers = (
{
layerId = "23F2D7CD-FF69-4F10-BF0B-9629FD16792A";
name = Bold;
paths = (
{
closed = 1;
nodes = (
"40 563 OFFCURVE",
"83 519 OFFCURVE",
"142 519 CURVE SMOOTH",
"202 519 OFFCURVE",
"245 561 OFFCURVE",
"245 625 CURVE SMOOTH",
"245 681 OFFCURVE",
"202 724 OFFCURVE",
"142 724 CURVE SMOOTH",
"83 724 OFFCURVE",
"40 681 OFFCURVE",
"40 625 CURVE SMOOTH"
);
},
{
closed = 1;
nodes = (
"123 655 OFFCURVE",
"132 659 OFFCURVE",
"142 659 CURVE SMOOTH",
"152 659 OFFCURVE",
"163 655 OFFCURVE",
"169 648 CURVE SMOOTH",
"175 641 OFFCURVE",
"179 632 OFFCURVE",
"179 621 CURVE SMOOTH",
"179 612 OFFCURVE",
"175 602 OFFCURVE",
"169 596 CURVE",
"163 589 OFFCURVE",
"152 584 OFFCURVE",
"142 584 CURVE SMOOTH",
"132 584 OFFCURVE",
"123 589 OFFCURVE",
"115 596 CURVE",
"109 602 OFFCURVE",
"105 612 OFFCURVE",
"105 621 CURVE SMOOTH",
"105 632 OFFCURVE",
"109 641 OFFCURVE",
"115 648 CURVE"
);
}
);
width = 285;
}
);
unicode = 00B0;
},
{
glyphname = plusminus;
layers = (
{
layerId = "23F2D7CD-FF69-4F10-BF0B-9629FD16792A";
name = Bold;
paths = (
{
closed = 1;
nodes = (
"413 28 LINE",
"413 136 LINE",
"59 136 LINE",
"59 28 LINE"
);
},
{
closed = 1;
nodes = (
"296 430 LINE",
"296 557 LINE",
"176 557 LINE",
"176 430 LINE",
"59 430 LINE",
"59 323 LINE",
"176 323 LINE",
"176 196 LINE",
"296 196 LINE",
"296 323 LINE",
"413 323 LINE",
"413 430 LINE"
);
}
);
width = 472;
}
);
unicode = 00B1;
},
{
glyphname = twosuperior;
layers = (
{
layerId = "23F2D7CD-FF69-4F10-BF0B-9629FD16792A";
name = Bold;
paths = (
{
closed = 1;
nodes = (
"371 389 LINE",
"371 467 LINE",
"140 467 LINE",
"140 498 OFFCURVE",
"183 526 OFFCURVE",
"251 547 CURVE SMOOTH",
"303 563 OFFCURVE",
"383 596 OFFCURVE",
"383 683 CURVE SMOOTH",
"383 765 OFFCURVE",
"326 816 OFFCURVE",
"219 816 CURVE SMOOTH",
"119 816 OFFCURVE",
"54 774 OFFCURVE",
"33 747 CURVE",
"84 689 LINE",
"107 712 OFFCURVE",
"149 738 OFFCURVE",
"207 738 CURVE SMOOTH",
"262 738 OFFCURVE",
"293 719 OFFCURVE",
"293 684 CURVE SMOOTH",
"293 631 OFFCURVE",
"223 612 OFFCURVE",
"161 587 CURVE SMOOTH",
"64 548 OFFCURVE",
"30 498 OFFCURVE",
"30 389 CURVE"
);
}
);
width = 416;
}
);
unicode = 00B2;
},
{
glyphname = threesuperior;
layers = (
{
layerId = "23F2D7CD-FF69-4F10-BF0B-9629FD16792A";
name = Bold;
paths = (
{
closed = 1;
nodes = (
"284 383 OFFCURVE",
"373 420 OFFCURVE",
"373 502 CURVE SMOOTH",
"373 556 OFFCURVE",
"333 602 OFFCURVE",
"268 611 CURVE",
"327 622 OFFCURVE",
"363 653 OFFCURVE",
"363 700 CURVE SMOOTH",
"363 766 OFFCURVE",
"290 816 OFFCURVE",
"192 816 CURVE SMOOTH",
"126 816 OFFCURVE",
"59 794 OFFCURVE",
"29 756 CURVE",
"80 692 LINE",
"104 722 OFFCURVE",
"140 742 OFFCURVE",
"193 742 CURVE SMOOTH",
"232 742 OFFCURVE",
"278 727 OFFCURVE",
"278 695 CURVE SMOOTH",
"278 659 OFFCURVE",
"224 643 OFFCURVE",
"143 643 CURVE SMOOTH",
"120 643 LINE",
"120 570 LINE",
"144 570 LINE SMOOTH",
"236 570 OFFCURVE",
"292 553 OFFCURVE",
"292 515 CURVE SMOOTH",
"292 481 OFFCURVE",
"246 463 OFFCURVE",
"190 463 CURVE SMOOTH",
"122 463 OFFCURVE",
"81 498 OFFCURVE",
"71 521 CURVE",
"28 462 LINE",
"47 411 OFFCURVE",
"109 383 OFFCURVE",
"192 383 CURVE SMOOTH"
);
}
);
width = 407;
}
);
unicode = 00B3;
},
{
color = 9;
glyphname = acute;
lastChange = "2015-01-02 12:02:16 +0000";
layers = (
{
anchors = (
{
name = _top;
position = "{61, 524}";
}
);
layerId = "23F2D7CD-FF69-4F10-BF0B-9629FD16792A";
name = Bold;
paths = (
{
closed = 1;
nodes = (
"112 751 LINE",
"24 596 LINE",
"109 596 LINE",
"259 751 LINE"
);
}
);
width = 255;
}
);
unicode = 00B4;
},
{
color = 4;
glyphname = mu;
lastChange = "2014-12-10 14:01:20 +0000";
layers = (
{
layerId = "23F2D7CD-FF69-4F10-BF0B-9629FD16792A";
name = Bold;
paths = (
{
closed = 1;
nodes = (
"77 -212 LINE",
"211 -212 LINE",
"202 49 LINE",
"211 25 OFFCURVE",
"240 -10 OFFCURVE",
"292 -10 CURVE SMOOTH",
"362 -10 OFFCURVE",
"431 50 OFFCURVE",
"454 98 CURVE",
"459 0 LINE",
"568 0 LINE",
"568 524 LINE",
"434 524 LINE",
"434 199 LINE",
"403 135 OFFCURVE",
"350 104 OFFCURVE",
"301 104 CURVE SMOOTH",
"240 104 OFFCURVE",
"211 145 OFFCURVE",
"211 225 CURVE SMOOTH",
"211 524 LINE",
"77 524 LINE"
);
}
);
width = 664;
}
);
unicode = 00B5;
},
{
glyphname = paragraph;
layers = (
{
layerId = "23F2D7CD-FF69-4F10-BF0B-9629FD16792A";
name = Bold;
paths = (
{
closed = 1;
nodes = (
"35 307 OFFCURVE",
"125 209 OFFCURVE",
"263 208 CURVE",
"263 -80 LINE",
"377 -80 LINE",
"377 208 LINE",
"428 208 LINE",
"428 -80 LINE",
"541 -80 LINE",
"541 610 LINE",
"611 610 LINE",
"611 710 LINE",
"317 710 LINE SMOOTH",
"138 710 OFFCURVE",
"35 617 OFFCURVE",
"35 456 CURVE SMOOTH"
);
},
{
closed = 1;
nodes = (
"147 547 OFFCURVE",
"189 606 OFFCURVE",
"263 610 CURVE",
"263 308 LINE",
"199 314 OFFCURVE",
"147 367 OFFCURVE",
"147 459 CURVE SMOOTH"
);
},
{
closed = 1;
nodes = (
"428 308 LINE",
"377 308 LINE",
"377 610 LINE",
"428 610 LINE"
);
}
);
width = 657;
}
);
unicode = 00B6;
},
{
color = 4;
glyphname = periodcentered;
lastChange = "2014-12-10 12:40:36 +0000";
layers = (
{
anchors = (
{
name = topright;
position = "{-49, 418}";
}
);
layerId = "23F2D7CD-FF69-4F10-BF0B-9629FD16792A";
name = Bold;
paths = (
{
closed = 1;
nodes = (
"157 233 OFFCURVE",
"198 273 OFFCURVE",
"198 318 CURVE",
"198 363 OFFCURVE",
"157 403 OFFCURVE",
"113 403 CURVE",
"68 403 OFFCURVE",
"28 363 OFFCURVE",
"28 318 CURVE",
"28 274 OFFCURVE",
"68 233 OFFCURVE",
"113 233 CURVE"
);
}
);
width = 225;
}
);
leftKerningGroup = periodcentered;
rightKerningGroup = periodcentered;
unicode = 00B7;
},
{
glyphname = cedilla;
lastChange = "2014-12-10 12:29:48 +0000";
layers = (
{
anchors = (
{
name = _bottom;
position = "{139, 0}";
}
);
layerId = "23F2D7CD-FF69-4F10-BF0B-9629FD16792A";
name = Bold;
paths = (
{
closed = 1;
nodes = (
"21 -176 LINE",
"48 -187 OFFCURVE",
"84 -196 OFFCURVE",
"128 -196 CURVE SMOOTH",
"214 -196 OFFCURVE",
"256 -159 OFFCURVE",
"256 -108 CURVE SMOOTH",
"256 -59 OFFCURVE",
"218 -38 OFFCURVE",
"171 -38 CURVE SMOOTH",
"161 -38 OFFCURVE",
"148 -39 OFFCURVE",
"139 -42 CURVE",
"174 12 LINE",
"122 28 LINE",
"61 -92 LINE",
"77 -88 OFFCURVE",
"113 -80 OFFCURVE",
"141 -80 CURVE SMOOTH",
"172 -80 OFFCURVE",
"193 -89 OFFCURVE",
"193 -113 CURVE SMOOTH",
"193 -137 OFFCURVE",
"171 -146 OFFCURVE",
"137 -146 CURVE SMOOTH",
"101 -146 OFFCURVE",
"64 -136 OFFCURVE",
"48 -127 CURVE"
);
}
);
width = 326;
}
);
unicode = 00B8;
},
{
color = 4;
glyphname = onesuperior;
lastChange = "2014-12-09 15:33:15 +0000";
layers = (
{
layerId = "23F2D7CD-FF69-4F10-BF0B-9629FD16792A";
name = Bold;
paths = (
{
closed = 1;
nodes = (
"207 390 LINE",
"207 816 LINE",
"126 816 LINE",
"18 750 LINE",
"51 686 LINE",
"126 730 LINE",
"126 390 LINE"
);
}
);
width = 298;
}
);
unicode = 00B9;
},
{
glyphname = ordmasculine;
layers = (
{
layerId = "23F2D7CD-FF69-4F10-BF0B-9629FD16792A";
name = Bold;
paths = (
{
closed = 1;
nodes = (
"339 339 OFFCURVE",
"408 427 OFFCURVE",
"408 526 CURVE SMOOTH",
"408 627 OFFCURVE",
"338 713 OFFCURVE",
"222 713 CURVE SMOOTH",
"106 713 OFFCURVE",
"36 627 OFFCURVE",
"36 526 CURVE SMOOTH",
"36 427 OFFCURVE",
"105 339 OFFCURVE",
"222 339 CURVE SMOOTH"
);
},
{
closed = 1;
nodes = (
"135 586 OFFCURVE",
"173 628 OFFCURVE",
"222 628 CURVE SMOOTH",
"271 628 OFFCURVE",
"308 586 OFFCURVE",
"308 526 CURVE SMOOTH",
"308 466 OFFCURVE",
"271 423 OFFCURVE",
"222 423 CURVE SMOOTH",
"173 423 OFFCURVE",
"135 466 OFFCURVE",
"135 525 CURVE SMOOTH"
);
}
);
width = 443;
}
);
leftKerningGroup = ordmasculine;
unicode = 00BA;
},
{
glyphname = guillemotright;
layers = (
{
layerId = "23F2D7CD-FF69-4F10-BF0B-9629FD16792A";
name = Bold;
paths = (
{
closed = 1;
nodes = (
"613 288 LINE",
"349 477 LINE",
"349 368 LINE",
"507 259 LINE",
"349 156 LINE",
"349 46 LINE",
"613 223 LINE"
);
},
{
closed = 1;
nodes = (
"322 288 LINE",
"58 477 LINE",
"58 368 LINE",
"216 259 LINE",
"58 156 LINE",
"58 46 LINE",
"322 223 LINE"
);
}
);
width = 649;
}
);
leftKerningGroup = guillemotright;
rightKerningGroup = guillemotright;
unicode = 00BB;
},
{
glyphname = onequarter;
lastChange = "2014-12-09 15:33:33 +0000";
layers = (
{
components = (
{
name = onesuperior;
transform = "{1, 0, 0, 1, 11, -84}";
}
);
layerId = "23F2D7CD-FF69-4F10-BF0B-9629FD16792A";
name = Bold;
paths = (
{
closed = 1;
nodes = (
"835 0 LINE",
"835 93 LINE",
"896 93 LINE",
"896 171 LINE",
"835 171 LINE",
"835 422 LINE",
"781 422 LINE",
"535 170 LINE",
"535 93 LINE",
"756 93 LINE",
"756 0 LINE"
);
},
{
closed = 1;
nodes = (
"759 324 LINE",
"759 171 LINE",
"612 171 LINE"
);
},
{
closed = 1;
nodes = (
"238 -7 LINE",
"507 341 LINE",
"780 664 LINE",
"719 718 LINE",
"459 376 LINE",
"177 47 LINE"
);
}
);
width = 931;
}
);
unicode = 00BC;
},
{
glyphname = four.denominator;
layers = (
{
layerId = "23F2D7CD-FF69-4F10-BF0B-9629FD16792A";
name = Bold;
paths = (
{
closed = 1;
nodes = (
"321 0 LINE",
"321 93 LINE",
"382 93 LINE",
"382 171 LINE",
"321 171 LINE",
"321 422 LINE",
"267 422 LINE",
"21 170 LINE",
"21 93 LINE",
"242 93 LINE",
"242 0 LINE"
);
},
{
closed = 1;
nodes = (
"245 324 LINE",
"245 171 LINE",
"98 171 LINE"
);
}
);
width = 410;
}
);
},
{
color = 4;
glyphname = one.numerator;
lastChange = "2014-12-09 15:33:45 +0000";
layers = (
{
layerId = "23F2D7CD-FF69-4F10-BF0B-9629FD16792A";
name = Bold;
paths = (
{
closed = 1;
nodes = (
"207 305 LINE",
"207 731 LINE",
"126 731 LINE",
"18 665 LINE",
"51 601 LINE",
"126 645 LINE",
"126 305 LINE"
);
}
);
width = 298;
}
);
},
{
color = 4;
glyphname = onehalf;
lastChange = "2014-12-09 15:34:05 +0000";
layers = (
{
components = (
{
name = onesuperior;
transform = "{1, 0, 0, 1, 10, -85}";
}
);
layerId = "23F2D7CD-FF69-4F10-BF0B-9629FD16792A";
name = Bold;
paths = (
{
closed = 1;
nodes = (
"916 0 LINE",
"916 78 LINE",
"681 78 LINE",
"686 109 OFFCURVE",
"719 139 OFFCURVE",
"786 160 CURVE SMOOTH",
"838 176 OFFCURVE",
"915 207 OFFCURVE",
"915 293 CURVE SMOOTH",
"915 376 OFFCURVE",
"860 426 OFFCURVE",
"755 426 CURVE SMOOTH",
"657 426 OFFCURVE",
"593 384 OFFCURVE",
"572 357 CURVE",
"622 299 LINE",
"645 322 OFFCURVE",
"686 349 OFFCURVE",
"743 349 CURVE SMOOTH",
"797 349 OFFCURVE",
"827 329 OFFCURVE",
"827 294 CURVE SMOOTH",
"827 242 OFFCURVE",
"759 223 OFFCURVE",
"699 198 CURVE SMOOTH",
"603 158 OFFCURVE",
"569 109 OFFCURVE",
"569 0 CURVE"
);
},
{
closed = 1;
nodes = (
"198 -7 LINE",
"467 341 LINE",
"740 664 LINE",
"679 718 LINE",
"419 376 LINE",
"137 47 LINE"
);
}
);
width = 956;
}
);
unicode = 00BD;
},
{
glyphname = two.denominator;
layers = (
{
layerId = "23F2D7CD-FF69-4F10-BF0B-9629FD16792A";
name = Bold;
paths = (
{
closed = 1;
nodes = (
"384 0 LINE",
"384 78 LINE",
"144 78 LINE",
"149 109 OFFCURVE",
"183 139 OFFCURVE",
"251 160 CURVE SMOOTH",
"304 176 OFFCURVE",
"383 207 OFFCURVE",
"383 293 CURVE SMOOTH",
"383 376 OFFCURVE",
"326 426 OFFCURVE",
"219 426 CURVE SMOOTH",
"119 426 OFFCURVE",
"54 384 OFFCURVE",
"33 357 CURVE",
"84 299 LINE",
"107 322 OFFCURVE",
"149 349 OFFCURVE",
"207 349 CURVE SMOOTH",
"262 349 OFFCURVE",
"293 329 OFFCURVE",
"293 294 CURVE SMOOTH",
"293 242 OFFCURVE",
"223 223 OFFCURVE",
"162 198 CURVE SMOOTH",
"64 158 OFFCURVE",
"30 109 OFFCURVE",
"30 0 CURVE"
);
}
);
width = 422;
}
);
},
{
glyphname = threequarters;
layers = (
{
layerId = "23F2D7CD-FF69-4F10-BF0B-9629FD16792A";
name = Bold;
paths = (
{
closed = 1;
nodes = (
"295 298 OFFCURVE",
"384 336 OFFCURVE",
"384 418 CURVE SMOOTH",
"384 472 OFFCURVE",
"344 517 OFFCURVE",
"279 526 CURVE",
"338 537 OFFCURVE",
"374 568 OFFCURVE",
"374 615 CURVE SMOOTH",
"374 681 OFFCURVE",
"301 731 OFFCURVE",
"203 731 CURVE SMOOTH",
"137 731 OFFCURVE",
"70 710 OFFCURVE",
"40 672 CURVE",
"91 608 LINE",
"115 637 OFFCURVE",
"151 657 OFFCURVE",
"204 657 CURVE SMOOTH",
"243 657 OFFCURVE",
"289 642 OFFCURVE",
"289 611 CURVE SMOOTH",
"289 574 OFFCURVE",
"235 559 OFFCURVE",
"154 559 CURVE SMOOTH",
"131 559 LINE",
"131 486 LINE",
"155 486 LINE SMOOTH",
"247 486 OFFCURVE",
"303 468 OFFCURVE",
"303 430 CURVE SMOOTH",
"303 396 OFFCURVE",
"257 379 OFFCURVE",
"201 379 CURVE SMOOTH",
"137 379 OFFCURVE",
"96 410 OFFCURVE",
"82 436 CURVE",
"39 377 LINE",
"58 326 OFFCURVE",
"120 298 OFFCURVE",
"203 298 CURVE SMOOTH"
);
},
{
closed = 1;
nodes = (
"842 0 LINE",
"842 93 LINE",
"903 93 LINE",
"903 171 LINE",
"842 171 LINE",
"842 422 LINE",
"788 422 LINE",
"542 170 LINE",
"542 93 LINE",
"763 93 LINE",
"763 0 LINE"
);
},
{
closed = 1;
nodes = (
"766 324 LINE",
"766 171 LINE",
"619 171 LINE"
);
},
{
closed = 1;
nodes = (
"268 -7 LINE",
"537 341 LINE",
"810 664 LINE",
"749 718 LINE",
"489 376 LINE",
"207 47 LINE"
);
}
);
width = 939;
}
);
unicode = 00BE;
},
{
glyphname = three.numerator;
layers = (
{
layerId = "23F2D7CD-FF69-4F10-BF0B-9629FD16792A";
name = Bold;
paths = (
{
closed = 1;
nodes = (
"284 298 OFFCURVE",
"373 336 OFFCURVE",
"373 418 CURVE SMOOTH",
"373 472 OFFCURVE",
"333 517 OFFCURVE",
"268 526 CURVE",
"327 537 OFFCURVE",
"363 568 OFFCURVE",
"363 615 CURVE SMOOTH",
"363 681 OFFCURVE",
"290 731 OFFCURVE",
"192 731 CURVE SMOOTH",
"126 731 OFFCURVE",
"59 710 OFFCURVE",
"29 672 CURVE",
"80 608 LINE",
"104 637 OFFCURVE",
"140 657 OFFCURVE",
"193 657 CURVE SMOOTH",
"232 657 OFFCURVE",
"278 642 OFFCURVE",
"278 611 CURVE SMOOTH",
"278 574 OFFCURVE",
"224 559 OFFCURVE",
"143 559 CURVE SMOOTH",
"120 559 LINE",
"120 486 LINE",
"144 486 LINE SMOOTH",
"236 486 OFFCURVE",
"292 468 OFFCURVE",
"292 430 CURVE SMOOTH",
"292 396 OFFCURVE",
"246 379 OFFCURVE",
"190 379 CURVE SMOOTH",
"126 379 OFFCURVE",
"85 410 OFFCURVE",
"71 436 CURVE",
"28 377 LINE",
"47 326 OFFCURVE",
"109 298 OFFCURVE",
"192 298 CURVE SMOOTH"
);
}
);
width = 407;
}
);
},
{
color = 4;
glyphname = questiondown;
lastChange = "2014-12-10 12:27:32 +0000";
layers = (
{
layerId = "23F2D7CD-FF69-4F10-BF0B-9629FD16792A";
name = Bold;
paths = (
{
closed = 1;
nodes = (
"250 273 LINE",
"250 205 OFFCURVE",
"189 185 OFFCURVE",
"136 152 CURVE SMOOTH",
"73 113 OFFCURVE",
"31 69 OFFCURVE",
"31 -16 CURVE SMOOTH",
"31 -155 OFFCURVE",
"138 -213 OFFCURVE",
"239 -213 CURVE SMOOTH",
"330 -213 OFFCURVE",
"413 -166 OFFCURVE",
"448 -84 CURVE",
"361 -24 LINE",
"339 -60 OFFCURVE",
"301 -104 OFFCURVE",
"243 -104 CURVE SMOOTH",
"194 -104 OFFCURVE",
"148 -73 OFFCURVE",
"148 -18 CURVE SMOOTH",
"148 57 OFFCURVE",
"238 93 OFFCURVE",
"278 117 CURVE SMOOTH",
"345 156 OFFCURVE",
"360 208 OFFCURVE",
"360 273 CURVE"
);
},
{
closed = 1;
nodes = (
"340 363 OFFCURVE",
"376 397 OFFCURVE",
"376 438 CURVE",
"376 477 OFFCURVE",
"340 511 OFFCURVE",
"301 511 CURVE",
"262 511 OFFCURVE",
"226 477 OFFCURVE",
"226 438 CURVE",
"226 398 OFFCURVE",
"262 363 OFFCURVE",
"301 363 CURVE"
);
}
);
width = 479;
}
);
rightKerningGroup = questiondown;
unicode = 00BF;
},
{
color = 9;
glyphname = circumflex;
lastChange = "2015-01-02 12:04:34 +0000";
layers = (
{
anchors = (
{
name = _top;
position = "{185, 524}";
}
);
layerId = "23F2D7CD-FF69-4F10-BF0B-9629FD16792A";
name = Bold;
paths = (
{
closed = 1;
nodes = (
"238 751 LINE",
"134 751 LINE",
"-16 596 LINE",
"131 596 LINE",
"186 693 LINE",
"241 596 LINE",
"388 596 LINE"
);
}
);
width = 369;
}
);
unicode = 02C6;
},
{
glyphname = tilde;
lastChange = "2014-12-10 12:29:13 +0000";
layers = (
{
anchors = (
{
name = _top;
position = "{219, 524}";
}
);
layerId = "23F2D7CD-FF69-4F10-BF0B-9629FD16792A";
name = Bold;
paths = (
{
closed = 1;
nodes = (
"377 602 OFFCURVE",
"407 711 OFFCURVE",
"407 730 CURVE",
"333 730 LINE",
"333 726 OFFCURVE",
"328 680 OFFCURVE",
"280 680 CURVE SMOOTH",
"232 680 OFFCURVE",
"209 727 OFFCURVE",
"148 727 CURVE SMOOTH",
"60 727 OFFCURVE",
"31 624 OFFCURVE",
"31 599 CURVE",
"105 599 LINE",
"105 602 OFFCURVE",
"108 647 OFFCURVE",
"153 647 CURVE SMOOTH",
"197 647 OFFCURVE",
"224 602 OFFCURVE",
"284 602 CURVE SMOOTH"
);
}
);
width = 437;
}
);
unicode = 02DC;
},
{
color = 9;
glyphname = ring;
lastChange = "2015-01-02 12:03:13 +0000";
layers = (
{
anchors = (
{
name = _top;
position = "{131, 524}";
}
);
layerId = "23F2D7CD-FF69-4F10-BF0B-9629FD16792A";
name = Bold;
paths = (
{
closed = 1;
nodes = (
"21 608 OFFCURVE",
"65 576 OFFCURVE",
"131 576 CURVE SMOOTH",
"197 576 OFFCURVE",
"241 608 OFFCURVE",
"241 664 CURVE SMOOTH",
"241 719 OFFCURVE",
"197 751 OFFCURVE",
"131 751 CURVE SMOOTH",
"65 751 OFFCURVE",
"21 719 OFFCURVE",
"21 664 CURVE SMOOTH"
);
},
{
closed = 1;
nodes = (
"157 704 OFFCURVE",
"177 689 OFFCURVE",
"177 664 CURVE SMOOTH",
"177 640 OFFCURVE",
"155 623 OFFCURVE",
"131 623 CURVE SMOOTH",
"105 623 OFFCURVE",
"85 641 OFFCURVE",
"85 664 CURVE SMOOTH",
"85 689 OFFCURVE",
"106 704 OFFCURVE",
"131 704 CURVE SMOOTH"
);
}
);
width = 262;
}
);
unicode = 02DA;
},
{
glyphname = AE;
lastChange = "2014-12-10 12:50:17 +0000";
layers = (
{
anchors = (
{
name = top;
position = "{496, 710}";
}
);
layerId = "23F2D7CD-FF69-4F10-BF0B-9629FD16792A";
name = Bold;
paths = (
{
closed = 1;
nodes = (
"-25 0 LINE",
"121 0 LINE",
"226 177 LINE",
"454 177 LINE",
"454 0 LINE",
"932 0 LINE",
"932 121 LINE",
"590 121 LINE",
"590 301 LINE",
"869 301 LINE",
"869 422 LINE",
"590 422 LINE",
"590 589 LINE",
"923 589 LINE",
"923 710 LINE",
"418 710 LINE"
);
},
{
closed = 1;
nodes = (
"285 297 LINE",
"444 555 LINE",
"444 297 LINE"
);
}
);
width = 966;
}
);
leftKerningGroup = AE;
rightKerningGroup = E;
unicode = 00C6;
},
{
color = 4;
glyphname = Eth;
lastChange = "2014-12-10 12:34:58 +0000";
layers = (
{
components = (
{
name = D;
transform = "{1, 0, 0, 1, 4, 0}";
}
);
layerId = "23F2D7CD-FF69-4F10-BF0B-9629FD16792A";
name = Bold;
paths = (
{
closed = 1;
nodes = (
"31 307 LINE",
"356 307 LINE",
"356 407 LINE",
"31 407 LINE"
);
}
);
width = 716;
}
);
leftKerningGroup = B;
rightKerningGroup = D;
unicode = 00D0;
},
{
glyphname = multiply;
layers = (
{
layerId = "23F2D7CD-FF69-4F10-BF0B-9629FD16792A";
name = Bold;
paths = (
{
closed = 1;
nodes = (
"322 275 LINE",
"420 374 LINE",
"337 458 LINE",
"238 359 LINE",
"140 457 LINE",
"56 374 LINE",
"154 275 LINE",
"52 173 LINE",
"135 89 LINE",
"238 192 LINE",
"341 89 LINE",
"425 172 LINE"
);
}
);
width = 477;
}
);
unicode = 00D7;
},
{
glyphname = Thorn;
layers = (
{
layerId = "23F2D7CD-FF69-4F10-BF0B-9629FD16792A";
name = Bold;
paths = (
{
closed = 1;
nodes = (
"212 582 LINE",
"212 710 LINE",
"74 710 LINE",
"74 0 LINE",
"212 0 LINE",
"212 110 LINE",
"364 110 LINE SMOOTH",
"495 110 OFFCURVE",
"584 224 OFFCURVE",
"584 346 CURVE SMOOTH",
"584 463 OFFCURVE",
"489 582 OFFCURVE",
"358 582 CURVE SMOOTH"
);
},
{
closed = 1;
nodes = (
"212 231 LINE",
"212 461 LINE",
"351 461 LINE SMOOTH",
"401 461 OFFCURVE",
"447 412 OFFCURVE",
"447 346 CURVE SMOOTH",
"447 283 OFFCURVE",
"409 231 OFFCURVE",
"357 231 CURVE SMOOTH"
);
}
);
width = 604;
}
);
leftKerningGroup = B;
rightKerningGroup = Thorn;
unicode = 00DE;
},
{
glyphname = germandbls;
layers = (
{
layerId = "23F2D7CD-FF69-4F10-BF0B-9629FD16792A";
name = Bold;
paths = (
{
closed = 1;
nodes = (
"247 -6 LINE",
"396 -3 OFFCURVE",
"530 57 OFFCURVE",
"530 210 CURVE SMOOTH",
"530 306 OFFCURVE",
"477 378 OFFCURVE",
"391 402 CURVE",
"438 419 OFFCURVE",
"478 481 OFFCURVE",
"478 550 CURVE SMOOTH",
"478 651 OFFCURVE",
"394 714 OFFCURVE",
"283 714 CURVE SMOOTH",
"156 714 OFFCURVE",
"61 634 OFFCURVE",
"61 522 CURVE SMOOTH",
"61 0 LINE",
"188 0 LINE",
"188 499 LINE SMOOTH",
"188 544 OFFCURVE",
"208 600 OFFCURVE",
"272 600 CURVE SMOOTH",
"304 600 OFFCURVE",
"351 583 OFFCURVE",
"351 527 CURVE SMOOTH",
"351 483 OFFCURVE",
"322 453 OFFCURVE",
"274 453 CURVE SMOOTH",
"255 453 LINE",
"255 333 LINE",
"276 333 LINE SMOOTH",
"335 333 OFFCURVE",
"390 294 OFFCURVE",
"390 225 CURVE SMOOTH",
"390 151 OFFCURVE",
"329 118 OFFCURVE",
"247 117 CURVE"
);
}
);
width = 558;
}
);
leftKerningGroup = b;
rightKerningGroup = germandbls;
unicode = 00DF;
},
{
glyphname = ae;
lastChange = "2014-12-10 15:02:38 +0000";
layers = (
{
anchors = (
{
name = top;
position = "{469, 524}";
}
);
layerId = "23F2D7CD-FF69-4F10-BF0B-9629FD16792A";
name = Bold;
paths = (
{
closed = 1;
nodes = (
"277 -10 OFFCURVE",
"370 22 OFFCURVE",
"417 98 CURVE",
"464 33 OFFCURVE",
"543 -10 OFFCURVE",
"642 -10 CURVE SMOOTH",
"758 -10 OFFCURVE",
"847 47 OFFCURVE",
"886 127 CURVE",
"771 159 LINE",
"754 116 OFFCURVE",
"700 88 OFFCURVE",
"647 88 CURVE SMOOTH",
"573 88 OFFCURVE",
"509 137 OFFCURVE",
"503 219 CURVE",
"913 219 LINE",
"914 230 OFFCURVE",
"916 248 OFFCURVE",
"916 262 CURVE",
"915 408 OFFCURVE",
"812 533 OFFCURVE",
"641 533 CURVE SMOOTH",
"563 533 OFFCURVE",
"499 504 OFFCURVE",
"455 459 CURVE",
"416 506 OFFCURVE",
"354 533 OFFCURVE",
"272 533 CURVE SMOOTH",
"194 533 OFFCURVE",
"122 511 OFFCURVE",
"53 466 CURVE",
"94 381 LINE",
"151 420 OFFCURVE",
"203 440 OFFCURVE",
"259 440 CURVE SMOOTH",
"330 440 OFFCURVE",
"368 408 OFFCURVE",
"374 349 CURVE",
"370 338 OFFCURVE",
"367 317 OFFCURVE",
"366 305 CURVE",
"334 318 OFFCURVE",
"291 325 OFFCURVE",
"248 325 CURVE SMOOTH",
"117 325 OFFCURVE",
"25 256 OFFCURVE",
"25 156 CURVE SMOOTH",
"25 61 OFFCURVE",
"102 -10 OFFCURVE",
"204 -10 CURVE SMOOTH"
);
},
{
closed = 1;
nodes = (
"191 88 OFFCURVE",
"151 122 OFFCURVE",
"151 167 CURVE SMOOTH",
"151 215 OFFCURVE",
"201 250 OFFCURVE",
"270 250 CURVE SMOOTH",
"301 250 OFFCURVE",
"337 243 OFFCURVE",
"366 233 CURVE",
"367 219 OFFCURVE",
"370 180 OFFCURVE",
"376 168 CURVE",
"376 156 OFFCURVE",
"367 142 OFFCURVE",
"354 132 CURVE",
"330 105 OFFCURVE",
"287 88 OFFCURVE",
"242 88 CURVE SMOOTH"
);
},
{
closed = 1;
nodes = (
"501 302 LINE",
"507 382 OFFCURVE",
"563 436 OFFCURVE",
"639 436 CURVE SMOOTH",
"715 436 OFFCURVE",
"771 382 OFFCURVE",
"778 302 CURVE"
);
}
);
width = 937;
}
);
leftKerningGroup = a;
rightKerningGroup = e;
unicode = 00E6;
},
{
glyphname = dotlessi;
lastChange = "2014-12-10 14:02:27 +0000";
layers = (
{
anchors = (
{
name = ogonek;
position = "{229, 10}";
},
{
name = top;
position = "{128, 524}";
}
);
layerId = "23F2D7CD-FF69-4F10-BF0B-9629FD16792A";
name = Bold;
paths = (
{
closed = 1;
nodes = (
"195 0 LINE",
"195 524 LINE",
"61 524 LINE",
"61 0 LINE"
);
}
);
width = 255;
}
);
leftKerningGroup = i;
rightKerningGroup = i;
unicode = 0131;
},
{
glyphname = eth;
layers = (
{
layerId = "23F2D7CD-FF69-4F10-BF0B-9629FD16792A";
name = Bold;
paths = (
{
closed = 1;
nodes = (
"487 713 LINE",
"408 668 LINE",
"381 691 OFFCURVE",
"351 712 OFFCURVE",
"318 730 CURVE",
"146 730 LINE",
"212 694 OFFCURVE",
"264 658 OFFCURVE",
"306 621 CURVE",
"221 574 LINE",
"260 522 LINE",
"353 574 LINE",
"402 518 OFFCURVE",
"429 458 OFFCURVE",
"443 394 CURVE",
"406 441 OFFCURVE",
"342 472 OFFCURVE",
"273 472 CURVE SMOOTH",
"138 472 OFFCURVE",
"31 365 OFFCURVE",
"31 233 CURVE SMOOTH",
"31 94 OFFCURVE",
"149 -10 OFFCURVE",
"303 -10 CURVE SMOOTH",
"463 -10 OFFCURVE",
"580 104 OFFCURVE",
"580 290 CURVE SMOOTH",
"580 400 OFFCURVE",
"539 524 OFFCURVE",
"455 621 CURVE",
"526 660 LINE"
);
},
{
closed = 1;
nodes = (
"169 308 OFFCURVE",
"228 364 OFFCURVE",
"307 364 CURVE SMOOTH",
"384 364 OFFCURVE",
"443 311 OFFCURVE",
"443 237 CURVE SMOOTH",
"443 163 OFFCURVE",
"384 104 OFFCURVE",
"305 104 CURVE SMOOTH",
"227 104 OFFCURVE",
"169 160 OFFCURVE",
"169 234 CURVE SMOOTH"
);
}
);
width = 613;
}
);
leftKerningGroup = eth;
rightKerningGroup = eth;
unicode = 00F0;
},
{
color = 4;
glyphname = divide;
lastChange = "2014-12-10 10:32:56 +0000";
layers = (
{
layerId = "23F2D7CD-FF69-4F10-BF0B-9629FD16792A";
name = Bold;
paths = (
{
closed = 1;
nodes = (
"458 244 LINE",
"458 351 LINE",
"54 351 LINE",
"54 244 LINE"
);
},
{
closed = 1;
nodes = (
"298 30 OFFCURVE",
"338 68 OFFCURVE",
"338 112 CURVE",
"338 155 OFFCURVE",
"298 193 OFFCURVE",
"256 193 CURVE",
"213 193 OFFCURVE",
"174 155 OFFCURVE",
"174 112 CURVE",
"174 69 OFFCURVE",
"213 30 OFFCURVE",
"256 30 CURVE"
);
},
{
closed = 1;
nodes = (
"298 403 OFFCURVE",
"338 441 OFFCURVE",
"338 485 CURVE",
"338 528 OFFCURVE",
"298 566 OFFCURVE",
"256 566 CURVE",
"213 566 OFFCURVE",
"174 528 OFFCURVE",
"174 485 CURVE",
"174 442 OFFCURVE",
"213 403 OFFCURVE",
"256 403 CURVE"
);
}
);
width = 511;
}
);
unicode = 00F7;
},
{
color = 4;
glyphname = oslash;
lastChange = "2014-12-10 14:05:18 +0000";
layers = (
{
anchors = (
{
name = top;
position = "{303, 524}";
}
);
components = (
{
name = o;
transform = "{1, 0, 0, 1, 0, 0}";
}
);
layerId = "23F2D7CD-FF69-4F10-BF0B-9629FD16792A";
name = Bold;
paths = (
{
closed = 1;
nodes = (
"550 528 LINE",
"474 528 LINE",
"50 -4 LINE",
"126 -4 LINE"
);
}
);
width = 606;
}
);
leftKerningGroup = c;
rightKerningGroup = o;
unicode = 00F8;
},
{
glyphname = thorn;
layers = (
{
layerId = "23F2D7CD-FF69-4F10-BF0B-9629FD16792A";
name = Bold;
paths = (
{
closed = 1;
nodes = (
"574 391 OFFCURVE",
"475 539 OFFCURVE",
"319 539 CURVE SMOOTH",
"250 539 OFFCURVE",
"216 508 OFFCURVE",
"198 483 CURVE",
"198 710 LINE",
"61 710 LINE",
"61 -213 LINE",
"198 -213 LINE",
"198 27 LINE",
"212 4 OFFCURVE",
"250 -24 OFFCURVE",
"311 -24 CURVE SMOOTH",
"455 -24 OFFCURVE",
"573 108 OFFCURVE",
"574 256 CURVE SMOOTH"
);
},
{
closed = 1;
nodes = (
"437 170 OFFCURVE",
"382 97 OFFCURVE",
"307 97 CURVE SMOOTH",
"256 97 OFFCURVE",
"198 139 OFFCURVE",
"198 176 CURVE SMOOTH",
"198 336 LINE",
"222 382 OFFCURVE",
"257 418 OFFCURVE",
"311 418 CURVE SMOOTH",
"389 418 OFFCURVE",
"437 344 OFFCURVE",
"437 258 CURVE SMOOTH"
);
}
);
width = 601;
}
);
leftKerningGroup = b;
rightKerningGroup = b;
unicode = 00FE;
},
{
color = 9;
glyphname = breve;
lastChange = "2015-01-02 12:03:33 +0000";
layers = (
{
anchors = (
{
name = _top;
position = "{164, 524}";
}
);
layerId = "23F2D7CD-FF69-4F10-BF0B-9629FD16792A";
name = Bold;
paths = (
{
closed = 1;
nodes = (
"129 666 OFFCURVE",
"96 705 OFFCURVE",
"96 751 CURVE",
"13 751 LINE",
"13 662 OFFCURVE",
"77 596 OFFCURVE",
"165 596 CURVE SMOOTH",
"253 596 OFFCURVE",
"317 662 OFFCURVE",
"317 751 CURVE",
"234 751 LINE",
"230 702 OFFCURVE",
"200 666 OFFCURVE",
"165 666 CURVE SMOOTH"
);
}
);
width = 328;
}
);
unicode = 02D8;
},
{
glyphname = ogonek;
lastChange = "2014-12-10 12:45:17 +0000";
layers = (
{
anchors = (
{
name = _ogonek;
position = "{223, 10}";
}
);
layerId = "23F2D7CD-FF69-4F10-BF0B-9629FD16792A";
name = Bold;
paths = (
{
closed = 1;
nodes = (
"208 -126 LINE",
"166 -123 OFFCURVE",
"146 -108 OFFCURVE",
"146 -85 CURVE SMOOTH",
"146 -59 OFFCURVE",
"171 -31 OFFCURVE",
"223 0 CURVE",
"184 21 LINE",
"104 -19 OFFCURVE",
"65 -65 OFFCURVE",
"65 -109 CURVE SMOOTH",
"65 -150 OFFCURVE",
"103 -185 OFFCURVE",
"180 -196 CURVE"
);
}
);
width = 290;
}
);
unicode = 02DB;
},
{
color = 4;
glyphname = dotaccent;
lastChange = "2014-12-10 12:33:36 +0000";
layers = (
{
anchors = (
{
name = _top;
position = "{110, 524}";
}
);
layerId = "23F2D7CD-FF69-4F10-BF0B-9629FD16792A";
name = Bold;
paths = (
{
closed = 1;
nodes = (
"150 584 OFFCURVE",
"188 620 OFFCURVE",
"188 662 CURVE",
"188 703 OFFCURVE",
"150 739 OFFCURVE",
"110 739 CURVE",
"69 739 OFFCURVE",
"32 703 OFFCURVE",
"32 662 CURVE",
"32 621 OFFCURVE",
"69 584 OFFCURVE",
"110 584 CURVE"
);
}
);
width = 221;
}
);
unicode = 02D9;
},
{
color = 9;
glyphname = caron;
lastChange = "2015-01-02 12:04:18 +0000";
layers = (
{
anchors = (
{
name = _top;
position = "{182, 524}";
}
);
layerId = "23F2D7CD-FF69-4F10-BF0B-9629FD16792A";
name = Bold;
paths = (
{
closed = 1;
nodes = (
"241 751 LINE",
"186 654.125 LINE",
"131 751 LINE",
"-16 751 LINE",
"134 596 LINE",
"238 596 LINE",
"388 751 LINE"
);
}
);
width = 369;
}
);
unicode = 02C7;
},
{
color = 4;
glyphname = caron.alt;
lastChange = "2014-12-10 12:39:07 +0000";
layers = (
{
anchors = (
{
name = _topright;
position = "{105, 524}";
}
);
layerId = "23F2D7CD-FF69-4F10-BF0B-9629FD16792A";
name = Bold;
paths = (
{
closed = 1;
nodes = (
"208 711 LINE",
"95 711 LINE",
"60 557 LINE",
"155 557 LINE"
);
}
);
width = 255;
}
);
},
{
color = 4;
glyphname = commaaccent;
lastChange = "2014-12-10 12:37:09 +0000";
layers = (
{
anchors = (
{
name = _bottom;
position = "{119, 0}";
}
);
layerId = "23F2D7CD-FF69-4F10-BF0B-9629FD16792A";
name = Bold;
paths = (
{
closed = 1;
nodes = (
"98 -214 LINE",
"21 -214 LINE",
"69 -49 LINE",
"166 -49 LINE"
);
}
);
width = 201;
}
);
unicode = F6C3;
},
{
color = 4;
glyphname = gcommaaccent;
layers = (
{
components = (
{
name = g;
transform = "{1, 0, 0, 1, 0, 0}";
}
);
layerId = "23F2D7CD-FF69-4F10-BF0B-9629FD16792A";
name = Bold;
paths = (
{
closed = 1;
nodes = (
"327 746 LINE",
"404 746 LINE",
"356 581 LINE",
"259 581 LINE"
);
}
);
width = 634;
}
);
leftKerningGroup = d;
rightKerningGroup = g;
unicode = 0123;
},
{
glyphname = Hbar;
layers = (
{
layerId = "23F2D7CD-FF69-4F10-BF0B-9629FD16792A";
name = Bold;
paths = (
{
closed = 1;
nodes = (
"538 710 LINE",
"538 609 LINE",
"216 609 LINE",
"216 710 LINE",
"78 710 LINE",
"78 609 LINE",
"28 609 LINE",
"28 543 LINE",
"78 543 LINE",
"78 0 LINE",
"216 0 LINE",
"216 303 LINE",
"538 303 LINE",
"538 0 LINE",
"675 0 LINE",
"675 543 LINE",
"725 543 LINE",
"725 609 LINE",
"675 609 LINE",
"675 710 LINE"
);
},
{
closed = 1;
nodes = (
"216 423 LINE",
"216 543 LINE",
"538 543 LINE",
"538 423 LINE"
);
}
);
width = 753;
}
);
leftKerningGroup = B;
rightKerningGroup = H;
unicode = 0126;
},
{
color = 4;
glyphname = hbar;
lastChange = "2014-12-10 14:33:31 +0000";
layers = (
{
components = (
{
name = h;
transform = "{1, 0, 0, 1, 0, 0}";
}
);
layerId = "23F2D7CD-FF69-4F10-BF0B-9629FD16792A";
name = Bold;
paths = (
{
closed = 1;
nodes = (
"16 597 LINE",
"313 597 LINE",
"313 676 LINE",
"16 676 LINE"
);
}
);
width = 604;
}
);
leftKerningGroup = b;
rightKerningGroup = h;
unicode = 0127;
},
{
color = 4;
glyphname = dotlessj;
lastChange = "2014-12-10 14:35:52 +0000";
layers = (
{
anchors = (
{
name = top;
position = "{128, 524}";
}
);
layerId = "23F2D7CD-FF69-4F10-BF0B-9629FD16792A";
name = Bold;
paths = (
{
closed = 1;
nodes = (
"63 -213 LINE",
"197 -213 LINE",
"197 524 LINE",
"63 524 LINE"
);
}
);
width = 255;
}
);
leftKerningGroup = i;
rightKerningGroup = i;
unicode = 0237;
},
{
glyphname = kgreenlandic;
layers = (
{
layerId = "23F2D7CD-FF69-4F10-BF0B-9629FD16792A";
name = Bold;
paths = (
{
closed = 1;
nodes = (
"562 0 LINE",
"353 301 LINE",
"548 523 LINE",
"405 523 LINE",
"195 287 LINE",
"195 524 LINE",
"61 524 LINE",
"61 0 LINE",
"195 0 LINE",
"195 156 LINE",
"267 227 LINE",
"419 0 LINE"
);
}
);
width = 558;
}
);
unicode = 0138;
},
{
color = 4;
glyphname = Lslash;
lastChange = "2014-12-10 12:42:20 +0000";
layers = (
{
components = (
{
name = L;
transform = "{1, 0, 0, 1, 7, 0}";
}
);
layerId = "23F2D7CD-FF69-4F10-BF0B-9629FD16792A";
name = Bold;
paths = (
{
closed = 1;
nodes = (
"-2 315 LINE",
"39 245 LINE",
"373 456 LINE",
"331 525 LINE"
);
}
);
width = 594;
}
);
leftKerningGroup = B;
rightKerningGroup = L;
unicode = 0141;
},
{
color = 4;
glyphname = lslash;
lastChange = "2014-12-10 14:38:17 +0000";
layers = (
{
components = (
{
name = l;
transform = "{1, 0, 0, 1, 0, 0}";
}
);
layerId = "23F2D7CD-FF69-4F10-BF0B-9629FD16792A";
name = Bold;
paths = (
{
closed = 1;
nodes = (
"-4 339 LINE",
"37 269 LINE",
"331 455 LINE",
"289 524 LINE"
);
}
);
width = 344;
}
);
leftKerningGroup = l;
rightKerningGroup = l;
unicode = 0142;
},
{
color = 4;
glyphname = apostrophe;
lastChange = "2014-12-10 12:24:56 +0000";
layers = (
{
layerId = "23F2D7CD-FF69-4F10-BF0B-9629FD16792A";
name = Bold;
paths = (
{
closed = 1;
nodes = (
"338 711 LINE",
"225 711 LINE",
"190 557 LINE",
"285 557 LINE"
);
}
);
width = 532;
}
);
leftKerningGroup = apostrophe;
rightKerningGroup = apostrophe;
unicode = 02BC;
},
{
glyphname = Eng;
layers = (
{
layerId = "23F2D7CD-FF69-4F10-BF0B-9629FD16792A";
name = Bold;
paths = (
{
closed = 1;
nodes = (
"541 28 LINE",
"541 -14 LINE SMOOTH",
"541 -53 OFFCURVE",
"511 -80 OFFCURVE",
"476 -80 CURVE SMOOTH",
"455 -80 OFFCURVE",
"433 -73 OFFCURVE",
"418 -58 CURVE",
"360 -149 LINE",
"396 -181 OFFCURVE",
"443 -196 OFFCURVE",
"493 -196 CURVE SMOOTH",
"592 -196 OFFCURVE",
"675 -121 OFFCURVE",
"675 -9 CURVE SMOOTH",
"675 709 LINE",
"538 709 LINE",
"538 250 LINE",
"180 710 LINE",
"74 710 LINE",
"74 0 LINE",
"212 0 LINE",
"212 451 LINE"
);
}
);
width = 750;
}
);
leftKerningGroup = B;
rightKerningGroup = H;
unicode = 014A;
},
{
glyphname = eng;
layers = (
{
layerId = "23F2D7CD-FF69-4F10-BF0B-9629FD16792A";
name = Bold;
paths = (
{
closed = 1;
nodes = (
"466 -196 OFFCURVE",
"547 -117 OFFCURVE",
"547 -4 CURVE SMOOTH",
"547 327 LINE SMOOTH",
"547 429 OFFCURVE",
"521 533 OFFCURVE",
"390 533 CURVE SMOOTH",
"299 533 OFFCURVE",
"221 493 OFFCURVE",
"182 427 CURVE",
"182 524 LINE",
"61 524 LINE",
"61 0 LINE",
"195 0 LINE",
"195 306 LINE",
"215 369 OFFCURVE",
"277 415 OFFCURVE",
"331 415 CURVE SMOOTH",
"383 415 OFFCURVE",
"414 378 OFFCURVE",
"414 294 CURVE SMOOTH",
"414 -14 LINE SMOOTH",
"414 -53 OFFCURVE",
"384 -80 OFFCURVE",
"349 -80 CURVE SMOOTH",
"328 -80 OFFCURVE",
"306 -73 OFFCURVE",
"290 -58 CURVE",
"233 -149 LINE",
"269 -181 OFFCURVE",
"316 -196 OFFCURVE",
"366 -196 CURVE SMOOTH"
);
}
);
width = 604;
}
);
leftKerningGroup = m;
rightKerningGroup = m;
unicode = 014B;
},
{
color = 9;
glyphname = hungarumlaut;
lastChange = "2015-01-02 12:05:45 +0000";
layers = (
{
anchors = (
{
name = _top;
position = "{120, 524}";
}
);
layerId = "23F2D7CD-FF69-4F10-BF0B-9629FD16792A";
name = Bold;
paths = (
{
closed = 1;
nodes = (
"265 751 LINE",
"177 596 LINE",
"262 596 LINE",
"412 751 LINE"
);
},
{
closed = 1;
nodes = (
"76 751 LINE",
"-12 596 LINE",
"73 596 LINE",
"223 751 LINE"
);
}
);
width = 366;
}
);
unicode = 02DD;
},
{
glyphname = OE;
layers = (
{
layerId = "23F2D7CD-FF69-4F10-BF0B-9629FD16792A";
name = Bold;
paths = (
{
closed = 1;
nodes = (
"710 121 LINE",
"710 301 LINE",
"989 301 LINE",
"989 422 LINE",
"710 422 LINE",
"710 589 LINE",
"1043 589 LINE",
"1043 710 LINE",
"572 710 LINE",
"572 606 LINE",
"528 668 OFFCURVE",
"457 715 OFFCURVE",
"370 715 CURVE SMOOTH",
"175 715 OFFCURVE",
"31 544 OFFCURVE",
"31 355 CURVE SMOOTH",
"31 173 OFFCURVE",
"167 -5 OFFCURVE",
"368 -5 CURVE SMOOTH",
"453 -5 OFFCURVE",
"527 42 OFFCURVE",
"572 105 CURVE",
"572 0 LINE",
"1052 0 LINE",
"1052 121 LINE"
);
},
{
closed = 1;
nodes = (
"245 117 OFFCURVE",
"171 232 OFFCURVE",
"171 355 CURVE SMOOTH",
"171 472 OFFCURVE",
"241 593 OFFCURVE",
"369 593 CURVE SMOOTH",
"491 593 OFFCURVE",
"566 478 OFFCURVE",
"566 356 CURVE SMOOTH",
"566 238 OFFCURVE",
"497 117 OFFCURVE",
"369 117 CURVE SMOOTH"
);
}
);
width = 1085;
}
);
leftKerningGroup = C;
rightKerningGroup = E;
unicode = 0152;
},
{
glyphname = oe;
layers = (
{
layerId = "23F2D7CD-FF69-4F10-BF0B-9629FD16792A";
name = Bold;
paths = (
{
closed = 1;
nodes = (
"384 -10 OFFCURVE",
"448 29 OFFCURVE",
"509 108 CURVE",
"569 31 OFFCURVE",
"637 -10 OFFCURVE",
"721 -10 CURVE SMOOTH",
"828 -10 OFFCURVE",
"923 43 OFFCURVE",
"963 127 CURVE",
"852 159 LINE",
"835 116 OFFCURVE",
"782 85 OFFCURVE",
"726 85 CURVE SMOOTH",
"650 85 OFFCURVE",
"588 143 OFFCURVE",
"583 219 CURVE",
"987 219 LINE",
"989 230 OFFCURVE",
"990 248 OFFCURVE",
"990 262 CURVE",
"985 423 OFFCURVE",
"874 533 OFFCURVE",
"718 533 CURVE SMOOTH",
"627 533 OFFCURVE",
"558 492 OFFCURVE",
"508 411 CURVE",
"462 489 OFFCURVE",
"391 533 OFFCURVE",
"301 533 CURVE SMOOTH",
"144 533 OFFCURVE",
"28 418 OFFCURVE",
"28 261 CURVE SMOOTH",
"28 105 OFFCURVE",
"144 -10 OFFCURVE",
"301 -10 CURVE SMOOTH"
);
},
{
closed = 1;
nodes = (
"224 104 OFFCURVE",
"166 170 OFFCURVE",
"166 260 CURVE SMOOTH",
"166 351 OFFCURVE",
"225 419 OFFCURVE",
"303 419 CURVE SMOOTH",
"382 419 OFFCURVE",
"440 352 OFFCURVE",
"440 261 CURVE SMOOTH",
"440 171 OFFCURVE",
"382 104 OFFCURVE",
"303 104 CURVE SMOOTH"
);
},
{
closed = 1;
nodes = (
"579 302 LINE",
"584 381 OFFCURVE",
"640 436 OFFCURVE",
"714 436 CURVE SMOOTH",
"787 436 OFFCURVE",
"846 382 OFFCURVE",
"853 302 CURVE"
);
}
);
width = 1011;
}
);
leftKerningGroup = c;
rightKerningGroup = e;
unicode = 0153;
},
{
glyphname = Tbar;
lastChange = "2014-12-10 12:44:45 +0000";
layers = (
{
layerId = "23F2D7CD-FF69-4F10-BF0B-9629FD16792A";
name = Bold;
paths = (
{
closed = 1;
nodes = (
"618 710 LINE",
"27 710 LINE",
"27 589 LINE",
"254 589 LINE",
"254 379 LINE",
"63 379 LINE",
"63 313 LINE",
"254 313 LINE",
"254 0 LINE",
"391 0 LINE",
"391 313 LINE",
"581 313 LINE",
"581 379 LINE",
"391 379 LINE",
"391 589 LINE",
"618 589 LINE"
);
}
);
width = 644;
}
);
leftKerningGroup = T;
rightKerningGroup = T;
unicode = 0166;
},
{
glyphname = tbar;
layers = (
{
layerId = "23F2D7CD-FF69-4F10-BF0B-9629FD16792A";
name = Bold;
paths = (
{
closed = 1;
nodes = (
"349 133 LINE",
"333 126 OFFCURVE",
"304 114 OFFCURVE",
"276 114 CURVE SMOOTH",
"248 114 OFFCURVE",
"226 128 OFFCURVE",
"226 165 CURVE SMOOTH",
"226 264 LINE",
"336 264 LINE",
"336 344 LINE",
"226 344 LINE",
"226 421 LINE",
"336 421 LINE",
"336 524 LINE",
"226 524 LINE",
"226 694 LINE",
"92 694 LINE",
"92 524 LINE",
"23 524 LINE",
"23 421 LINE",
"92 421 LINE",
"92 344 LINE",
"23 344 LINE",
"23 264 LINE",
"92 264 LINE",
"92 120 LINE SMOOTH",
"92 27 OFFCURVE",
"154 -9 OFFCURVE",
"228 -9 CURVE SMOOTH",
"285 -9 OFFCURVE",
"340 11 OFFCURVE",
"376 27 CURVE"
);
}
);
width = 385;
}
);
leftKerningGroup = t;
rightKerningGroup = t;
unicode = 0167;
},
{
glyphname = Schwa;
layers = (
{
layerId = "23F2D7CD-FF69-4F10-BF0B-9629FD16792A";
name = Bold;
paths = (
{
closed = 1;
nodes = (
"578 -5 OFFCURVE",
"714 168 OFFCURVE",
"714 359 CURVE SMOOTH",
"714 541 OFFCURVE",
"576 715 OFFCURVE",
"371 715 CURVE SMOOTH",
"231 715 OFFCURVE",
"113 640 OFFCURVE",
"60 530 CURVE",
"199 483 LINE",
"219 548 OFFCURVE",
"291 592 OFFCURVE",
"367 592 CURVE SMOOTH",
"466 592 OFFCURVE",
"552 518 OFFCURVE",
"564 401 CURVE",
"25 401 LINE",
"22 387 OFFCURVE",
"20 365 OFFCURVE",
"20 344 CURVE SMOOTH",
"20 170 OFFCURVE",
"160 -5 OFFCURVE",
"369 -5 CURVE SMOOTH"
);
},
{
closed = 1;
nodes = (
"265 116 OFFCURVE",
"181 190 OFFCURVE",
"171 293 CURVE",
"562 293 LINE",
"553 189 OFFCURVE",
"474 116 OFFCURVE",
"371 116 CURVE SMOOTH"
);
}
);
width = 746;
}
);
leftKerningGroup = Schwa;
rightKerningGroup = O;
unicode = 018F;
},
{
glyphname = florin;
layers = (
{
layerId = "23F2D7CD-FF69-4F10-BF0B-9629FD16792A";
name = Bold;
paths = (
{
closed = 1;
nodes = (
"262 -196 OFFCURVE",
"344 -120 OFFCURVE",
"344 -11 CURVE SMOOTH",
"344 360 LINE",
"472 360 LINE",
"472 463 LINE",
"344 463 LINE",
"344 533 LINE SMOOTH",
"344 594 OFFCURVE",
"368 627 OFFCURVE",
"414 627 CURVE SMOOTH",
"437 627 OFFCURVE",
"467 619 OFFCURVE",
"487 608 CURVE",
"514 709 LINE",
"472 729 OFFCURVE",
"427 740 OFFCURVE",
"385 740 CURVE SMOOTH",
"279 740 OFFCURVE",
"210 658 OFFCURVE",
"210 528 CURVE SMOOTH",
"210 463 LINE",
"142 463 LINE",
"142 360 LINE",
"210 360 LINE",
"210 -14 LINE SMOOTH",
"210 -53 OFFCURVE",
"181 -80 OFFCURVE",
"146 -80 CURVE SMOOTH",
"125 -80 OFFCURVE",
"102 -73 OFFCURVE",
"87 -58 CURVE",
"29 -149 LINE",
"65 -181 OFFCURVE",
"113 -196 OFFCURVE",
"162 -196 CURVE SMOOTH"
);
}
);
width = 548;
}
);
unicode = 0192;
},
{
color = 4;
glyphname = Aringacute;
lastChange = "2014-12-10 12:50:59 +0000";
layers = (
{
layerId = "23F2D7CD-FF69-4F10-BF0B-9629FD16792A";
name = Bold;
paths = (
{
closed = 1;
nodes = (
"497 915 LINE",
"364 915 LINE",
"311 821 LINE",
"267 814 OFFCURVE",
"239 787 OFFCURVE",
"239 746 CURVE SMOOTH",
"239 721 OFFCURVE",
"249 701 OFFCURVE",
"267 688 CURVE",
"5 0 LINE",
"147 0 LINE",
"212 177 LINE",
"460 177 LINE",
"526 0 LINE",
"668 0 LINE",
"406 688 LINE",
"423 701 OFFCURVE",
"433 721 OFFCURVE",
"433 746 CURVE SMOOTH",
"433 774 OFFCURVE",
"420 795 OFFCURVE",
"398 808 CURVE"
);
},
{
closed = 1;
nodes = (
"235 274 LINE",
"337 553 LINE",
"435 274 LINE"
);
},
{
closed = 1;
nodes = (
"359 782 OFFCURVE",
"377 768 OFFCURVE",
"377 746 CURVE SMOOTH",
"377 725 OFFCURVE",
"357 710 OFFCURVE",
"336 710 CURVE SMOOTH",
"313 710 OFFCURVE",
"296 726 OFFCURVE",
"296 746 CURVE SMOOTH",
"296 768 OFFCURVE",
"314 782 OFFCURVE",
"336 782 CURVE SMOOTH"
);
}
);
width = 672;
}
);
leftKerningGroup = A;
rightKerningGroup = A;
unicode = 01FA;
},
{
color = 9;
glyphname = uni030F;
lastChange = "2015-01-02 12:05:50 +0000";
layers = (
{
anchors = (
{
name = _top;
position = "{246, 524}";
}
);
layerId = "23F2D7CD-FF69-4F10-BF0B-9629FD16792A";
name = Bold;
paths = (
{
closed = 1;
nodes = (
"115 596 LINE",
"200 596 LINE",
"112 751 LINE",
"-35 751 LINE"
);
},
{
closed = 1;
nodes = (
"304 596 LINE",
"389 596 LINE",
"301 751 LINE",
"154 751 LINE"
);
}
);
width = 366;
}
);
unicode = 030F;
},
{
color = 9;
glyphname = uni0311;
lastChange = "2015-01-02 12:06:05 +0000";
layers = (
{
anchors = (
{
name = _top;
position = "{164, 524}";
}
);
layerId = "23F2D7CD-FF69-4F10-BF0B-9629FD16792A";
name = Bold;
paths = (
{
closed = 1;
nodes = (
"200 681 OFFCURVE",
"230 645 OFFCURVE",
"234 596 CURVE",
"317 596 LINE",
"317 685 OFFCURVE",
"253 751 OFFCURVE",
"165 751 CURVE SMOOTH",
"77 751 OFFCURVE",
"13 685 OFFCURVE",
"13 596 CURVE",
"96 596 LINE",
"96 642 OFFCURVE",
"129 681 OFFCURVE",
"165 681 CURVE SMOOTH"
);
}
);
width = 328;
}
);
unicode = 0311;
},
{
glyphname = schwa;
layers = (
{
layerId = "23F2D7CD-FF69-4F10-BF0B-9629FD16792A";
name = Bold;
paths = (
{
closed = 1;
nodes = (
"467 -10 OFFCURVE",
"571 115 OFFCURVE",
"571 263 CURVE SMOOTH",
"571 409 OFFCURVE",
"464 533 OFFCURVE",
"295 533 CURVE SMOOTH",
"179 533 OFFCURVE",
"90 476 OFFCURVE",
"52 396 CURVE",
"166 364 LINE",
"183 407 OFFCURVE",
"237 435 OFFCURVE",
"291 435 CURVE SMOOTH",
"360 435 OFFCURVE",
"422 386 OFFCURVE",
"429 304 CURVE",
"24 304 LINE",
"23 293 OFFCURVE",
"21 275 OFFCURVE",
"21 261 CURVE SMOOTH",
"22 115 OFFCURVE",
"126 -10 OFFCURVE",
"297 -10 CURVE SMOOTH"
);
},
{
closed = 1;
nodes = (
"226 87 OFFCURVE",
"166 141 OFFCURVE",
"160 221 CURVE",
"432 221 LINE",
"425 142 OFFCURVE",
"371 87 OFFCURVE",
"298 87 CURVE SMOOTH"
);
}
);
width = 599;
}
);
leftKerningGroup = schwa;
rightKerningGroup = o;
unicode = 0259;
},
{
glyphname = uni02C9;
layers = (
{
layerId = "23F2D7CD-FF69-4F10-BF0B-9629FD16792A";
name = Bold;
paths = (
{
closed = 1;
nodes = (
"360 633 LINE",
"360 716 LINE",
"60 716 LINE",
"60 633 LINE"
);
}
);
width = 419;
}
);
unicode = 02C9;
},
{
glyphname = uni0394;
layers = (
{
layerId = "23F2D7CD-FF69-4F10-BF0B-9629FD16792A";
name = Bold;
paths = (
{
closed = 1;
nodes = (
"383 710 LINE",
"271 710 LINE",
"18 104 LINE",
"18 0 LINE",
"633 0 LINE",
"633 104 LINE"
);
},
{
closed = 1;
nodes = (
"159 121 LINE",
"327 557 LINE",
"497 121 LINE"
);
}
);
width = 652;
}
);
leftKerningGroup = uni0394;
rightKerningGroup = uni0394;
unicode = 0394;
},
{
glyphname = uni03A9;
layers = (
{
layerId = "23F2D7CD-FF69-4F10-BF0B-9629FD16792A";
name = Bold;
paths = (
{
closed = 1;
nodes = (
"38 0 LINE",
"345 0 LINE",
"345 102 LINE",
"246 138 OFFCURVE",
"184 257 OFFCURVE",
"184 370 CURVE SMOOTH",
"184 480 OFFCURVE",
"261 592 OFFCURVE",
"387 592 CURVE SMOOTH",
"513 592 OFFCURVE",
"591 480 OFFCURVE",
"591 370 CURVE SMOOTH",
"591 257 OFFCURVE",
"528 138 OFFCURVE",
"430 102 CURVE",
"430 0 LINE",
"737 0 LINE",
"737 102 LINE",
"571 102 LINE",
"667 156 OFFCURVE",
"727 254 OFFCURVE",
"727 370 CURVE SMOOTH",
"727 551 OFFCURVE",
"581 715 OFFCURVE",
"387 715 CURVE SMOOTH",
"193 715 OFFCURVE",
"48 551 OFFCURVE",
"48 370 CURVE SMOOTH",
"48 254 OFFCURVE",
"107 156 OFFCURVE",
"203 102 CURVE",
"38 102 LINE"
);
}
);
width = 774;
}
);
leftKerningGroup = uni03A9;
rightKerningGroup = uni03A9;
unicode = 03A9;
},
{
color = 4;
glyphname = uni03BC;
lastChange = "2014-12-10 15:06:45 +0000";
layers = (
{
layerId = "23F2D7CD-FF69-4F10-BF0B-9629FD16792A";
name = Bold;
paths = (
{
closed = 1;
nodes = (
"61 -212 LINE",
"195 -212 LINE",
"186 49 LINE",
"195 25 OFFCURVE",
"224 -10 OFFCURVE",
"276 -10 CURVE SMOOTH",
"346 -10 OFFCURVE",
"415 50 OFFCURVE",
"438 98 CURVE",
"443 0 LINE",
"552 0 LINE",
"552 524 LINE",
"418 524 LINE",
"418 199 LINE",
"387 135 OFFCURVE",
"334 104 OFFCURVE",
"285 104 CURVE SMOOTH",
"224 104 OFFCURVE",
"195 145 OFFCURVE",
"195 225 CURVE SMOOTH",
"195 524 LINE",
"61 524 LINE"
);
}
);
width = 628;
}
);
unicode = 03BC;
},
{
glyphname = pi;
layers = (
{
layerId = "23F2D7CD-FF69-4F10-BF0B-9629FD16792A";
name = Bold;
paths = (
{
closed = 1;
nodes = (
"364 406 LINE",
"364 121 LINE SMOOTH",
"364 39 OFFCURVE",
"413 -8 OFFCURVE",
"494 -8 CURVE SMOOTH",
"534 -8 OFFCURVE",
"586 2 OFFCURVE",
"623 19 CURVE",
"604 121 LINE",
"588 113 OFFCURVE",
"567 107 OFFCURVE",
"551 107 CURVE SMOOTH",
"516 107 OFFCURVE",
"497 129 OFFCURVE",
"497 168 CURVE SMOOTH",
"497 406 LINE",
"593 406 LINE",
"593 522 LINE",
"26 522 LINE",
"26 406 LINE",
"101 406 LINE",
"101 0 LINE",
"233 0 LINE",
"233 406 LINE"
);
}
);
width = 642;
}
);
leftKerningGroup = pi;
rightKerningGroup = pi;
unicode = 03C0;
},
{
color = 4;
glyphname = dotbelow;
lastChange = "2014-12-10 12:54:50 +0000";
layers = (
{
anchors = (
{
name = bottom;
position = "{111, -2}";
}
);
layerId = "23F2D7CD-FF69-4F10-BF0B-9629FD16792A";
name = Bold;
paths = (
{
closed = 1;
nodes = (
"150 -212 OFFCURVE",
"188 -176 OFFCURVE",
"188 -134 CURVE",
"188 -93 OFFCURVE",
"150 -57 OFFCURVE",
"110 -57 CURVE",
"69 -57 OFFCURVE",
"32 -93 OFFCURVE",
"32 -134 CURVE",
"32 -175 OFFCURVE",
"69 -212 OFFCURVE",
"110 -212 CURVE"
);
}
);
width = 221;
}
);
},
{
glyphname = endash;
layers = (
{
layerId = "23F2D7CD-FF69-4F10-BF0B-9629FD16792A";
name = Bold;
paths = (
{
closed = 1;
nodes = (
"546 214 LINE",
"546 335 LINE",
"58 335 LINE",
"58 214 LINE"
);
}
);
width = 603;
}
);
leftKerningGroup = hyphen;
rightKerningGroup = hyphen;
unicode = 2013;
},
{
glyphname = emdash;
layers = (
{
layerId = "23F2D7CD-FF69-4F10-BF0B-9629FD16792A";
name = Bold;
paths = (
{
closed = 1;
nodes = (
"870 214 LINE",
"870 335 LINE",
"58 335 LINE",
"58 214 LINE"
);
}
);
width = 928;
}
);
leftKerningGroup = hyphen;
rightKerningGroup = hyphen;
unicode = 2014;
},
{
color = 4;
glyphname = quoteleft;
lastChange = "2014-12-10 10:31:25 +0000";
layers = (
{
layerId = "23F2D7CD-FF69-4F10-BF0B-9629FD16792A";
name = Bold;
paths = (
{
closed = 1;
nodes = (
"123 730 LINE",
"219 730 LINE",
"146 474 LINE",
"11 474 LINE"
);
}
);
width = 246;
}
);
leftKerningGroup = quoteleft;
rightKerningGroup = quoteleft;
unicode = 2018;
},
{
color = 4;
glyphname = quoteright;
lastChange = "2014-12-10 10:31:25 +0000";
layers = (
{
layerId = "23F2D7CD-FF69-4F10-BF0B-9629FD16792A";
name = Bold;
paths = (
{
closed = 1;
nodes = (
"115 479 LINE",
"19 479 LINE",
"92 735 LINE",
"227 735 LINE"
);
}
);
width = 237;
}
);
leftKerningGroup = quoteright;
rightKerningGroup = quoteright;
unicode = 2019;
},
{
color = 4;
glyphname = quotesinglbase;
lastChange = "2014-12-10 10:28:03 +0000";
layers = (
{
layerId = "23F2D7CD-FF69-4F10-BF0B-9629FD16792A";
name = Bold;
paths = (
{
closed = 1;
nodes = (
"104 -140 LINE",
"8 -140 LINE",
"75 95 LINE",
"200 95 LINE"
);
}
);
width = 250;
}
);
leftKerningGroup = comma;
rightKerningGroup = comma;
unicode = 201A;
},
{
color = 4;
glyphname = quotedblleft;
lastChange = "2014-12-10 10:30:18 +0000";
layers = (
{
layerId = "23F2D7CD-FF69-4F10-BF0B-9629FD16792A";
name = Bold;
paths = (
{
closed = 1;
nodes = (
"123 730 LINE",
"219 730 LINE",
"146 474 LINE",
"11 474 LINE"
);
},
{
closed = 1;
nodes = (
"318 730 LINE",
"414 730 LINE",
"341 474 LINE",
"206 474 LINE"
);
}
);
width = 434;
}
);
leftKerningGroup = quoteleft;
rightKerningGroup = quoteleft;
unicode = 201C;
},
{
color = 4;
glyphname = quotedblright;
lastChange = "2014-12-10 10:29:47 +0000";
layers = (
{
layerId = "23F2D7CD-FF69-4F10-BF0B-9629FD16792A";
name = Bold;
paths = (
{
closed = 1;
nodes = (
"302 479 LINE",
"206 479 LINE",
"279 735 LINE",
"414 735 LINE"
);
},
{
closed = 1;
nodes = (
"107 479 LINE",
"11 479 LINE",
"84 735 LINE",
"219 735 LINE"
);
}
);
width = 425;
}
);
leftKerningGroup = quoteright;
rightKerningGroup = quoteright;
unicode = 201D;
},
{
color = 4;
glyphname = quotedblbase;
lastChange = "2014-12-10 10:29:47 +0000";
layers = (
{
layerId = "23F2D7CD-FF69-4F10-BF0B-9629FD16792A";
name = Bold;
paths = (
{
closed = 1;
nodes = (
"315 -131 LINE",
"219 -131 LINE",
"292 125 LINE",
"427 125 LINE"
);
},
{
closed = 1;
nodes = (
"120 -131 LINE",
"24 -131 LINE",
"97 125 LINE",
"232 125 LINE"
);
}
);
width = 432;
}
);
leftKerningGroup = comma;
rightKerningGroup = comma;
unicode = 201E;
},
{
glyphname = dagger;
layers = (
{
layerId = "23F2D7CD-FF69-4F10-BF0B-9629FD16792A";
name = Bold;
paths = (
{
closed = 1;
nodes = (
"294 -130 LINE",
"294 211 LINE",
"425 211 LINE",
"425 331 LINE",
"294 331 LINE",
"294 775 LINE",
"167 775 LINE",
"167 331 LINE",
"35 331 LINE",
"35 211 LINE",
"167 211 LINE",
"167 -130 LINE"
);
}
);
width = 461;
}
);
unicode = 2020;
},
{
glyphname = daggerdbl;
layers = (
{
layerId = "23F2D7CD-FF69-4F10-BF0B-9629FD16792A";
name = Bold;
paths = (
{
closed = 1;
nodes = (
"301 -130 LINE",
"301 102 LINE",
"432 102 LINE",
"432 222 LINE",
"301 222 LINE",
"301 334 LINE",
"432 334 LINE",
"432 455 LINE",
"301 455 LINE",
"301 775 LINE",
"174 775 LINE",
"174 455 LINE",
"42 455 LINE",
"42 334 LINE",
"174 334 LINE",
"174 222 LINE",
"42 222 LINE",
"42 102 LINE",
"174 102 LINE",
"174 -130 LINE"
);
}
);
width = 474;
}
);
unicode = 2021;
},
{
glyphname = bullet;
layers = (
{
layerId = "23F2D7CD-FF69-4F10-BF0B-9629FD16792A";
name = Bold;
paths = (
{
closed = 1;
nodes = (
"286 407 OFFCURVE",
"239 454 OFFCURVE",
"181 454 CURVE SMOOTH",
"124 454 OFFCURVE",
"77 407 OFFCURVE",
"77 350 CURVE SMOOTH",
"77 292 OFFCURVE",
"124 245 OFFCURVE",
"181 245 CURVE SMOOTH",
"239 245 OFFCURVE",
"286 292 OFFCURVE",
"286 350 CURVE SMOOTH"
);
}
);
width = 363;
}
);
unicode = 2022;
},
{
glyphname = ellipsis;
lastChange = "2014-12-10 10:25:47 +0000";
layers = (
{
layerId = "23F2D7CD-FF69-4F10-BF0B-9629FD16792A";
name = Bold;
paths = (
{
closed = 1;
nodes = (
"594 -9 OFFCURVE",
"634 30 OFFCURVE",
"634 74 CURVE",
"634 118 OFFCURVE",
"594 157 OFFCURVE",
"551 157 CURVE",
"507 157 OFFCURVE",
"468 118 OFFCURVE",
"468 74 CURVE",
"468 31 OFFCURVE",
"507 -9 OFFCURVE",
"551 -9 CURVE"
);
},
{
closed = 1;
nodes = (
"374 -9 OFFCURVE",
"414 30 OFFCURVE",
"414 74 CURVE",
"414 118 OFFCURVE",
"374 157 OFFCURVE",
"331 157 CURVE",
"287 157 OFFCURVE",
"248 118 OFFCURVE",
"248 74 CURVE",
"248 31 OFFCURVE",
"287 -9 OFFCURVE",
"331 -9 CURVE"
);
},
{
closed = 1;
nodes = (
"154 -9 OFFCURVE",
"194 30 OFFCURVE",
"194 74 CURVE",
"194 118 OFFCURVE",
"154 157 OFFCURVE",
"111 157 CURVE",
"67 157 OFFCURVE",
"28 118 OFFCURVE",
"28 74 CURVE",
"28 31 OFFCURVE",
"67 -9 OFFCURVE",
"111 -9 CURVE"
);
}
);
width = 660;
}
);
leftKerningGroup = comma;
unicode = 2026;
},
{
glyphname = perthousand;
layers = (
{
layerId = "23F2D7CD-FF69-4F10-BF0B-9629FD16792A";
name = Bold;
paths = (
{
closed = 1;
nodes = (
"297 417 OFFCURVE",
"369 484 OFFCURVE",
"369 569 CURVE SMOOTH",
"369 653 OFFCURVE",
"297 720 OFFCURVE",
"205 720 CURVE SMOOTH",
"113 720 OFFCURVE",
"40 653 OFFCURVE",
"40 569 CURVE SMOOTH",
"40 484 OFFCURVE",
"113 417 OFFCURVE",
"205 417 CURVE SMOOTH"
);
},
{
closed = 1;
nodes = (
"167 484 OFFCURVE",
"134 522 OFFCURVE",
"134 569 CURVE SMOOTH",
"134 614 OFFCURVE",
"165 653 OFFCURVE",
"205 653 CURVE SMOOTH",
"243 653 OFFCURVE",
"276 615 OFFCURVE",
"276 569 CURVE SMOOTH",
"276 523 OFFCURVE",
"244 484 OFFCURVE",
"205 484 CURVE SMOOTH"
);
},
{
closed = 1;
nodes = (
"683 -10 OFFCURVE",
"756 57 OFFCURVE",
"756 141 CURVE SMOOTH",
"756 226 OFFCURVE",
"683 293 OFFCURVE",
"591 293 CURVE SMOOTH",
"499 293 OFFCURVE",
"426 226 OFFCURVE",
"426 141 CURVE SMOOTH",
"426 57 OFFCURVE",
"499 -10 OFFCURVE",
"591 -10 CURVE SMOOTH"
);
},
{
closed = 1;
nodes = (
"552 57 OFFCURVE",
"520 95 OFFCURVE",
"520 141 CURVE SMOOTH",
"520 187 OFFCURVE",
"552 226 OFFCURVE",
"591 226 CURVE SMOOTH",
"629 226 OFFCURVE",
"662 188 OFFCURVE",
"662 141 CURVE SMOOTH",
"662 96 OFFCURVE",
"630 57 OFFCURVE",
"591 57 CURVE SMOOTH"
);
},
{
closed = 1;
nodes = (
"1064 -10 OFFCURVE",
"1137 57 OFFCURVE",
"1137 141 CURVE SMOOTH",
"1137 226 OFFCURVE",
"1064 293 OFFCURVE",
"972 293 CURVE SMOOTH",
"880 293 OFFCURVE",
"807 226 OFFCURVE",
"807 141 CURVE SMOOTH",
"807 57 OFFCURVE",
"880 -10 OFFCURVE",
"972 -10 CURVE SMOOTH"
);
},
{
closed = 1;
nodes = (
"934 57 OFFCURVE",
"901 95 OFFCURVE",
"901 141 CURVE SMOOTH",
"901 187 OFFCURVE",
"933 226 OFFCURVE",
"972 226 CURVE SMOOTH",
"1010 226 OFFCURVE",
"1043 188 OFFCURVE",
"1043 141 CURVE SMOOTH",
"1043 96 OFFCURVE",
"1011 57 OFFCURVE",
"972 57 CURVE SMOOTH"
);
},
{
closed = 1;
nodes = (
"157 -7 LINE",
"426 341 LINE",
"699 664 LINE",
"638 718 LINE",
"378 376 LINE",
"96 47 LINE"
);
}
);
width = 1169;
}
);
unicode = 2030;
},
{
glyphname = guilsinglleft;
layers = (
{
layerId = "23F2D7CD-FF69-4F10-BF0B-9629FD16792A";
name = Bold;
paths = (
{
closed = 1;
nodes = (
"35 223 LINE",
"299 46 LINE",
"299 156 LINE",
"142 259 LINE",
"299 368 LINE",
"299 477 LINE",
"35 288 LINE"
);
}
);
width = 358;
}
);
leftKerningGroup = guillemotleft;
rightKerningGroup = guillemotleft;
unicode = 2039;
},
{
glyphname = guilsinglright;
layers = (
{
layerId = "23F2D7CD-FF69-4F10-BF0B-9629FD16792A";
name = Bold;
paths = (
{
closed = 1;
nodes = (
"322 288 LINE",
"58 477 LINE",
"58 368 LINE",
"216 259 LINE",
"58 156 LINE",
"58 46 LINE",
"322 223 LINE"
);
}
);
width = 358;
}
);
leftKerningGroup = guillemotright;
rightKerningGroup = guillemotright;
unicode = 203A;
},
{
glyphname = zerosuperior;
layers = (
{
layerId = "23F2D7CD-FF69-4F10-BF0B-9629FD16792A";
name = Bold;
paths = (
{
closed = 1;
nodes = (
"375 388 OFFCURVE",
"455 498 OFFCURVE",
"455 601 CURVE SMOOTH",
"455 693 OFFCURVE",
"383 815 OFFCURVE",
"244 815 CURVE SMOOTH",
"113 815 OFFCURVE",
"31 702 OFFCURVE",
"31 601 CURVE SMOOTH",
"31 506 OFFCURVE",
"103 388 OFFCURVE",
"244 388 CURVE SMOOTH"
);
},
{
closed = 1;
nodes = (
"113 658 OFFCURVE",
"153 735 OFFCURVE",
"244 735 CURVE SMOOTH",
"329 735 OFFCURVE",
"374 664 OFFCURVE",
"374 601 CURVE SMOOTH",
"374 545 OFFCURVE",
"334 467 OFFCURVE",
"244 467 CURVE SMOOTH",
"157 467 OFFCURVE",
"113 539 OFFCURVE",
"113 601 CURVE SMOOTH"
);
}
);
width = 487;
}
);
unicode = 2070;
},
{
glyphname = foursuperior;
layers = (
{
layerId = "23F2D7CD-FF69-4F10-BF0B-9629FD16792A";
name = Bold;
paths = (
{
closed = 1;
nodes = (
"321 394 LINE",
"321 486 LINE",
"382 486 LINE",
"382 564 LINE",
"321 564 LINE",
"321 815 LINE",
"267 815 LINE",
"21 563 LINE",
"21 486 LINE",
"242 486 LINE",
"242 394 LINE"
);
},
{
closed = 1;
nodes = (
"245 717 LINE",
"245 564 LINE",
"98 564 LINE"
);
}
);
width = 410;
}
);
unicode = 2074;
},
{
glyphname = fivesuperior;
layers = (
{
layerId = "23F2D7CD-FF69-4F10-BF0B-9629FD16792A";
name = Bold;
paths = (
{
closed = 1;
nodes = (
"169 666 OFFCURVE",
"143 658 OFFCURVE",
"127 648 CURVE",
"152 736 LINE",
"336 736 LINE",
"336 815 LINE",
"94 815 LINE",
"83 750 OFFCURVE",
"50 634 OFFCURVE",
"37 561 CURVE",
"107 561 LINE",
"123 588 OFFCURVE",
"163 607 OFFCURVE",
"197 607 CURVE SMOOTH",
"238 607 OFFCURVE",
"286 583 OFFCURVE",
"286 534 CURVE SMOOTH",
"286 488 OFFCURVE",
"244 464 OFFCURVE",
"190 464 CURVE SMOOTH",
"140 464 OFFCURVE",
"98 482 OFFCURVE",
"72 512 CURVE",
"25 459 LINE",
"55 415 OFFCURVE",
"116 388 OFFCURVE",
"186 388 CURVE SMOOTH",
"289 388 OFFCURVE",
"367 446 OFFCURVE",
"367 531 CURVE SMOOTH",
"367 611 OFFCURVE",
"296 666 OFFCURVE",
"203 666 CURVE SMOOTH"
);
}
);
width = 394;
}
);
unicode = 2075;
},
{
glyphname = sixsuperior;
layers = (
{
layerId = "23F2D7CD-FF69-4F10-BF0B-9629FD16792A";
name = Bold;
paths = (
{
closed = 1;
nodes = (
"395 610 OFFCURVE",
"322 671 OFFCURVE",
"219 671 CURVE SMOOTH",
"177 671 OFFCURVE",
"128 656 OFFCURVE",
"108 630 CURVE",
"109 699 OFFCURVE",
"154 739 OFFCURVE",
"222 739 CURVE SMOOTH",
"266 739 OFFCURVE",
"308 722 OFFCURVE",
"328 695 CURVE",
"374 750 LINE",
"342 792 OFFCURVE",
"286 815 OFFCURVE",
"225 815 CURVE SMOOTH",
"108 815 OFFCURVE",
"34 731 OFFCURVE",
"34 580 CURVE SMOOTH",
"34 456 OFFCURVE",
"105 384 OFFCURVE",
"214 384 CURVE SMOOTH",
"317 384 OFFCURVE",
"395 448 OFFCURVE",
"395 531 CURVE SMOOTH"
);
},
{
closed = 1;
nodes = (
"160 457 OFFCURVE",
"111 491 OFFCURVE",
"111 531 CURVE SMOOTH",
"111 570 OFFCURVE",
"158 602 OFFCURVE",
"216 602 CURVE SMOOTH",
"273 602 OFFCURVE",
"320 570 OFFCURVE",
"320 530 CURVE SMOOTH",
"320 491 OFFCURVE",
"273 457 OFFCURVE",
"216 457 CURVE SMOOTH"
);
}
);
width = 423;
}
);
unicode = 2076;
},
{
glyphname = sevensuperior;
layers = (
{
layerId = "23F2D7CD-FF69-4F10-BF0B-9629FD16792A";
name = Bold;
paths = (
{
closed = 1;
nodes = (
"50 394 LINE",
"140 394 LINE",
"388 815 LINE",
"24 815 LINE",
"24 736 LINE",
"263 736 LINE"
);
}
);
width = 388;
}
);
unicode = 2077;
},
{
glyphname = eightsuperior;
layers = (
{
layerId = "23F2D7CD-FF69-4F10-BF0B-9629FD16792A";
name = Bold;
paths = (
{
closed = 1;
nodes = (
"388 566 OFFCURVE",
"352 599 OFFCURVE",
"302 619 CURVE",
"342 634 OFFCURVE",
"372 662 OFFCURVE",
"372 701 CURVE SMOOTH",
"372 770 OFFCURVE",
"287 815 OFFCURVE",
"210 815 CURVE SMOOTH",
"133 815 OFFCURVE",
"48 769 OFFCURVE",
"48 700 CURVE SMOOTH",
"48 659 OFFCURVE",
"81 633 OFFCURVE",
"117 619 CURVE",
"72 600 OFFCURVE",
"32 570 OFFCURVE",
"32 518 CURVE SMOOTH",
"32 445 OFFCURVE",
"110 388 OFFCURVE",
"210 388 CURVE SMOOTH",
"306 388 OFFCURVE",
"388 441 OFFCURVE",
"388 516 CURVE SMOOTH"
);
},
{
closed = 1;
nodes = (
"307 491 OFFCURVE",
"260 467 OFFCURVE",
"211 467 CURVE SMOOTH",
"164 467 OFFCURVE",
"112 489 OFFCURVE",
"112 525 CURVE SMOOTH",
"112 559 OFFCURVE",
"159 583 OFFCURVE",
"210 583 CURVE SMOOTH",
"258 583 OFFCURVE",
"307 561 OFFCURVE",
"307 525 CURVE SMOOTH"
);
},
{
closed = 1;
nodes = (
"128 721 OFFCURVE",
"166 738 OFFCURVE",
"210 738 CURVE SMOOTH",
"252 738 OFFCURVE",
"292 721 OFFCURVE",
"292 693 CURVE SMOOTH",
"292 665 OFFCURVE",
"248 648 OFFCURVE",
"210 648 CURVE SMOOTH",
"171 648 OFFCURVE",
"128 664 OFFCURVE",
"128 693 CURVE SMOOTH"
);
}
);
width = 420;
}
);
unicode = 2078;
},
{
glyphname = ninesuperior;
layers = (
{
layerId = "23F2D7CD-FF69-4F10-BF0B-9629FD16792A";
name = Bold;
paths = (
{
closed = 1;
nodes = (
"28 588 OFFCURVE",
"102 527 OFFCURVE",
"204 527 CURVE SMOOTH",
"247 527 OFFCURVE",
"295 542 OFFCURVE",
"316 568 CURVE",
"314 499 OFFCURVE",
"269 459 OFFCURVE",
"201 459 CURVE SMOOTH",
"156 459 OFFCURVE",
"116 476 OFFCURVE",
"95 503 CURVE",
"48 449 LINE",
"81 407 OFFCURVE",
"137 384 OFFCURVE",
"198 384 CURVE SMOOTH",
"316 384 OFFCURVE",
"389 467 OFFCURVE",
"389 617 CURVE SMOOTH",
"389 742 OFFCURVE",
"318 815 OFFCURVE",
"209 815 CURVE SMOOTH",
"106 815 OFFCURVE",
"28 750 OFFCURVE",
"28 667 CURVE SMOOTH"
);
},
{
closed = 1;
nodes = (
"264 741 OFFCURVE",
"311 707 OFFCURVE",
"311 667 CURVE SMOOTH",
"311 629 OFFCURVE",
"265 597 OFFCURVE",
"208 597 CURVE SMOOTH",
"151 597 OFFCURVE",
"104 629 OFFCURVE",
"104 668 CURVE SMOOTH",
"104 707 OFFCURVE",
"151 741 OFFCURVE",
"207 741 CURVE SMOOTH"
);
}
);
width = 423;
}
);
unicode = 2079;
},
{
glyphname = zeroinferior;
layers = (
{
layerId = "23F2D7CD-FF69-4F10-BF0B-9629FD16792A";
name = Bold;
paths = (
{
closed = 1;
nodes = (
"375 -90 OFFCURVE",
"455 21 OFFCURVE",
"455 123 CURVE SMOOTH",
"455 215 OFFCURVE",
"383 337 OFFCURVE",
"244 337 CURVE SMOOTH",
"113 337 OFFCURVE",
"31 225 OFFCURVE",
"31 123 CURVE SMOOTH",
"31 29 OFFCURVE",
"103 -90 OFFCURVE",
"244 -90 CURVE SMOOTH"
);
},
{
closed = 1;
nodes = (
"113 180 OFFCURVE",
"153 257 OFFCURVE",
"244 257 CURVE SMOOTH",
"329 257 OFFCURVE",
"374 186 OFFCURVE",
"374 123 CURVE SMOOTH",
"374 67 OFFCURVE",
"334 -11 OFFCURVE",
"244 -11 CURVE SMOOTH",
"157 -11 OFFCURVE",
"113 61 OFFCURVE",
"113 123 CURVE SMOOTH"
);
}
);
width = 487;
}
);
unicode = 2080;
},
{
color = 4;
glyphname = oneinferior;
lastChange = "2014-12-09 15:34:17 +0000";
layers = (
{
layerId = "23F2D7CD-FF69-4F10-BF0B-9629FD16792A";
name = Bold;
paths = (
{
closed = 1;
nodes = (
"225 -85 LINE",
"225 341 LINE",
"144 341 LINE",
"36 275 LINE",
"69 211 LINE",
"144 255 LINE",
"144 -85 LINE"
);
}
);
width = 332;
}
);
unicode = 2081;
},
{
glyphname = twoinferior;
layers = (
{
layerId = "23F2D7CD-FF69-4F10-BF0B-9629FD16792A";
name = Bold;
paths = (
{
closed = 1;
nodes = (
"384 -85 LINE",
"384 -7 LINE",
"140 -7 LINE",
"140 24 OFFCURVE",
"184 52 OFFCURVE",
"251 73 CURVE SMOOTH",
"304 89 OFFCURVE",
"383 122 OFFCURVE",
"383 208 CURVE SMOOTH",
"383 292 OFFCURVE",
"326 342 OFFCURVE",
"219 342 CURVE SMOOTH",
"119 342 OFFCURVE",
"54 300 OFFCURVE",
"33 273 CURVE",
"84 215 LINE",
"107 238 OFFCURVE",
"149 264 OFFCURVE",
"207 264 CURVE SMOOTH",
"262 264 OFFCURVE",
"293 245 OFFCURVE",
"293 209 CURVE SMOOTH",
"293 157 OFFCURVE",
"224 137 OFFCURVE",
"162 113 CURVE SMOOTH",
"63 74 OFFCURVE",
"30 25 OFFCURVE",
"30 -85 CURVE"
);
}
);
width = 421;
}
);
unicode = 2082;
},
{
glyphname = threeinferior;
layers = (
{
layerId = "23F2D7CD-FF69-4F10-BF0B-9629FD16792A";
name = Bold;
paths = (
{
closed = 1;
nodes = (
"284 -90 OFFCURVE",
"373 -53 OFFCURVE",
"373 29 CURVE SMOOTH",
"373 83 OFFCURVE",
"333 129 OFFCURVE",
"268 138 CURVE",
"327 148 OFFCURVE",
"363 180 OFFCURVE",
"363 227 CURVE SMOOTH",
"363 292 OFFCURVE",
"290 342 OFFCURVE",
"192 342 CURVE SMOOTH",
"126 342 OFFCURVE",
"59 321 OFFCURVE",
"29 283 CURVE",
"80 219 LINE",
"104 249 OFFCURVE",
"140 269 OFFCURVE",
"193 269 CURVE SMOOTH",
"232 269 OFFCURVE",
"278 254 OFFCURVE",
"278 222 CURVE SMOOTH",
"278 185 OFFCURVE",
"224 170 OFFCURVE",
"143 170 CURVE SMOOTH",
"120 170 LINE",
"120 98 LINE",
"144 98 LINE SMOOTH",
"236 98 OFFCURVE",
"292 79 OFFCURVE",
"292 41 CURVE SMOOTH",
"292 8 OFFCURVE",
"246 -10 OFFCURVE",
"190 -10 CURVE SMOOTH",
"126 -10 OFFCURVE",
"85 21 OFFCURVE",
"71 47 CURVE",
"28 -11 LINE",
"47 -62 OFFCURVE",
"109 -90 OFFCURVE",
"192 -90 CURVE SMOOTH"
);
}
);
width = 407;
}
);
unicode = 2083;
},
{
glyphname = fourinferior;
layers = (
{
layerId = "23F2D7CD-FF69-4F10-BF0B-9629FD16792A";
name = Bold;
paths = (
{
closed = 1;
nodes = (
"321 -84 LINE",
"321 8 LINE",
"382 8 LINE",
"382 86 LINE",
"321 86 LINE",
"321 337 LINE",
"267 337 LINE",
"21 86 LINE",
"21 8 LINE",
"242 8 LINE",
"242 -84 LINE"
);
},
{
closed = 1;
nodes = (
"245 240 LINE",
"245 86 LINE",
"98 86 LINE"
);
}
);
width = 409;
}
);
unicode = 2084;
},
{
glyphname = fiveinferior;
layers = (
{
layerId = "23F2D7CD-FF69-4F10-BF0B-9629FD16792A";
name = Bold;
paths = (
{
closed = 1;
nodes = (
"168 189 OFFCURVE",
"143 180 OFFCURVE",
"127 171 CURVE",
"151 258 LINE",
"336 258 LINE",
"336 337 LINE",
"93 337 LINE",
"82 272 OFFCURVE",
"50 156 OFFCURVE",
"36 84 CURVE",
"106 84 LINE",
"123 110 OFFCURVE",
"162 129 OFFCURVE",
"197 129 CURVE SMOOTH",
"238 129 OFFCURVE",
"285 106 OFFCURVE",
"285 57 CURVE SMOOTH",
"285 10 OFFCURVE",
"243 -14 OFFCURVE",
"190 -14 CURVE SMOOTH",
"140 -14 OFFCURVE",
"98 5 OFFCURVE",
"72 34 CURVE",
"24 -19 LINE",
"54 -62 OFFCURVE",
"115 -90 OFFCURVE",
"185 -90 CURVE SMOOTH",
"289 -90 OFFCURVE",
"367 -31 OFFCURVE",
"367 53 CURVE SMOOTH",
"367 133 OFFCURVE",
"296 189 OFFCURVE",
"203 189 CURVE SMOOTH"
);
}
);
width = 394;
}
);
unicode = 2085;
},
{
glyphname = sixinferior;
layers = (
{
layerId = "23F2D7CD-FF69-4F10-BF0B-9629FD16792A";
name = Bold;
paths = (
{
closed = 1;
nodes = (
"396 136 OFFCURVE",
"322 196 OFFCURVE",
"219 196 CURVE SMOOTH",
"177 196 OFFCURVE",
"129 182 OFFCURVE",
"108 156 CURVE",
"110 225 OFFCURVE",
"155 265 OFFCURVE",
"223 265 CURVE SMOOTH",
"267 265 OFFCURVE",
"308 248 OFFCURVE",
"329 221 CURVE",
"375 276 LINE",
"342 318 OFFCURVE",
"287 340 OFFCURVE",
"226 340 CURVE SMOOTH",
"109 340 OFFCURVE",
"34 257 OFFCURVE",
"34 107 CURVE SMOOTH",
"34 -18 OFFCURVE",
"105 -90 OFFCURVE",
"215 -90 CURVE SMOOTH",
"318 -90 OFFCURVE",
"396 -25 OFFCURVE",
"396 56 CURVE SMOOTH"
);
},
{
closed = 1;
nodes = (
"161 -17 OFFCURVE",
"112 16 OFFCURVE",
"112 56 CURVE SMOOTH",
"112 96 OFFCURVE",
"159 128 OFFCURVE",
"216 128 CURVE SMOOTH",
"274 128 OFFCURVE",
"320 96 OFFCURVE",
"320 56 CURVE SMOOTH",
"320 16 OFFCURVE",
"273 -17 OFFCURVE",
"217 -17 CURVE SMOOTH"
);
}
);
width = 424;
}
);
unicode = 2086;
},
{
glyphname = seveninferior;
layers = (
{
layerId = "23F2D7CD-FF69-4F10-BF0B-9629FD16792A";
name = Bold;
paths = (
{
closed = 1;
nodes = (
"50 -84 LINE",
"140 -84 LINE",
"388 337 LINE",
"24 337 LINE",
"24 258 LINE",
"263 258 LINE"
);
}
);
width = 389;
}
);
unicode = 2087;
},
{
glyphname = eightinferior;
layers = (
{
layerId = "23F2D7CD-FF69-4F10-BF0B-9629FD16792A";
name = Bold;
paths = (
{
closed = 1;
nodes = (
"388 88 OFFCURVE",
"352 120 OFFCURVE",
"302 141 CURVE",
"342 156 OFFCURVE",
"372 184 OFFCURVE",
"372 224 CURVE SMOOTH",
"372 292 OFFCURVE",
"287 337 OFFCURVE",
"210 337 CURVE SMOOTH",
"133 337 OFFCURVE",
"48 291 OFFCURVE",
"48 222 CURVE SMOOTH",
"48 181 OFFCURVE",
"81 155 OFFCURVE",
"117 141 CURVE",
"72 122 OFFCURVE",
"32 93 OFFCURVE",
"32 41 CURVE SMOOTH",
"32 -33 OFFCURVE",
"110 -90 OFFCURVE",
"210 -90 CURVE SMOOTH",
"306 -90 OFFCURVE",
"388 -36 OFFCURVE",
"388 39 CURVE SMOOTH"
);
},
{
closed = 1;
nodes = (
"307 13 OFFCURVE",
"260 -11 OFFCURVE",
"211 -11 CURVE SMOOTH",
"164 -11 OFFCURVE",
"112 11 OFFCURVE",
"112 47 CURVE SMOOTH",
"112 82 OFFCURVE",
"159 105 OFFCURVE",
"210 105 CURVE SMOOTH",
"258 105 OFFCURVE",
"307 83 OFFCURVE",
"307 47 CURVE SMOOTH"
);
},
{
closed = 1;
nodes = (
"128 243 OFFCURVE",
"166 260 OFFCURVE",
"210 260 CURVE SMOOTH",
"252 260 OFFCURVE",
"292 243 OFFCURVE",
"292 216 CURVE SMOOTH",
"292 187 OFFCURVE",
"248 170 OFFCURVE",
"210 170 CURVE SMOOTH",
"171 170 OFFCURVE",
"128 187 OFFCURVE",
"128 215 CURVE SMOOTH"
);
}
);
width = 420;
}
);
unicode = 2088;
},
{
glyphname = nineinferior;
layers = (
{
layerId = "23F2D7CD-FF69-4F10-BF0B-9629FD16792A";
name = Bold;
paths = (
{
closed = 1;
nodes = (
"29 114 OFFCURVE",
"103 53 OFFCURVE",
"204 53 CURVE SMOOTH",
"248 53 OFFCURVE",
"296 68 OFFCURVE",
"316 94 CURVE",
"315 25 OFFCURVE",
"269 -15 OFFCURVE",
"202 -15 CURVE SMOOTH",
"157 -15 OFFCURVE",
"116 2 OFFCURVE",
"96 30 CURVE",
"49 -25 LINE",
"82 -67 OFFCURVE",
"138 -90 OFFCURVE",
"199 -90 CURVE SMOOTH",
"316 -90 OFFCURVE",
"390 -7 OFFCURVE",
"390 143 CURVE SMOOTH",
"390 267 OFFCURVE",
"319 340 OFFCURVE",
"209 340 CURVE SMOOTH",
"107 340 OFFCURVE",
"29 276 OFFCURVE",
"29 194 CURVE SMOOTH"
);
},
{
closed = 1;
nodes = (
"264 267 OFFCURVE",
"312 233 OFFCURVE",
"312 194 CURVE SMOOTH",
"312 155 OFFCURVE",
"265 123 OFFCURVE",
"209 123 CURVE SMOOTH",
"152 123 OFFCURVE",
"105 155 OFFCURVE",
"105 194 CURVE SMOOTH",
"105 233 OFFCURVE",
"151 267 OFFCURVE",
"208 267 CURVE SMOOTH"
);
}
);
width = 425;
}
);
unicode = 2089;
},
{
glyphname = colonmonetary;
layers = (
{
layerId = "23F2D7CD-FF69-4F10-BF0B-9629FD16792A";
name = Bold;
paths = (
{
closed = 1;
nodes = (
"210 -120 LINE",
"272 -120 LINE",
"272 -8 LINE",
"283 -9 OFFCURVE",
"295 -10 OFFCURVE",
"308 -10 CURVE SMOOTH",
"316 -10 OFFCURVE",
"324 -9 OFFCURVE",
"332 -9 CURVE",
"332 -120 LINE",
"394 -120 LINE",
"394 1 LINE",
"466 22 OFFCURVE",
"519 68 OFFCURVE",
"546 126 CURVE",
"416 166 LINE",
"399 131 OFFCURVE",
"354 104 OFFCURVE",
"307 104 CURVE SMOOTH",
"231 104 OFFCURVE",
"169 170 OFFCURVE",
"169 262 CURVE SMOOTH",
"169 355 OFFCURVE",
"229 419 OFFCURVE",
"306 419 CURVE SMOOTH",
"352 419 OFFCURVE",
"391 397 OFFCURVE",
"414 359 CURVE",
"544 399 LINE",
"515 457 OFFCURVE",
"463 501 OFFCURVE",
"394 521 CURVE",
"394 645 LINE",
"332 645 LINE",
"332 532 LINE",
"324 532 OFFCURVE",
"316 533 OFFCURVE",
"308 533 CURVE SMOOTH",
"295 533 OFFCURVE",
"283 532 OFFCURVE",
"272 531 CURVE",
"272 645 LINE",
"210 645 LINE",
"210 518 LINE",
"97 480 OFFCURVE",
"32 378 OFFCURVE",
"32 262 CURVE SMOOTH",
"32 147 OFFCURVE",
"98 44 OFFCURVE",
"210 6 CURVE"
);
}
);
width = 570;
}
);
unicode = 20A1;
},
{
glyphname = franc;
layers = (
{
layerId = "23F2D7CD-FF69-4F10-BF0B-9629FD16792A";
name = Bold;
paths = (
{
closed = 1;
nodes = (
"249 0 LINE",
"249 104 LINE",
"361 104 LINE",
"361 195 LINE",
"249 195 LINE",
"249 294 LINE",
"532 294 LINE",
"532 406 LINE",
"249 406 LINE",
"249 589 LINE",
"589 589 LINE",
"589 710 LINE",
"112 710 LINE",
"112 195 LINE",
"32 195 LINE",
"32 104 LINE",
"112 104 LINE",
"112 0 LINE"
);
}
);
width = 609;
}
);
unicode = 20A3;
},
{
glyphname = lira;
layers = (
{
layerId = "23F2D7CD-FF69-4F10-BF0B-9629FD16792A";
name = Bold;
paths = (
{
closed = 1;
nodes = (
"44 347 LINE",
"147 347 LINE",
"153 332 OFFCURVE",
"157 317 OFFCURVE",
"159 302 CURVE",
"44 302 LINE",
"44 219 LINE",
"153 219 LINE",
"139 173 OFFCURVE",
"106 129 OFFCURVE",
"56 87 CURVE",
"85 -8 LINE",
"127 5 OFFCURVE",
"177 14 OFFCURVE",
"212 14 CURVE SMOOTH",
"277 14 OFFCURVE",
"336 -15 OFFCURVE",
"397 -15 CURVE SMOOTH",
"436 -15 OFFCURVE",
"480 -3 OFFCURVE",
"512 15 CURVE",
"479 115 LINE",
"450 104 OFFCURVE",
"428 99 OFFCURVE",
"404 99 CURVE SMOOTH",
"359 99 OFFCURVE",
"317 116 OFFCURVE",
"269 116 CURVE SMOOTH",
"245 116 OFFCURVE",
"221 113 OFFCURVE",
"193 104 CURVE",
"233 146 OFFCURVE",
"257 182 OFFCURVE",
"269 219 CURVE",
"409 219 LINE",
"409 302 LINE",
"277 302 LINE",
"275 318 OFFCURVE",
"272 333 OFFCURVE",
"267 347 CURVE",
"409 347 LINE",
"409 430 LINE",
"231 430 LINE",
"215 463 OFFCURVE",
"200 493 OFFCURVE",
"200 524 CURVE SMOOTH",
"200 571 OFFCURVE",
"235 606 OFFCURVE",
"285 606 CURVE SMOOTH",
"333 606 OFFCURVE",
"390 574 OFFCURVE",
"423 528 CURVE",
"494 610 LINE",
"444 675 OFFCURVE",
"367 715 OFFCURVE",
"286 715 CURVE SMOOTH",
"172 715 OFFCURVE",
"80 636 OFFCURVE",
"80 537 CURVE SMOOTH",
"80 499 OFFCURVE",
"94 464 OFFCURVE",
"110 430 CURVE",
"44 430 LINE"
);
}
);
width = 533;
}
);
unicode = 20A4;
},
{
glyphname = uni20A6;
layers = (
{
layerId = "23F2D7CD-FF69-4F10-BF0B-9629FD16792A";
name = Bold;
paths = (
{
closed = 1;
nodes = (
"823 484 LINE",
"739 484 LINE",
"739 709 LINE",
"601 709 LINE",
"601 484 LINE",
"410 484 LINE",
"231 710 LINE",
"124 710 LINE",
"124 484 LINE",
"38 484 LINE",
"38 402 LINE",
"124 402 LINE",
"124 293 LINE",
"38 293 LINE",
"38 210 LINE",
"124 210 LINE",
"124 0 LINE",
"262 0 LINE",
"262 210 LINE",
"458 210 LINE",
"627 0 LINE",
"739 0 LINE",
"739 210 LINE",
"823 210 LINE",
"823 293 LINE",
"739 293 LINE",
"739 402 LINE",
"823 402 LINE"
);
},
{
closed = 1;
nodes = (
"262 402 LINE",
"304 402 LINE",
"392 293 LINE",
"262 293 LINE"
);
},
{
closed = 1;
nodes = (
"475 402 LINE",
"601 402 LINE",
"601 293 LINE",
"562 293 LINE"
);
}
);
width = 861;
}
);
unicode = 20A6;
},
{
glyphname = uni20A9;
layers = (
{
layerId = "23F2D7CD-FF69-4F10-BF0B-9629FD16792A";
name = Bold;
paths = (
{
closed = 1;
nodes = (
"40 213 LINE",
"248 213 LINE",
"335 0 LINE",
"451 0 LINE",
"574 298 LINE",
"697 0 LINE",
"813 0 LINE",
"899 213 LINE",
"1110 213 LINE",
"1110 296 LINE",
"933 296 LINE",
"969 384 LINE",
"1110 384 LINE",
"1110 466 LINE",
"1003 466 LINE",
"1102 710 LINE",
"952 710 LINE",
"863 466 LINE",
"691 466 LINE",
"782 708 LINE",
"654 708 LINE",
"574 473 LINE",
"494 708 LINE",
"367 708 LINE",
"456 466 LINE",
"285 466 LINE",
"196 710 LINE",
"48 710 LINE",
"146 466 LINE",
"40 466 LINE",
"40 384 LINE",
"179 384 LINE",
"215 296 LINE",
"40 296 LINE"
);
},
{
closed = 1;
nodes = (
"661 384 LINE",
"833 384 LINE",
"801 296 LINE",
"696 296 LINE"
);
},
{
closed = 1;
nodes = (
"315 384 LINE",
"485 384 LINE",
"451 296 LINE",
"347 296 LINE"
);
},
{
closed = 1;
nodes = (
"378 213 LINE",
"419 213 LINE",
"398 158 LINE"
);
},
{
closed = 1;
nodes = (
"729 213 LINE",
"771 213 LINE",
"751 158 LINE"
);
}
);
width = 1150;
}
);
unicode = 20A9;
},
{
glyphname = Euro;
layers = (
{
layerId = "23F2D7CD-FF69-4F10-BF0B-9629FD16792A";
name = Bold;
paths = (
{
closed = 1;
nodes = (
"77 441 LINE",
"47 367 LINE",
"117 367 LINE",
"117 360 LINE SMOOTH",
"117 345 OFFCURVE",
"118 330 OFFCURVE",
"120 316 CURVE",
"64 316 LINE",
"33 242 LINE",
"137 242 LINE",
"183 107 OFFCURVE",
"303 -6 OFFCURVE",
"461 -6 CURVE SMOOTH",
"576 -6 OFFCURVE",
"709 53 OFFCURVE",
"753 159 CURVE",
"640 224 LINE",
"607 147 OFFCURVE",
"530 116 OFFCURVE",
"465 116 CURVE SMOOTH",
"381 116 OFFCURVE",
"315 168 OFFCURVE",
"281 242 CURVE",
"464 242 LINE",
"494 316 LINE",
"260 316 LINE",
"258 329 OFFCURVE",
"257 342 OFFCURVE",
"257 356 CURVE SMOOTH",
"257 367 LINE",
"496 367 LINE",
"526 441 LINE",
"270 441 LINE",
"295 523 OFFCURVE",
"359 592 OFFCURVE",
"463 592 CURVE SMOOTH",
"526 592 OFFCURVE",
"601 566 OFFCURVE",
"637 486 CURVE",
"743 559 LINE",
"697 651 OFFCURVE",
"597 714 OFFCURVE",
"467 714 CURVE SMOOTH",
"280 714 OFFCURVE",
"159 585 OFFCURVE",
"126 441 CURVE"
);
}
);
width = 798;
}
);
unicode = 20AC;
},
{
glyphname = uni20B9;
layers = (
{
layerId = "23F2D7CD-FF69-4F10-BF0B-9629FD16792A";
name = Bold;
paths = (
{
closed = 1;
nodes = (
"498 559 LINE",
"382 559 LINE",
"372 583 OFFCURVE",
"358 606 OFFCURVE",
"341 627 CURVE",
"498 627 LINE",
"498 710 LINE",
"41 710 LINE",
"41 598 LINE",
"164 598 LINE SMOOTH",
"189 598 OFFCURVE",
"214 583 OFFCURVE",
"232 559 CURVE",
"41 559 LINE",
"41 477 LINE",
"259 477 LINE",
"259 404 OFFCURVE",
"221 350 OFFCURVE",
"169 350 CURVE SMOOTH",
"58 350 LINE",
"282 0 LINE",
"437 0 LINE",
"261 267 LINE",
"345 300 OFFCURVE",
"398 382 OFFCURVE",
"398 477 CURVE",
"498 477 LINE"
);
}
);
width = 535;
}
);
unicode = 20B9;
},
{
glyphname = uni2113;
layers = (
{
layerId = "23F2D7CD-FF69-4F10-BF0B-9629FD16792A";
name = Bold;
paths = (
{
closed = 1;
nodes = (
"177 91 OFFCURVE",
"154 114 OFFCURVE",
"154 153 CURVE SMOOTH",
"154 223 LINE",
"248 315 OFFCURVE",
"337 501 OFFCURVE",
"337 610 CURVE SMOOTH",
"337 687 OFFCURVE",
"283 740 OFFCURVE",
"202 740 CURVE SMOOTH",
"121 740 OFFCURVE",
"58 684 OFFCURVE",
"58 610 CURVE SMOOTH",
"58 103 LINE SMOOTH",
"58 34 OFFCURVE",
"103 -7 OFFCURVE",
"177 -7 CURVE SMOOTH",
"208 -7 OFFCURVE",
"253 2 OFFCURVE",
"282 14 CURVE",
"264 103 LINE",
"248 96 OFFCURVE",
"227 91 OFFCURVE",
"212 91 CURVE SMOOTH"
);
},
{
closed = 1;
nodes = (
"248 522 OFFCURVE",
"204 415 OFFCURVE",
"154 345 CURVE",
"154 592 LINE SMOOTH",
"154 628 OFFCURVE",
"175 653 OFFCURVE",
"203 653 CURVE SMOOTH",
"232 653 OFFCURVE",
"248 629 OFFCURVE",
"248 586 CURVE SMOOTH"
);
}
);
width = 329;
}
);
unicode = 2113;
},
{
glyphname = afii61352;
layers = (
{
layerId = "23F2D7CD-FF69-4F10-BF0B-9629FD16792A";
name = Bold;
paths = (
{
closed = 1;
nodes = (
"586 0 LINE",
"697 0 LINE",
"697 709 LINE",
"560 709 LINE",
"560 244 LINE",
"190 710 LINE",
"83 710 LINE",
"83 0 LINE",
"220 0 LINE",
"220 455 LINE"
);
},
{
closed = 1;
nodes = (
"1074 339 OFFCURVE",
"1143 427 OFFCURVE",
"1143 526 CURVE SMOOTH",
"1143 627 OFFCURVE",
"1073 713 OFFCURVE",
"957 713 CURVE SMOOTH",
"841 713 OFFCURVE",
"771 627 OFFCURVE",
"771 526 CURVE SMOOTH",
"771 427 OFFCURVE",
"840 339 OFFCURVE",
"957 339 CURVE SMOOTH"
);
},
{
closed = 1;
nodes = (
"870 586 OFFCURVE",
"908 628 OFFCURVE",
"957 628 CURVE SMOOTH",
"1006 628 OFFCURVE",
"1043 586 OFFCURVE",
"1043 526 CURVE SMOOTH",
"1043 466 OFFCURVE",
"1006 423 OFFCURVE",
"957 423 CURVE SMOOTH",
"908 423 OFFCURVE",
"870 466 OFFCURVE",
"870 525 CURVE SMOOTH"
);
}
);
width = 1155;
}
);
unicode = 2116;
},
{
glyphname = servicemark;
layers = (
{
layerId = "23F2D7CD-FF69-4F10-BF0B-9629FD16792A";
name = Bold;
paths = (
{
closed = 1;
nodes = (
"539 553 LINE",
"481 710 LINE",
"353 710 LINE",
"353 411 LINE",
"440 411 LINE",
"440 598 LINE",
"505 453 LINE",
"575 453 LINE",
"640 598 LINE",
"640 411 LINE",
"727 411 LINE",
"727 710 LINE",
"598 710 LINE"
);
},
{
closed = 1;
nodes = (
"301 682 LINE",
"263 703 OFFCURVE",
"222 715 OFFCURVE",
"179 715 CURVE SMOOTH",
"108 715 OFFCURVE",
"55 678 OFFCURVE",
"55 619 CURVE SMOOTH",
"55 568 OFFCURVE",
"88 547 OFFCURVE",
"164 528 CURVE SMOOTH",
"215 516 OFFCURVE",
"230 509 OFFCURVE",
"230 494 CURVE SMOOTH",
"230 482 OFFCURVE",
"215 475 OFFCURVE",
"186 475 CURVE SMOOTH",
"147 475 OFFCURVE",
"107 491 OFFCURVE",
"78 510 CURVE",
"43 446 LINE",
"81 422 OFFCURVE",
"136 407 OFFCURVE",
"187 407 CURVE SMOOTH",
"262 407 OFFCURVE",
"313 438 OFFCURVE",
"313 498 CURVE SMOOTH",
"313 553 OFFCURVE",
"277 578 OFFCURVE",
"196 593 CURVE SMOOTH",
"146 602 OFFCURVE",
"136 613 OFFCURVE",
"136 627 CURVE SMOOTH",
"136 640 OFFCURVE",
"151 648 OFFCURVE",
"179 648 CURVE SMOOTH",
"211 648 OFFCURVE",
"242 635 OFFCURVE",
"269 618 CURVE"
);
}
);
width = 790;
}
);
leftKerningGroup = servicemark;
rightKerningGroup = servicemark;
unicode = 2120;
},
{
glyphname = trademark;
layers = (
{
layerId = "23F2D7CD-FF69-4F10-BF0B-9629FD16792A";
name = Bold;
paths = (
{
closed = 1;
nodes = (
"339 712 LINE",
"62 712 LINE",
"62 625 LINE",
"157 625 LINE",
"157 411 LINE",
"244 411 LINE",
"244 625 LINE",
"339 625 LINE"
);
},
{
closed = 1;
nodes = (
"571 553 LINE",
"513 710 LINE",
"385 710 LINE",
"385 411 LINE",
"472 411 LINE",
"472 598 LINE",
"536 453 LINE",
"607 453 LINE",
"671 598 LINE",
"671 411 LINE",
"758 411 LINE",
"758 710 LINE",
"629 710 LINE"
);
}
);
width = 829;
}
);
leftKerningGroup = trademark;
unicode = 2122;
},
{
glyphname = Omega;
layers = (
{
layerId = "23F2D7CD-FF69-4F10-BF0B-9629FD16792A";
name = Bold;
paths = (
{
closed = 1;
nodes = (
"38 0 LINE",
"345 0 LINE",
"345 102 LINE",
"246 138 OFFCURVE",
"184 257 OFFCURVE",
"184 370 CURVE SMOOTH",
"184 480 OFFCURVE",
"261 592 OFFCURVE",
"387 592 CURVE SMOOTH",
"513 592 OFFCURVE",
"591 480 OFFCURVE",
"591 370 CURVE SMOOTH",
"591 257 OFFCURVE",
"528 138 OFFCURVE",
"430 102 CURVE",
"430 0 LINE",
"737 0 LINE",
"737 102 LINE",
"571 102 LINE",
"667 156 OFFCURVE",
"727 254 OFFCURVE",
"727 370 CURVE SMOOTH",
"727 551 OFFCURVE",
"581 715 OFFCURVE",
"387 715 CURVE SMOOTH",
"193 715 OFFCURVE",
"48 551 OFFCURVE",
"48 370 CURVE SMOOTH",
"48 254 OFFCURVE",
"107 156 OFFCURVE",
"203 102 CURVE",
"38 102 LINE"
);
}
);
width = 774;
}
);
leftKerningGroup = uni03A9;
rightKerningGroup = uni03A9;
unicode = 2126;
},
{
glyphname = estimated;
layers = (
{
layerId = "23F2D7CD-FF69-4F10-BF0B-9629FD16792A";
name = Bold;
paths = (
{
closed = 1;
nodes = (
"251 36 OFFCURVE",
"196 63 OFFCURVE",
"160 105 CURVE",
"160 246 LINE",
"585 246 LINE",
"585 406 OFFCURVE",
"473 533 OFFCURVE",
"310 533 CURVE SMOOTH",
"147 533 OFFCURVE",
"35 408 OFFCURVE",
"35 260 CURVE SMOOTH",
"35 115 OFFCURVE",
"145 -10 OFFCURVE",
"310 -10 CURVE SMOOTH",
"414 -10 OFFCURVE",
"487 26 OFFCURVE",
"536 73 CURVE",
"505 108 LINE",
"466 69 OFFCURVE",
"404 36 OFFCURVE",
"310 36 CURVE SMOOTH"
);
},
{
closed = 1;
nodes = (
"369 487 OFFCURVE",
"424 460 OFFCURVE",
"461 411 CURVE",
"461 295 LINE",
"160 295 LINE",
"160 412 LINE",
"196 460 OFFCURVE",
"251 487 OFFCURVE",
"310 487 CURVE SMOOTH"
);
}
);
width = 608;
}
);
unicode = 212E;
},
{
color = 4;
glyphname = onethird;
lastChange = "2014-12-09 15:34:32 +0000";
layers = (
{
components = (
{
name = onesuperior;
transform = "{1, 0, 0, 1, 10, -85}";
}
);
layerId = "23F2D7CD-FF69-4F10-BF0B-9629FD16792A";
name = Bold;
paths = (
{
closed = 1;
nodes = (
"196 -7 LINE",
"465 341 LINE",
"738 664 LINE",
"677 718 LINE",
"417 376 LINE",
"135 47 LINE"
);
},
{
closed = 1;
nodes = (
"834 -5 OFFCURVE",
"923 32 OFFCURVE",
"923 114 CURVE SMOOTH",
"923 168 OFFCURVE",
"883 213 OFFCURVE",
"818 222 CURVE",
"877 233 OFFCURVE",
"913 264 OFFCURVE",
"913 312 CURVE SMOOTH",
"913 377 OFFCURVE",
"840 427 OFFCURVE",
"742 427 CURVE SMOOTH",
"676 427 OFFCURVE",
"609 406 OFFCURVE",
"579 367 CURVE",
"630 304 LINE",
"654 333 OFFCURVE",
"690 353 OFFCURVE",
"743 353 CURVE SMOOTH",
"782 353 OFFCURVE",
"828 338 OFFCURVE",
"828 306 CURVE SMOOTH",
"828 270 OFFCURVE",
"774 254 OFFCURVE",
"693 254 CURVE SMOOTH",
"670 254 LINE",
"670 182 LINE",
"694 182 LINE SMOOTH",
"786 182 OFFCURVE",
"842 164 OFFCURVE",
"842 126 CURVE SMOOTH",
"842 92 OFFCURVE",
"796 74 OFFCURVE",
"740 74 CURVE SMOOTH",
"676 74 OFFCURVE",
"635 106 OFFCURVE",
"621 132 CURVE",
"578 74 LINE",
"597 22 OFFCURVE",
"659 -5 OFFCURVE",
"742 -5 CURVE SMOOTH"
);
}
);
width = 958;
}
);
unicode = 2153;
},
{
glyphname = three.denominator;
layers = (
{
layerId = "23F2D7CD-FF69-4F10-BF0B-9629FD16792A";
name = Bold;
paths = (
{
closed = 1;
nodes = (
"284 -5 OFFCURVE",
"373 32 OFFCURVE",
"373 114 CURVE SMOOTH",
"373 168 OFFCURVE",
"333 213 OFFCURVE",
"268 222 CURVE",
"327 233 OFFCURVE",
"363 264 OFFCURVE",
"363 312 CURVE SMOOTH",
"363 377 OFFCURVE",
"290 427 OFFCURVE",
"192 427 CURVE SMOOTH",
"126 427 OFFCURVE",
"59 406 OFFCURVE",
"29 367 CURVE",
"80 304 LINE",
"104 333 OFFCURVE",
"140 353 OFFCURVE",
"193 353 CURVE SMOOTH",
"232 353 OFFCURVE",
"278 338 OFFCURVE",
"278 306 CURVE SMOOTH",
"278 270 OFFCURVE",
"224 254 OFFCURVE",
"143 254 CURVE SMOOTH",
"120 254 LINE",
"120 182 LINE",
"144 182 LINE SMOOTH",
"236 182 OFFCURVE",
"292 164 OFFCURVE",
"292 126 CURVE SMOOTH",
"292 92 OFFCURVE",
"246 74 OFFCURVE",
"190 74 CURVE SMOOTH",
"126 74 OFFCURVE",
"85 106 OFFCURVE",
"71 132 CURVE",
"28 74 LINE",
"47 22 OFFCURVE",
"109 -5 OFFCURVE",
"192 -5 CURVE SMOOTH"
);
}
);
width = 407;
}
);
},
{
glyphname = twothirds;
layers = (
{
layerId = "23F2D7CD-FF69-4F10-BF0B-9629FD16792A";
name = Bold;
paths = (
{
closed = 1;
nodes = (
"375 305 LINE",
"375 383 LINE",
"168 383 LINE",
"168 414 OFFCURVE",
"191 444 OFFCURVE",
"257 464 CURVE SMOOTH",
"308 480 OFFCURVE",
"387 511 OFFCURVE",
"387 598 CURVE SMOOTH",
"387 681 OFFCURVE",
"331 731 OFFCURVE",
"226 731 CURVE SMOOTH",
"128 731 OFFCURVE",
"64 689 OFFCURVE",
"43 662 CURVE",
"93 605 LINE",
"116 627 OFFCURVE",
"157 654 OFFCURVE",
"214 654 CURVE SMOOTH",
"268 654 OFFCURVE",
"298 634 OFFCURVE",
"298 599 CURVE SMOOTH",
"298 547 OFFCURVE",
"230 528 OFFCURVE",
"169 503 CURVE SMOOTH",
"74 463 OFFCURVE",
"40 414 OFFCURVE",
"40 305 CURVE"
);
},
{
closed = 1;
nodes = (
"263 -7 LINE",
"532 341 LINE",
"805 664 LINE",
"744 718 LINE",
"484 376 LINE",
"202 47 LINE"
);
},
{
closed = 1;
nodes = (
"860 -5 OFFCURVE",
"949 32 OFFCURVE",
"949 114 CURVE SMOOTH",
"949 168 OFFCURVE",
"909 213 OFFCURVE",
"844 222 CURVE",
"903 233 OFFCURVE",
"939 264 OFFCURVE",
"939 312 CURVE SMOOTH",
"939 377 OFFCURVE",
"866 427 OFFCURVE",
"768 427 CURVE SMOOTH",
"702 427 OFFCURVE",
"635 406 OFFCURVE",
"605 367 CURVE",
"656 304 LINE",
"680 333 OFFCURVE",
"716 353 OFFCURVE",
"769 353 CURVE SMOOTH",
"808 353 OFFCURVE",
"854 338 OFFCURVE",
"854 306 CURVE SMOOTH",
"854 270 OFFCURVE",
"800 254 OFFCURVE",
"719 254 CURVE SMOOTH",
"696 254 LINE",
"696 182 LINE",
"720 182 LINE SMOOTH",
"812 182 OFFCURVE",
"868 164 OFFCURVE",
"868 126 CURVE SMOOTH",
"868 92 OFFCURVE",
"822 74 OFFCURVE",
"766 74 CURVE SMOOTH",
"702 74 OFFCURVE",
"661 106 OFFCURVE",
"647 132 CURVE",
"604 74 LINE",
"623 22 OFFCURVE",
"685 -5 OFFCURVE",
"768 -5 CURVE SMOOTH"
);
}
);
width = 984;
}
);
unicode = 2154;
},
{
glyphname = two.numerator;
layers = (
{
layerId = "23F2D7CD-FF69-4F10-BF0B-9629FD16792A";
name = Bold;
paths = (
{
closed = 1;
nodes = (
"371 305 LINE",
"371 383 LINE",
"160 383 LINE",
"160 414 OFFCURVE",
"184 444 OFFCURVE",
"251 464 CURVE SMOOTH",
"303 480 OFFCURVE",
"383 511 OFFCURVE",
"383 598 CURVE SMOOTH",
"383 681 OFFCURVE",
"326 731 OFFCURVE",
"219 731 CURVE SMOOTH",
"119 731 OFFCURVE",
"54 689 OFFCURVE",
"33 662 CURVE",
"84 605 LINE",
"107 627 OFFCURVE",
"149 654 OFFCURVE",
"207 654 CURVE SMOOTH",
"262 654 OFFCURVE",
"293 634 OFFCURVE",
"293 599 CURVE SMOOTH",
"293 547 OFFCURVE",
"223 528 OFFCURVE",
"161 503 CURVE SMOOTH",
"64 463 OFFCURVE",
"30 414 OFFCURVE",
"30 305 CURVE"
);
}
);
width = 416;
}
);
},
{
color = 4;
glyphname = oneeighth;
lastChange = "2014-12-09 15:34:46 +0000";
layers = (
{
components = (
{
name = onesuperior;
transform = "{1, 0, 0, 1, 11, -85}";
}
);
layerId = "23F2D7CD-FF69-4F10-BF0B-9629FD16792A";
name = Bold;
paths = (
{
closed = 1;
nodes = (
"209 -7 LINE",
"478 341 LINE",
"751 664 LINE",
"690 718 LINE",
"430 376 LINE",
"148 47 LINE"
);
},
{
closed = 1;
nodes = (
"920 173 OFFCURVE",
"884 205 OFFCURVE",
"834 226 CURVE",
"874 241 OFFCURVE",
"904 269 OFFCURVE",
"904 308 CURVE SMOOTH",
"904 376 OFFCURVE",
"819 421 OFFCURVE",
"742 421 CURVE SMOOTH",
"665 421 OFFCURVE",
"580 375 OFFCURVE",
"580 307 CURVE SMOOTH",
"580 266 OFFCURVE",
"613 240 OFFCURVE",
"649 226 CURVE",
"604 206 OFFCURVE",
"564 177 OFFCURVE",
"564 125 CURVE SMOOTH",
"564 52 OFFCURVE",
"642 -5 OFFCURVE",
"742 -5 CURVE SMOOTH",
"838 -5 OFFCURVE",
"920 48 OFFCURVE",
"920 123 CURVE SMOOTH"
);
},
{
closed = 1;
nodes = (
"839 97 OFFCURVE",
"792 74 OFFCURVE",
"743 74 CURVE SMOOTH",
"696 74 OFFCURVE",
"644 96 OFFCURVE",
"644 131 CURVE SMOOTH",
"644 166 OFFCURVE",
"691 190 OFFCURVE",
"742 190 CURVE SMOOTH",
"790 190 OFFCURVE",
"839 168 OFFCURVE",
"839 132 CURVE SMOOTH"
);
},
{
closed = 1;
nodes = (
"660 327 OFFCURVE",
"698 345 OFFCURVE",
"742 345 CURVE SMOOTH",
"784 345 OFFCURVE",
"824 327 OFFCURVE",
"824 300 CURVE SMOOTH",
"824 272 OFFCURVE",
"780 255 OFFCURVE",
"742 255 CURVE SMOOTH",
"703 255 OFFCURVE",
"660 271 OFFCURVE",
"660 300 CURVE SMOOTH"
);
}
);
width = 954;
}
);
unicode = 215B;
},
{
glyphname = eight.denominator;
layers = (
{
layerId = "23F2D7CD-FF69-4F10-BF0B-9629FD16792A";
name = Bold;
paths = (
{
closed = 1;
nodes = (
"388 173 OFFCURVE",
"352 205 OFFCURVE",
"302 226 CURVE",
"342 241 OFFCURVE",
"372 269 OFFCURVE",
"372 308 CURVE SMOOTH",
"372 376 OFFCURVE",
"287 421 OFFCURVE",
"210 421 CURVE SMOOTH",
"133 421 OFFCURVE",
"48 375 OFFCURVE",
"48 307 CURVE SMOOTH",
"48 266 OFFCURVE",
"81 240 OFFCURVE",
"117 226 CURVE",
"72 206 OFFCURVE",
"32 177 OFFCURVE",
"32 125 CURVE SMOOTH",
"32 52 OFFCURVE",
"110 -5 OFFCURVE",
"210 -5 CURVE SMOOTH",
"306 -5 OFFCURVE",
"388 48 OFFCURVE",
"388 123 CURVE SMOOTH"
);
},
{
closed = 1;
nodes = (
"307 97 OFFCURVE",
"260 74 OFFCURVE",
"211 74 CURVE SMOOTH",
"164 74 OFFCURVE",
"112 96 OFFCURVE",
"112 131 CURVE SMOOTH",
"112 166 OFFCURVE",
"159 190 OFFCURVE",
"210 190 CURVE SMOOTH",
"258 190 OFFCURVE",
"307 168 OFFCURVE",
"307 132 CURVE SMOOTH"
);
},
{
closed = 1;
nodes = (
"128 327 OFFCURVE",
"166 345 OFFCURVE",
"210 345 CURVE SMOOTH",
"252 345 OFFCURVE",
"292 327 OFFCURVE",
"292 300 CURVE SMOOTH",
"292 272 OFFCURVE",
"248 255 OFFCURVE",
"210 255 CURVE SMOOTH",
"171 255 OFFCURVE",
"128 271 OFFCURVE",
"128 300 CURVE SMOOTH"
);
}
);
width = 420;
}
);
},
{
glyphname = threeeighths;
layers = (
{
layerId = "23F2D7CD-FF69-4F10-BF0B-9629FD16792A";
name = Bold;
paths = (
{
closed = 1;
nodes = (
"296 298 OFFCURVE",
"385 336 OFFCURVE",
"385 418 CURVE SMOOTH",
"385 472 OFFCURVE",
"345 517 OFFCURVE",
"280 526 CURVE",
"339 537 OFFCURVE",
"375 568 OFFCURVE",
"375 615 CURVE SMOOTH",
"375 681 OFFCURVE",
"302 731 OFFCURVE",
"204 731 CURVE SMOOTH",
"138 731 OFFCURVE",
"71 710 OFFCURVE",
"41 672 CURVE",
"92 608 LINE",
"116 637 OFFCURVE",
"152 657 OFFCURVE",
"205 657 CURVE SMOOTH",
"244 657 OFFCURVE",
"290 642 OFFCURVE",
"290 611 CURVE SMOOTH",
"290 574 OFFCURVE",
"236 559 OFFCURVE",
"155 559 CURVE SMOOTH",
"132 559 LINE",
"132 486 LINE",
"156 486 LINE SMOOTH",
"248 486 OFFCURVE",
"304 468 OFFCURVE",
"304 430 CURVE SMOOTH",
"304 396 OFFCURVE",
"258 379 OFFCURVE",
"202 379 CURVE SMOOTH",
"138 379 OFFCURVE",
"97 410 OFFCURVE",
"83 436 CURVE",
"40 377 LINE",
"59 326 OFFCURVE",
"121 298 OFFCURVE",
"204 298 CURVE SMOOTH"
);
},
{
closed = 1;
nodes = (
"241 -7 LINE",
"510 341 LINE",
"783 664 LINE",
"722 718 LINE",
"462 376 LINE",
"180 47 LINE"
);
},
{
closed = 1;
nodes = (
"929 173 OFFCURVE",
"893 205 OFFCURVE",
"843 226 CURVE",
"883 241 OFFCURVE",
"913 269 OFFCURVE",
"913 308 CURVE SMOOTH",
"913 376 OFFCURVE",
"828 421 OFFCURVE",
"751 421 CURVE SMOOTH",
"674 421 OFFCURVE",
"589 375 OFFCURVE",
"589 307 CURVE SMOOTH",
"589 266 OFFCURVE",
"622 240 OFFCURVE",
"658 226 CURVE",
"613 206 OFFCURVE",
"573 177 OFFCURVE",
"573 125 CURVE SMOOTH",
"573 52 OFFCURVE",
"651 -5 OFFCURVE",
"751 -5 CURVE SMOOTH",
"847 -5 OFFCURVE",
"929 48 OFFCURVE",
"929 123 CURVE SMOOTH"
);
},
{
closed = 1;
nodes = (
"848 97 OFFCURVE",
"801 74 OFFCURVE",
"752 74 CURVE SMOOTH",
"705 74 OFFCURVE",
"653 96 OFFCURVE",
"653 131 CURVE SMOOTH",
"653 166 OFFCURVE",
"700 190 OFFCURVE",
"751 190 CURVE SMOOTH",
"799 190 OFFCURVE",
"848 168 OFFCURVE",
"848 132 CURVE SMOOTH"
);
},
{
closed = 1;
nodes = (
"669 327 OFFCURVE",
"707 345 OFFCURVE",
"751 345 CURVE SMOOTH",
"793 345 OFFCURVE",
"833 327 OFFCURVE",
"833 300 CURVE SMOOTH",
"833 272 OFFCURVE",
"789 255 OFFCURVE",
"751 255 CURVE SMOOTH",
"712 255 OFFCURVE",
"669 271 OFFCURVE",
"669 300 CURVE SMOOTH"
);
}
);
width = 963;
}
);
unicode = 215C;
},
{
glyphname = fiveeighths;
layers = (
{
layerId = "23F2D7CD-FF69-4F10-BF0B-9629FD16792A";
name = Bold;
paths = (
{
closed = 1;
nodes = (
"177 582 OFFCURVE",
"152 574 OFFCURVE",
"136 564 CURVE",
"160 651 LINE",
"345 651 LINE",
"345 730 LINE",
"102 730 LINE",
"91 665 OFFCURVE",
"59 549 OFFCURVE",
"45 477 CURVE",
"115 477 LINE",
"132 504 OFFCURVE",
"171 522 OFFCURVE",
"206 522 CURVE SMOOTH",
"247 522 OFFCURVE",
"294 499 OFFCURVE",
"294 450 CURVE SMOOTH",
"294 403 OFFCURVE",
"252 380 OFFCURVE",
"199 380 CURVE SMOOTH",
"149 380 OFFCURVE",
"107 398 OFFCURVE",
"81 428 CURVE",
"33 375 LINE",
"63 331 OFFCURVE",
"124 303 OFFCURVE",
"194 303 CURVE SMOOTH",
"298 303 OFFCURVE",
"376 362 OFFCURVE",
"376 446 CURVE SMOOTH",
"376 526 OFFCURVE",
"305 582 OFFCURVE",
"212 582 CURVE SMOOTH"
);
},
{
closed = 1;
nodes = (
"241 -7 LINE",
"510 341 LINE",
"783 664 LINE",
"722 718 LINE",
"462 376 LINE",
"180 47 LINE"
);
},
{
closed = 1;
nodes = (
"942 173 OFFCURVE",
"906 205 OFFCURVE",
"856 226 CURVE",
"896 241 OFFCURVE",
"926 269 OFFCURVE",
"926 308 CURVE SMOOTH",
"926 376 OFFCURVE",
"841 421 OFFCURVE",
"764 421 CURVE SMOOTH",
"687 421 OFFCURVE",
"602 375 OFFCURVE",
"602 307 CURVE SMOOTH",
"602 266 OFFCURVE",
"635 240 OFFCURVE",
"671 226 CURVE",
"626 206 OFFCURVE",
"586 177 OFFCURVE",
"586 125 CURVE SMOOTH",
"586 52 OFFCURVE",
"664 -5 OFFCURVE",
"764 -5 CURVE SMOOTH",
"860 -5 OFFCURVE",
"942 48 OFFCURVE",
"942 123 CURVE SMOOTH"
);
},
{
closed = 1;
nodes = (
"861 97 OFFCURVE",
"814 74 OFFCURVE",
"765 74 CURVE SMOOTH",
"718 74 OFFCURVE",
"666 96 OFFCURVE",
"666 131 CURVE SMOOTH",
"666 166 OFFCURVE",
"713 190 OFFCURVE",
"764 190 CURVE SMOOTH",
"812 190 OFFCURVE",
"861 168 OFFCURVE",
"861 132 CURVE SMOOTH"
);
},
{
closed = 1;
nodes = (
"682 327 OFFCURVE",
"720 345 OFFCURVE",
"764 345 CURVE SMOOTH",
"806 345 OFFCURVE",
"846 327 OFFCURVE",
"846 300 CURVE SMOOTH",
"846 272 OFFCURVE",
"802 255 OFFCURVE",
"764 255 CURVE SMOOTH",
"725 255 OFFCURVE",
"682 271 OFFCURVE",
"682 300 CURVE SMOOTH"
);
}
);
width = 976;
}
);
unicode = 215D;
},
{
glyphname = five.numerator;
layers = (
{
layerId = "23F2D7CD-FF69-4F10-BF0B-9629FD16792A";
name = Bold;
paths = (
{
closed = 1;
nodes = (
"168 582 OFFCURVE",
"143 574 OFFCURVE",
"127 564 CURVE",
"151 651 LINE",
"336 651 LINE",
"336 730 LINE",
"93 730 LINE",
"82 665 OFFCURVE",
"50 549 OFFCURVE",
"36 477 CURVE",
"106 477 LINE",
"123 504 OFFCURVE",
"162 522 OFFCURVE",
"197 522 CURVE SMOOTH",
"238 522 OFFCURVE",
"285 499 OFFCURVE",
"285 450 CURVE SMOOTH",
"285 403 OFFCURVE",
"243 380 OFFCURVE",
"190 380 CURVE SMOOTH",
"140 380 OFFCURVE",
"98 398 OFFCURVE",
"72 428 CURVE",
"24 375 LINE",
"54 331 OFFCURVE",
"115 303 OFFCURVE",
"185 303 CURVE SMOOTH",
"289 303 OFFCURVE",
"367 362 OFFCURVE",
"367 446 CURVE SMOOTH",
"367 526 OFFCURVE",
"296 582 OFFCURVE",
"203 582 CURVE SMOOTH"
);
}
);
width = 394;
}
);
},
{
glyphname = seveneighths;
layers = (
{
layerId = "23F2D7CD-FF69-4F10-BF0B-9629FD16792A";
name = Bold;
paths = (
{
closed = 1;
nodes = (
"155 -7 LINE",
"424 341 LINE",
"697 664 LINE",
"636 718 LINE",
"376 376 LINE",
"94 47 LINE"
);
},
{
closed = 1;
nodes = (
"893 173 OFFCURVE",
"857 205 OFFCURVE",
"807 226 CURVE",
"847 241 OFFCURVE",
"877 269 OFFCURVE",
"877 308 CURVE SMOOTH",
"877 376 OFFCURVE",
"792 421 OFFCURVE",
"715 421 CURVE SMOOTH",
"638 421 OFFCURVE",
"553 375 OFFCURVE",
"553 307 CURVE SMOOTH",
"553 266 OFFCURVE",
"586 240 OFFCURVE",
"622 226 CURVE",
"577 206 OFFCURVE",
"537 177 OFFCURVE",
"537 125 CURVE SMOOTH",
"537 52 OFFCURVE",
"615 -5 OFFCURVE",
"715 -5 CURVE SMOOTH",
"811 -5 OFFCURVE",
"893 48 OFFCURVE",
"893 123 CURVE SMOOTH"
);
},
{
closed = 1;
nodes = (
"812 97 OFFCURVE",
"765 74 OFFCURVE",
"716 74 CURVE SMOOTH",
"669 74 OFFCURVE",
"617 96 OFFCURVE",
"617 131 CURVE SMOOTH",
"617 166 OFFCURVE",
"664 190 OFFCURVE",
"715 190 CURVE SMOOTH",
"763 190 OFFCURVE",
"812 168 OFFCURVE",
"812 132 CURVE SMOOTH"
);
},
{
closed = 1;
nodes = (
"633 327 OFFCURVE",
"671 345 OFFCURVE",
"715 345 CURVE SMOOTH",
"757 345 OFFCURVE",
"797 327 OFFCURVE",
"797 300 CURVE SMOOTH",
"797 272 OFFCURVE",
"753 255 OFFCURVE",
"715 255 CURVE SMOOTH",
"676 255 OFFCURVE",
"633 271 OFFCURVE",
"633 300 CURVE SMOOTH"
);
},
{
closed = 1;
nodes = (
"66 310 LINE",
"156 310 LINE",
"404 730 LINE",
"40 730 LINE",
"40 651 LINE",
"279 651 LINE"
);
}
);
width = 928;
}
);
unicode = 215E;
},
{
glyphname = seven.numerator;
layers = (
{
layerId = "23F2D7CD-FF69-4F10-BF0B-9629FD16792A";
name = Bold;
paths = (
{
closed = 1;
nodes = (
"50 310 LINE",
"140 310 LINE",
"388 730 LINE",
"24 730 LINE",
"24 651 LINE",
"263 651 LINE"
);
}
);
width = 389;
}
);
},
{
glyphname = partialdiff;
layers = (
{
layerId = "23F2D7CD-FF69-4F10-BF0B-9629FD16792A";
name = Bold;
paths = (
{
closed = 1;
nodes = (
"420 -10 OFFCURVE",
"531 135 OFFCURVE",
"531 390 CURVE SMOOTH",
"531 610 OFFCURVE",
"447 715 OFFCURVE",
"295 715 CURVE SMOOTH",
"217 715 OFFCURVE",
"144 688 OFFCURVE",
"94 641 CURVE",
"168 563 LINE",
"193 588 OFFCURVE",
"242 604 OFFCURVE",
"284 604 CURVE SMOOTH",
"364 604 OFFCURVE",
"408 549 OFFCURVE",
"408 406 CURVE SMOOTH",
"408 395 OFFCURVE",
"407 383 OFFCURVE",
"407 371 CURVE",
"385 413 OFFCURVE",
"337 438 OFFCURVE",
"275 438 CURVE SMOOTH",
"141 438 OFFCURVE",
"19 331 OFFCURVE",
"19 200 CURVE SMOOTH",
"19 81 OFFCURVE",
"116 -10 OFFCURVE",
"250 -10 CURVE SMOOTH"
);
},
{
closed = 1;
nodes = (
"196 94 OFFCURVE",
"147 144 OFFCURVE",
"147 207 CURVE SMOOTH",
"147 278 OFFCURVE",
"208 336 OFFCURVE",
"278 336 CURVE SMOOTH",
"340 336 OFFCURVE",
"389 289 OFFCURVE",
"389 227 CURVE SMOOTH",
"389 156 OFFCURVE",
"326 94 OFFCURVE",
"258 94 CURVE SMOOTH"
);
}
);
width = 573;
}
);
unicode = 2202;
},
{
glyphname = Delta;
layers = (
{
layerId = "23F2D7CD-FF69-4F10-BF0B-9629FD16792A";
name = Bold;
paths = (
{
closed = 1;
nodes = (
"371 710 LINE",
"259 710 LINE",
"7 104 LINE",
"7 0 LINE",
"622 0 LINE",
"622 104 LINE"
);
},
{
closed = 1;
nodes = (
"147 121 LINE",
"315 557 LINE",
"485 121 LINE"
);
}
);
width = 628;
}
);
unicode = 2206;
},
{
glyphname = product;
layers = (
{
layerId = "23F2D7CD-FF69-4F10-BF0B-9629FD16792A";
name = Bold;
paths = (
{
closed = 1;
nodes = (
"482 -90 LINE",
"613 -90 LINE",
"613 594 LINE",
"693 594 LINE",
"693 710 LINE",
"32 710 LINE",
"32 594 LINE",
"112 594 LINE",
"112 -90 LINE",
"242 -90 LINE",
"242 594 LINE",
"482 594 LINE"
);
}
);
width = 724;
}
);
unicode = 220F;
},
{
glyphname = summation;
layers = (
{
layerId = "23F2D7CD-FF69-4F10-BF0B-9629FD16792A";
name = Bold;
paths = (
{
closed = 1;
nodes = (
"519 710 LINE",
"39 710 LINE",
"39 623 LINE",
"246 356 LINE",
"32 91 LINE",
"32 0 LINE",
"527 0 LINE",
"527 116 LINE",
"185 116 LINE",
"185 120 LINE",
"382 369 LINE",
"200 603 LINE",
"200 607 LINE",
"519 607 LINE"
);
}
);
width = 563;
}
);
unicode = 2211;
},
{
glyphname = minus;
layers = (
{
layerId = "23F2D7CD-FF69-4F10-BF0B-9629FD16792A";
name = Bold;
paths = (
{
closed = 1;
nodes = (
"465 274 LINE",
"465 381 LINE",
"62 381 LINE",
"62 274 LINE"
);
}
);
width = 527;
}
);
unicode = 2212;
},
{
glyphname = uni2215;
layers = (
{
layerId = "23F2D7CD-FF69-4F10-BF0B-9629FD16792A";
name = Bold;
paths = (
{
closed = 1;
nodes = (
"62 -7 LINE",
"633 654 LINE",
"557 718 LINE",
"-15 56 LINE"
);
}
);
width = 618;
}
);
unicode = 2215;
},
{
glyphname = uni2219;
layers = (
{
layerId = "23F2D7CD-FF69-4F10-BF0B-9629FD16792A";
name = Bold;
paths = (
{
closed = 1;
nodes = (
"168 242 LINE",
"168 393 LINE",
"58 393 LINE",
"58 242 LINE"
);
}
);
width = 225;
}
);
unicode = 2219;
},
{
glyphname = radical;
layers = (
{
layerId = "23F2D7CD-FF69-4F10-BF0B-9629FD16792A";
name = Bold;
paths = (
{
closed = 1;
nodes = (
"8 285 LINE",
"110 285 LINE",
"192 0 LINE",
"353 0 LINE",
"505 790 LINE",
"385 790 LINE",
"273 100 LINE",
"206 379 LINE",
"8 379 LINE"
);
}
);
width = 538;
}
);
unicode = 221A;
},
{
glyphname = infinity;
layers = (
{
layerId = "23F2D7CD-FF69-4F10-BF0B-9629FD16792A";
name = Bold;
paths = (
{
closed = 1;
nodes = (
"113 535 OFFCURVE",
"40 453 OFFCURVE",
"40 352 CURVE SMOOTH",
"40 252 OFFCURVE",
"123 168 OFFCURVE",
"209 168 CURVE SMOOTH",
"291 168 OFFCURVE",
"331 204 OFFCURVE",
"360 246 CURVE",
"390 204 OFFCURVE",
"429 168 OFFCURVE",
"506 168 CURVE SMOOTH",
"602 168 OFFCURVE",
"675 250 OFFCURVE",
"675 351 CURVE SMOOTH",
"675 451 OFFCURVE",
"609 535 OFFCURVE",
"507 535 CURVE SMOOTH",
"426 535 OFFCURVE",
"389 495 OFFCURVE",
"358 448 CURVE",
"327 495 OFFCURVE",
"288 535 OFFCURVE",
"209 535 CURVE SMOOTH"
);
},
{
closed = 1;
nodes = (
"182 270 OFFCURVE",
"141 293 OFFCURVE",
"141 352 CURVE SMOOTH",
"141 410 OFFCURVE",
"182 432 OFFCURVE",
"218 432 CURVE SMOOTH",
"269 432 OFFCURVE",
"293 395 OFFCURVE",
"316 350 CURVE",
"293 306 OFFCURVE",
"268 270 OFFCURVE",
"218 270 CURVE SMOOTH"
);
},
{
closed = 1;
nodes = (
"449 270 OFFCURVE",
"423 304 OFFCURVE",
"401 346 CURVE",
"422 393 OFFCURVE",
"445 432 OFFCURVE",
"498 432 CURVE SMOOTH",
"535 432 OFFCURVE",
"573 410 OFFCURVE",
"573 352 CURVE SMOOTH",
"573 293 OFFCURVE",
"535 270 OFFCURVE",
"498 270 CURVE SMOOTH"
);
}
);
width = 716;
}
);
unicode = 221E;
},
{
glyphname = integral;
layers = (
{
layerId = "23F2D7CD-FF69-4F10-BF0B-9629FD16792A";
name = Bold;
paths = (
{
closed = 1;
nodes = (
"132 4 LINE SMOOTH",
"134 -34 OFFCURVE",
"114 -57 OFFCURVE",
"81 -57 CURVE SMOOTH",
"67 -57 OFFCURVE",
"48 -51 OFFCURVE",
"32 -44 CURVE",
"8 -140 LINE",
"46 -156 OFFCURVE",
"98 -167 OFFCURVE",
"137 -167 CURVE SMOOTH",
"221 -167 OFFCURVE",
"268 -120 OFFCURVE",
"263 -38 CURVE SMOOTH",
"225 649 LINE SMOOTH",
"223 688 OFFCURVE",
"244 710 OFFCURVE",
"277 710 CURVE SMOOTH",
"291 710 OFFCURVE",
"310 704 OFFCURVE",
"326 697 CURVE",
"350 793 LINE",
"312 809 OFFCURVE",
"260 820 OFFCURVE",
"220 820 CURVE SMOOTH",
"136 820 OFFCURVE",
"90 769 OFFCURVE",
"94 691 CURVE SMOOTH"
);
}
);
width = 357;
}
);
unicode = 222B;
},
{
glyphname = approxequal;
layers = (
{
layerId = "23F2D7CD-FF69-4F10-BF0B-9629FD16792A";
name = Bold;
paths = (
{
closed = 1;
nodes = (
"336 397 LINE",
"328 385 OFFCURVE",
"313 372 OFFCURVE",
"286 372 CURVE SMOOTH",
"238 372 OFFCURVE",
"215 419 OFFCURVE",
"154 419 CURVE SMOOTH",
"102 419 OFFCURVE",
"71 387 OFFCURVE",
"53 353 CURVE",
"114 309 LINE",
"121 322 OFFCURVE",
"133 334 OFFCURVE",
"159 334 CURVE SMOOTH",
"203 334 OFFCURVE",
"229 289 OFFCURVE",
"290 289 CURVE SMOOTH",
"343 289 OFFCURVE",
"377 323 OFFCURVE",
"396 357 CURVE"
);
},
{
closed = 1;
nodes = (
"336 242 LINE",
"328 229 OFFCURVE",
"313 217 OFFCURVE",
"286 217 CURVE SMOOTH",
"238 217 OFFCURVE",
"215 264 OFFCURVE",
"154 264 CURVE SMOOTH",
"102 264 OFFCURVE",
"71 231 OFFCURVE",
"53 198 CURVE",
"114 154 LINE",
"121 166 OFFCURVE",
"133 178 OFFCURVE",
"159 178 CURVE SMOOTH",
"203 178 OFFCURVE",
"229 134 OFFCURVE",
"290 134 CURVE SMOOTH",
"343 134 OFFCURVE",
"377 167 OFFCURVE",
"396 199 CURVE"
);
}
);
width = 449;
}
);
unicode = 2248;
},
{
glyphname = notequal;
layers = (
{
layerId = "23F2D7CD-FF69-4F10-BF0B-9629FD16792A";
name = Bold;
paths = (
{
closed = 1;
nodes = (
"75 317 LINE",
"220 317 LINE",
"178 235 LINE",
"75 235 LINE",
"75 148 LINE",
"134 148 LINE",
"86 52 LINE",
"136 26 LINE",
"198 148 LINE",
"388 148 LINE",
"388 235 LINE",
"242 235 LINE",
"284 317 LINE",
"388 317 LINE",
"388 404 LINE",
"328 404 LINE",
"378 502 LINE",
"327 529 LINE",
"264 404 LINE",
"75 404 LINE"
);
}
);
width = 464;
}
);
unicode = 2260;
},
{
glyphname = lessequal;
layers = (
{
layerId = "23F2D7CD-FF69-4F10-BF0B-9629FD16792A";
name = Bold;
paths = (
{
closed = 1;
nodes = (
"403 28 LINE",
"403 136 LINE",
"50 136 LINE",
"50 28 LINE"
);
},
{
closed = 1;
nodes = (
"51 344 LINE",
"401 189 LINE",
"401 319 LINE",
"201 393 LINE",
"401 473 LINE",
"401 601 LINE",
"51 436 LINE"
);
}
);
width = 471;
}
);
unicode = 2264;
},
{
glyphname = greaterequal;
layers = (
{
layerId = "23F2D7CD-FF69-4F10-BF0B-9629FD16792A";
name = Bold;
paths = (
{
closed = 1;
nodes = (
"421 28 LINE",
"421 136 LINE",
"67 136 LINE",
"67 28 LINE"
);
},
{
closed = 1;
nodes = (
"420 436 LINE",
"70 601 LINE",
"70 473 LINE",
"270 393 LINE",
"70 319 LINE",
"70 189 LINE",
"420 344 LINE"
);
}
);
width = 471;
}
);
unicode = 2265;
},
{
glyphname = lozenge;
layers = (
{
layerId = "23F2D7CD-FF69-4F10-BF0B-9629FD16792A";
name = Bold;
paths = (
{
closed = 1;
nodes = (
"208 730 LINE",
"22 366 LINE",
"208 0 LINE",
"356 0 LINE",
"542 366 LINE",
"356 730 LINE"
);
},
{
closed = 1;
nodes = (
"290 92 LINE",
"149 375 LINE",
"281 634 LINE",
"422 354 LINE"
);
}
);
width = 563;
}
);
unicode = 25CA;
},
{
color = 4;
glyphname = f_f;
lastChange = "2014-12-09 15:46:26 +0000";
layers = (
{
layerId = "23F2D7CD-FF69-4F10-BF0B-9629FD16792A";
name = Bold;
paths = (
{
closed = 1;
nodes = (
"597 626 OFFCURVE",
"620 617 OFFCURVE",
"639 608 CURVE",
"665 709 LINE",
"631 723 OFFCURVE",
"591 740 OFFCURVE",
"540 740 CURVE SMOOTH",
"477 740 OFFCURVE",
"431 715 OFFCURVE",
"400 675 CURVE",
"360 692 OFFCURVE",
"316 704 OFFCURVE",
"271 704 CURVE SMOOTH",
"158 704 OFFCURVE",
"93 619 OFFCURVE",
"93 509 CURVE SMOOTH",
"93 460 LINE",
"24 460 LINE",
"24 358 LINE",
"93 358 LINE",
"93 0 LINE",
"227 0 LINE",
"227 358 LINE",
"355 358 LINE",
"355 0 LINE",
"489 0 LINE",
"489 358 LINE",
"627 358 LINE",
"627 460 LINE",
"489 460 LINE",
"489 533 LINE SMOOTH",
"489 582 OFFCURVE",
"512 626 OFFCURVE",
"567 626 CURVE SMOOTH"
);
},
{
closed = 1;
nodes = (
"227 460 LINE",
"227 513 LINE SMOOTH",
"227 557 OFFCURVE",
"247 590 OFFCURVE",
"298 590 CURVE SMOOTH",
"317 590 OFFCURVE",
"344 586 OFFCURVE",
"364 576 CURVE",
"358 564 OFFCURVE",
"355 474 OFFCURVE",
"355 460 CURVE"
);
}
);
width = 642;
}
);
leftKerningGroup = f;
rightKerningGroup = f;
unicode = FB00;
},
{
color = 4;
glyphname = f_i;
lastChange = "2014-12-09 15:46:26 +0000";
layers = (
{
layerId = "23F2D7CD-FF69-4F10-BF0B-9629FD16792A";
name = Bold;
paths = (
{
closed = 1;
nodes = (
"93 0 LINE",
"227 0 LINE",
"227 358 LINE",
"374 358 LINE",
"374 0 LINE",
"508 0 LINE",
"508 460 LINE",
"227 460 LINE",
"227 533 LINE SMOOTH",
"227 582 OFFCURVE",
"255 626 OFFCURVE",
"315 626 CURVE SMOOTH",
"363 626 OFFCURVE",
"412 605 OFFCURVE",
"447 575 CURVE",
"500 675 LINE",
"444 712 OFFCURVE",
"382 740 OFFCURVE",
"306 740 CURVE SMOOTH",
"172 740 OFFCURVE",
"93 644 OFFCURVE",
"93 528 CURVE SMOOTH",
"93 460 LINE",
"24 460 LINE",
"24 358 LINE",
"93 358 LINE"
);
}
);
width = 568;
}
);
leftKerningGroup = f;
rightKerningGroup = i;
unicode = FB01;
},
{
color = 4;
glyphname = f_l;
lastChange = "2014-12-09 15:46:26 +0000";
layers = (
{
layerId = "23F2D7CD-FF69-4F10-BF0B-9629FD16792A";
name = Bold;
paths = (
{
closed = 1;
nodes = (
"640 125 LINE",
"639 125 OFFCURVE",
"606 112 OFFCURVE",
"582 112 CURVE SMOOTH",
"548 112 OFFCURVE",
"534 145 OFFCURVE",
"534 171 CURVE SMOOTH",
"534 544 LINE SMOOTH",
"534 661 OFFCURVE",
"464 740 OFFCURVE",
"312 740 CURVE SMOOTH",
"175 740 OFFCURVE",
"93 669 OFFCURVE",
"93 540 CURVE SMOOTH",
"93 460 LINE",
"24 460 LINE",
"24 358 LINE",
"93 358 LINE",
"93 0 LINE",
"227 0 LINE",
"227 358 LINE",
"314 358 LINE",
"314 460 LINE",
"227 460 LINE",
"227 514 LINE SMOOTH",
"227 580 OFFCURVE",
"251 626 OFFCURVE",
"316 626 CURVE SMOOTH",
"384 626 OFFCURVE",
"400 577 OFFCURVE",
"400 517 CURVE SMOOTH",
"400 104 LINE SMOOTH",
"400 44 OFFCURVE",
"449 -8 OFFCURVE",
"533 -8 CURVE SMOOTH",
"593 -8 OFFCURVE",
"657 15 OFFCURVE",
"659 17 CURVE"
);
}
);
width = 657;
}
);
leftKerningGroup = f;
rightKerningGroup = l;
unicode = FB02;
},
{
color = 4;
glyphname = f_f_i;
lastChange = "2014-12-09 15:46:26 +0000";
layers = (
{
layerId = "23F2D7CD-FF69-4F10-BF0B-9629FD16792A";
name = Bold;
paths = (
{
closed = 1;
nodes = (
"93 0 LINE",
"227 0 LINE",
"227 358 LINE",
"355 358 LINE",
"355 0 LINE",
"489 0 LINE",
"489 358 LINE",
"636 358 LINE",
"636 0 LINE",
"771 0 LINE",
"771 460 LINE",
"489 460 LINE",
"489 533 LINE SMOOTH",
"489 582 OFFCURVE",
"516 626 OFFCURVE",
"580 626 CURVE SMOOTH",
"624 626 OFFCURVE",
"676 604 OFFCURVE",
"709 575 CURVE",
"762 675 LINE",
"702 713 OFFCURVE",
"636 740 OFFCURVE",
"567 740 CURVE SMOOTH",
"493 740 OFFCURVE",
"436 715 OFFCURVE",
"400 675 CURVE",
"360 692 OFFCURVE",
"316 704 OFFCURVE",
"271 704 CURVE SMOOTH",
"158 704 OFFCURVE",
"93 615 OFFCURVE",
"93 509 CURVE SMOOTH",
"93 460 LINE",
"24 460 LINE",
"24 358 LINE",
"93 358 LINE"
);
},
{
closed = 1;
nodes = (
"227 460 LINE",
"227 513 LINE SMOOTH",
"227 555 OFFCURVE",
"247 590 OFFCURVE",
"298 590 CURVE SMOOTH",
"317 590 OFFCURVE",
"344 586 OFFCURVE",
"364 576 CURVE",
"358 564 OFFCURVE",
"355 474 OFFCURVE",
"355 460 CURVE"
);
}
);
width = 831;
}
);
leftKerningGroup = f;
rightKerningGroup = i;
unicode = FB03;
},
{
color = 4;
glyphname = f_f_l;
lastChange = "2014-12-09 15:46:26 +0000";
layers = (
{
layerId = "23F2D7CD-FF69-4F10-BF0B-9629FD16792A";
name = Bold;
paths = (
{
closed = 1;
nodes = (
"856 -8 OFFCURVE",
"920 15 OFFCURVE",
"922 17 CURVE",
"904 125 LINE",
"902 125 OFFCURVE",
"869 112 OFFCURVE",
"845 112 CURVE SMOOTH",
"811 112 OFFCURVE",
"797 145 OFFCURVE",
"797 171 CURVE SMOOTH",
"797 544 LINE SMOOTH",
"797 661 OFFCURVE",
"726 740 OFFCURVE",
"575 740 CURVE SMOOTH",
"498 740 OFFCURVE",
"438 718 OFFCURVE",
"400 675 CURVE",
"360 692 OFFCURVE",
"320 704 OFFCURVE",
"273 704 CURVE SMOOTH",
"163 704 OFFCURVE",
"93 618 OFFCURVE",
"93 509 CURVE SMOOTH",
"93 460 LINE",
"24 460 LINE",
"24 358 LINE",
"93 358 LINE",
"93 0 LINE",
"227 0 LINE",
"227 358 LINE",
"356 358 LINE",
"356 0 LINE",
"490 0 LINE",
"490 358 LINE",
"577 358 LINE",
"577 460 LINE",
"490 460 LINE",
"490 512 LINE SMOOTH",
"490 573 OFFCURVE",
"513 626 OFFCURVE",
"576 626 CURVE SMOOTH",
"646 626 OFFCURVE",
"663 576 OFFCURVE",
"663 521 CURVE SMOOTH",
"663 104 LINE SMOOTH",
"663 44 OFFCURVE",
"713 -8 OFFCURVE",
"796 -8 CURVE SMOOTH"
);
},
{
closed = 1;
nodes = (
"227 460 LINE",
"227 514 LINE SMOOTH",
"227 554 OFFCURVE",
"252 590 OFFCURVE",
"301 590 CURVE SMOOTH",
"320 590 OFFCURVE",
"343 587 OFFCURVE",
"363 577 CURVE",
"358 567 OFFCURVE",
"356 476 OFFCURVE",
"356 460 CURVE"
);
}
);
width = 920;
}
);
leftKerningGroup = f;
rightKerningGroup = l;
unicode = FB04;
},
{
glyphname = eight.numerator;
layers = (
{
layerId = "23F2D7CD-FF69-4F10-BF0B-9629FD16792A";
name = Bold;
paths = (
{
closed = 1;
nodes = (
"388 481 OFFCURVE",
"352 514 OFFCURVE",
"302 534 CURVE",
"342 549 OFFCURVE",
"372 577 OFFCURVE",
"372 617 CURVE SMOOTH",
"372 685 OFFCURVE",
"287 730 OFFCURVE",
"210 730 CURVE SMOOTH",
"133 730 OFFCURVE",
"48 684 OFFCURVE",
"48 615 CURVE SMOOTH",
"48 574 OFFCURVE",
"81 548 OFFCURVE",
"117 534 CURVE",
"72 515 OFFCURVE",
"32 486 OFFCURVE",
"32 434 CURVE SMOOTH",
"32 360 OFFCURVE",
"110 303 OFFCURVE",
"210 303 CURVE SMOOTH",
"306 303 OFFCURVE",
"388 357 OFFCURVE",
"388 432 CURVE SMOOTH"
);
},
{
closed = 1;
nodes = (
"307 406 OFFCURVE",
"260 383 OFFCURVE",
"211 383 CURVE SMOOTH",
"164 383 OFFCURVE",
"112 405 OFFCURVE",
"112 440 CURVE SMOOTH",
"112 475 OFFCURVE",
"159 499 OFFCURVE",
"210 499 CURVE SMOOTH",
"258 499 OFFCURVE",
"307 476 OFFCURVE",
"307 440 CURVE SMOOTH"
);
},
{
closed = 1;
nodes = (
"128 636 OFFCURVE",
"166 654 OFFCURVE",
"210 654 CURVE SMOOTH",
"252 654 OFFCURVE",
"292 637 OFFCURVE",
"292 609 CURVE SMOOTH",
"292 580 OFFCURVE",
"248 564 OFFCURVE",
"210 564 CURVE SMOOTH",
"171 564 OFFCURVE",
"128 580 OFFCURVE",
"128 609 CURVE SMOOTH"
);
}
);
width = 420;
}
);
},
{
glyphname = w.alt;
layers = (
{
layerId = "23F2D7CD-FF69-4F10-BF0B-9629FD16792A";
name = Bold;
paths = (
{
closed = 1;
nodes = (
"555 126 LINE",
"492 296 LINE",
"583 523 LINE",
"475 523 LINE",
"419 362 LINE",
"364 523 LINE",
"256 523 LINE",
"348 296 LINE",
"284 126 LINE",
"128 524 LINE",
"2 524 LINE",
"220 0 LINE",
"330 0 LINE",
"419 230 LINE",
"509 0 LINE",
"619 0 LINE",
"838 524 LINE",
"711 524 LINE"
);
}
);
width = 839;
}
);
leftKerningGroup = w;
rightKerningGroup = w;
},
{
glyphname = y.alt;
layers = (
{
layerId = "23F2D7CD-FF69-4F10-BF0B-9629FD16792A";
name = Bold;
paths = (
{
closed = 1;
nodes = (
"412 524 LINE",
"286 116 LINE",
"144 524 LINE",
"6 524 LINE",
"213 0 LINE",
"187 -59 OFFCURVE",
"130 -211 OFFCURVE",
"129 -213 CURVE",
"284 -213 LINE",
"538 524 LINE"
);
}
);
width = 551;
}
);
leftKerningGroup = y.alt;
rightKerningGroup = y.alt;
},
{
glyphname = zero.denominator;
layers = (
{
layerId = "23F2D7CD-FF69-4F10-BF0B-9629FD16792A";
name = Bold;
paths = (
{
closed = 1;
nodes = (
"375 -5 OFFCURVE",
"455 105 OFFCURVE",
"455 208 CURVE SMOOTH",
"455 300 OFFCURVE",
"383 421 OFFCURVE",
"244 421 CURVE SMOOTH",
"113 421 OFFCURVE",
"31 309 OFFCURVE",
"31 208 CURVE SMOOTH",
"31 113 OFFCURVE",
"103 -5 OFFCURVE",
"244 -5 CURVE SMOOTH"
);
},
{
closed = 1;
nodes = (
"113 264 OFFCURVE",
"153 342 OFFCURVE",
"244 342 CURVE SMOOTH",
"329 342 OFFCURVE",
"374 271 OFFCURVE",
"374 208 CURVE SMOOTH",
"374 151 OFFCURVE",
"334 74 OFFCURVE",
"244 74 CURVE SMOOTH",
"157 74 OFFCURVE",
"113 145 OFFCURVE",
"113 208 CURVE SMOOTH"
);
}
);
width = 487;
}
);
},
{
glyphname = zero.numerator;
layers = (
{
layerId = "23F2D7CD-FF69-4F10-BF0B-9629FD16792A";
name = Bold;
paths = (
{
closed = 1;
nodes = (
"375 303 OFFCURVE",
"455 414 OFFCURVE",
"455 516 CURVE SMOOTH",
"455 608 OFFCURVE",
"383 730 OFFCURVE",
"244 730 CURVE SMOOTH",
"113 730 OFFCURVE",
"31 618 OFFCURVE",
"31 516 CURVE SMOOTH",
"31 422 OFFCURVE",
"103 303 OFFCURVE",
"244 303 CURVE SMOOTH"
);
},
{
closed = 1;
nodes = (
"113 573 OFFCURVE",
"153 651 OFFCURVE",
"244 651 CURVE SMOOTH",
"329 651 OFFCURVE",
"374 579 OFFCURVE",
"374 516 CURVE SMOOTH",
"374 460 OFFCURVE",
"334 383 OFFCURVE",
"244 383 CURVE SMOOTH",
"157 383 OFFCURVE",
"113 454 OFFCURVE",
"113 516 CURVE SMOOTH"
);
}
);
width = 487;
}
);
},
{
glyphname = five.denominator;
layers = (
{
layerId = "23F2D7CD-FF69-4F10-BF0B-9629FD16792A";
name = Bold;
paths = (
{
closed = 1;
nodes = (
"169 273 OFFCURVE",
"143 265 OFFCURVE",
"127 255 CURVE",
"152 342 LINE",
"336 342 LINE",
"336 422 LINE",
"94 422 LINE",
"83 357 OFFCURVE",
"50 240 OFFCURVE",
"37 168 CURVE",
"107 168 LINE",
"123 195 OFFCURVE",
"163 213 OFFCURVE",
"197 213 CURVE SMOOTH",
"238 213 OFFCURVE",
"286 190 OFFCURVE",
"286 141 CURVE SMOOTH",
"286 94 OFFCURVE",
"244 70 OFFCURVE",
"190 70 CURVE SMOOTH",
"140 70 OFFCURVE",
"98 89 OFFCURVE",
"72 119 CURVE",
"25 66 LINE",
"55 22 OFFCURVE",
"116 -5 OFFCURVE",
"186 -5 CURVE SMOOTH",
"289 -5 OFFCURVE",
"367 53 OFFCURVE",
"367 137 CURVE SMOOTH",
"367 217 OFFCURVE",
"296 273 OFFCURVE",
"203 273 CURVE SMOOTH"
);
}
);
width = 394;
}
);
},
{
glyphname = four.numerator;
layers = (
{
layerId = "23F2D7CD-FF69-4F10-BF0B-9629FD16792A";
name = Bold;
paths = (
{
closed = 1;
nodes = (
"321 310 LINE",
"321 401 LINE",
"382 401 LINE",
"382 479 LINE",
"321 479 LINE",
"321 730 LINE",
"267 730 LINE",
"21 479 LINE",
"21 401 LINE",
"242 401 LINE",
"242 310 LINE"
);
},
{
closed = 1;
nodes = (
"245 633 LINE",
"245 479 LINE",
"98 479 LINE"
);
}
);
width = 410;
}
);
},
{
glyphname = W.alt;
layers = (
{
layerId = "23F2D7CD-FF69-4F10-BF0B-9629FD16792A";
name = Bold;
paths = (
{
closed = 1;
nodes = (
"438 385 LINE",
"350 158 LINE",
"148 710 LINE",
"0 710 LINE",
"287 0 LINE",
"403 0 LINE",
"526 298 LINE",
"649 0 LINE",
"765 0 LINE",
"1054 710 LINE",
"904 710 LINE",
"703 158 LINE",
"613 385 LINE",
"734 708 LINE",
"606 708 LINE",
"526 473 LINE",
"446 708 LINE",
"319 708 LINE"
);
}
);
width = 1053;
}
);
leftKerningGroup = W;
rightKerningGroup = W;
},
{
glyphname = j.alt;
layers = (
{
layerId = "23F2D7CD-FF69-4F10-BF0B-9629FD16792A";
name = Bold;
paths = (
{
closed = 1;
nodes = (
"120 -196 OFFCURVE",
"200 -117 OFFCURVE",
"200 -4 CURVE SMOOTH",
"200 524 LINE",
"66 524 LINE",
"66 -14 LINE SMOOTH",
"66 -53 OFFCURVE",
"37 -80 OFFCURVE",
"2 -80 CURVE SMOOTH",
"-19 -80 OFFCURVE",
"-42 -73 OFFCURVE",
"-57 -58 CURVE",
"-115 -149 LINE",
"-79 -181 OFFCURVE",
"-32 -196 OFFCURVE",
"18 -196 CURVE SMOOTH"
);
},
{
closed = 1;
nodes = (
"200 597 LINE",
"200 730 LINE",
"66 730 LINE",
"66 597 LINE"
);
}
);
width = 261;
}
);
leftKerningGroup = i;
rightKerningGroup = i;
},
{
glyphname = l.alt;
layers = (
{
layerId = "23F2D7CD-FF69-4F10-BF0B-9629FD16792A";
name = Bold;
paths = (
{
closed = 1;
nodes = (
"60 121 LINE SMOOTH",
"60 39 OFFCURVE",
"109 -8 OFFCURVE",
"192 -8 CURVE SMOOTH",
"231 -8 OFFCURVE",
"284 2 OFFCURVE",
"320 19 CURVE",
"302 121 LINE",
"285 113 OFFCURVE",
"264 107 OFFCURVE",
"248 107 CURVE SMOOTH",
"214 107 OFFCURVE",
"194 129 OFFCURVE",
"194 168 CURVE SMOOTH",
"194 730 LINE",
"60 730 LINE"
);
}
);
width = 317;
}
);
leftKerningGroup = l;
rightKerningGroup = l;
},
{
glyphname = nine.denominator;
layers = (
{
layerId = "23F2D7CD-FF69-4F10-BF0B-9629FD16792A";
name = Bold;
paths = (
{
closed = 1;
nodes = (
"29 198 OFFCURVE",
"103 137 OFFCURVE",
"204 137 CURVE SMOOTH",
"248 137 OFFCURVE",
"296 153 OFFCURVE",
"316 178 CURVE",
"315 109 OFFCURVE",
"269 70 OFFCURVE",
"202 70 CURVE SMOOTH",
"157 70 OFFCURVE",
"116 86 OFFCURVE",
"96 114 CURVE",
"49 59 LINE",
"82 17 OFFCURVE",
"138 -5 OFFCURVE",
"199 -5 CURVE SMOOTH",
"316 -5 OFFCURVE",
"390 78 OFFCURVE",
"390 228 CURVE SMOOTH",
"390 352 OFFCURVE",
"319 425 OFFCURVE",
"209 425 CURVE SMOOTH",
"107 425 OFFCURVE",
"29 360 OFFCURVE",
"29 278 CURVE SMOOTH"
);
},
{
closed = 1;
nodes = (
"264 352 OFFCURVE",
"312 317 OFFCURVE",
"312 278 CURVE SMOOTH",
"312 239 OFFCURVE",
"265 207 OFFCURVE",
"209 207 CURVE SMOOTH",
"152 207 OFFCURVE",
"105 239 OFFCURVE",
"105 278 CURVE SMOOTH",
"105 317 OFFCURVE",
"151 352 OFFCURVE",
"208 352 CURVE SMOOTH"
);
}
);
width = 425;
}
);
},
{
glyphname = a.alt;
layers = (
{
layerId = "23F2D7CD-FF69-4F10-BF0B-9629FD16792A";
name = Bold;
paths = (
{
closed = 1;
nodes = (
"353 -10 OFFCURVE",
"407 25 OFFCURVE",
"441 85 CURVE",
"441 0 LINE",
"575 0 LINE",
"575 517 LINE",
"441 517 LINE",
"441 431 LINE",
"407 493 OFFCURVE",
"342 533 OFFCURVE",
"264 533 CURVE SMOOTH",
"130 533 OFFCURVE",
"29 414 OFFCURVE",
"29 262 CURVE SMOOTH",
"29 110 OFFCURVE",
"132 -10 OFFCURVE",
"277 -10 CURVE SMOOTH"
);
},
{
closed = 1;
nodes = (
"441 192 LINE",
"414 139 OFFCURVE",
"370 104 OFFCURVE",
"311 104 CURVE SMOOTH",
"228 104 OFFCURVE",
"168 173 OFFCURVE",
"168 259 CURVE SMOOTH",
"168 341 OFFCURVE",
"225 419 OFFCURVE",
"306 419 CURVE SMOOTH",
"364 419 OFFCURVE",
"417 377 OFFCURVE",
"441 316 CURVE"
);
}
);
width = 635;
}
);
leftKerningGroup = d;
rightKerningGroup = g;
},
{
glyphname = nine.numerator;
layers = (
{
layerId = "23F2D7CD-FF69-4F10-BF0B-9629FD16792A";
name = Bold;
paths = (
{
closed = 1;
nodes = (
"28 504 OFFCURVE",
"102 443 OFFCURVE",
"204 443 CURVE SMOOTH",
"247 443 OFFCURVE",
"295 458 OFFCURVE",
"316 483 CURVE",
"314 415 OFFCURVE",
"269 374 OFFCURVE",
"201 374 CURVE SMOOTH",
"156 374 OFFCURVE",
"116 391 OFFCURVE",
"95 419 CURVE",
"48 364 LINE",
"81 323 OFFCURVE",
"137 299 OFFCURVE",
"198 299 CURVE SMOOTH",
"316 299 OFFCURVE",
"389 383 OFFCURVE",
"389 533 CURVE SMOOTH",
"389 657 OFFCURVE",
"318 730 OFFCURVE",
"209 730 CURVE SMOOTH",
"106 730 OFFCURVE",
"28 665 OFFCURVE",
"28 583 CURVE SMOOTH"
);
},
{
closed = 1;
nodes = (
"264 657 OFFCURVE",
"311 623 OFFCURVE",
"311 583 CURVE SMOOTH",
"311 544 OFFCURVE",
"265 512 OFFCURVE",
"208 512 CURVE SMOOTH",
"151 512 OFFCURVE",
"104 544 OFFCURVE",
"104 583 CURVE SMOOTH",
"104 623 OFFCURVE",
"151 657 OFFCURVE",
"207 657 CURVE SMOOTH"
);
}
);
width = 423;
}
);
},
{
glyphname = a.alt2;
layers = (
{
layerId = "23F2D7CD-FF69-4F10-BF0B-9629FD16792A";
name = Bold;
paths = (
{
closed = 1;
nodes = (
"280 -10 OFFCURVE",
"349 23 OFFCURVE",
"396 84 CURVE",
"399 55 LINE",
"406 18 OFFCURVE",
"433 -7 OFFCURVE",
"483 -7 CURVE SMOOTH",
"499 -7 OFFCURVE",
"518 -5 OFFCURVE",
"542 0 CURVE",
"542 114 LINE",
"519 115 OFFCURVE",
"510 126 OFFCURVE",
"510 154 CURVE SMOOTH",
"510 317 LINE SMOOTH",
"510 456 OFFCURVE",
"422 533 OFFCURVE",
"272 533 CURVE SMOOTH",
"194 533 OFFCURVE",
"122 511 OFFCURVE",
"54 466 CURVE",
"95 381 LINE",
"151 420 OFFCURVE",
"203 440 OFFCURVE",
"259 440 CURVE SMOOTH",
"336 440 OFFCURVE",
"376 401 OFFCURVE",
"376 332 CURVE SMOOTH",
"376 302 LINE",
"342 317 OFFCURVE",
"295 325 OFFCURVE",
"248 325 CURVE SMOOTH",
"117 325 OFFCURVE",
"25 256 OFFCURVE",
"25 156 CURVE SMOOTH",
"25 61 OFFCURVE",
"102 -10 OFFCURVE",
"204 -10 CURVE SMOOTH"
);
},
{
closed = 1;
nodes = (
"191 88 OFFCURVE",
"152 122 OFFCURVE",
"152 167 CURVE SMOOTH",
"152 215 OFFCURVE",
"201 250 OFFCURVE",
"270 250 CURVE SMOOTH",
"304 250 OFFCURVE",
"344 242 OFFCURVE",
"376 230 CURVE",
"376 170 LINE SMOOTH",
"376 157 OFFCURVE",
"368 143 OFFCURVE",
"354 132 CURVE",
"331 105 OFFCURVE",
"287 88 OFFCURVE",
"242 88 CURVE SMOOTH"
);
}
);
width = 574;
}
);
leftKerningGroup = a;
rightKerningGroup = a;
},
{
color = 4;
glyphname = one.denominator;
lastChange = "2014-12-09 15:35:02 +0000";
layers = (
{
layerId = "23F2D7CD-FF69-4F10-BF0B-9629FD16792A";
name = Bold;
paths = (
{
closed = 1;
nodes = (
"226 -1 LINE",
"226 425 LINE",
"145 425 LINE",
"37 359 LINE",
"70 295 LINE",
"145 339 LINE",
"145 -1 LINE"
);
}
);
width = 333;
}
);
},
{
glyphname = q.alt;
layers = (
{
layerId = "23F2D7CD-FF69-4F10-BF0B-9629FD16792A";
name = Bold;
paths = (
{
closed = 1;
nodes = (
"337 -10 OFFCURVE",
"400 25 OFFCURVE",
"439 92 CURVE",
"439 -121 LINE SMOOTH",
"439 -174 OFFCURVE",
"484 -212 OFFCURVE",
"536 -212 CURVE SMOOTH",
"557 -212 OFFCURVE",
"586 -210 OFFCURVE",
"609 -206 CURVE",
"609 -92 LINE",
"583 -91 OFFCURVE",
"573 -81 OFFCURVE",
"573 -52 CURVE SMOOTH",
"573 524 LINE",
"456 524 LINE",
"456 433 LINE",
"418 493 OFFCURVE",
"355 533 OFFCURVE",
"275 533 CURVE SMOOTH",
"136 533 OFFCURVE",
"30 414 OFFCURVE",
"30 263 CURVE SMOOTH",
"30 112 OFFCURVE",
"125 -10 OFFCURVE",
"259 -10 CURVE SMOOTH"
);
},
{
closed = 1;
nodes = (
"225 104 OFFCURVE",
"167 172 OFFCURVE",
"167 259 CURVE SMOOTH",
"167 343 OFFCURVE",
"225 419 OFFCURVE",
"307 419 CURVE SMOOTH",
"363 419 OFFCURVE",
"424 373 OFFCURVE",
"439 314 CURVE",
"439 190 LINE",
"409 139 OFFCURVE",
"366 104 OFFCURVE",
"309 104 CURVE SMOOTH"
);
}
);
width = 634;
}
);
leftKerningGroup = d;
rightKerningGroup = g;
},
{
glyphname = G.alt;
layers = (
{
layerId = "23F2D7CD-FF69-4F10-BF0B-9629FD16792A";
name = Bold;
paths = (
{
closed = 1;
nodes = (
"567 0 LINE",
"681 0 LINE",
"681 365 LINE",
"424 365 LINE",
"424 264 LINE",
"567 264 LINE",
"567 214 LINE",
"512 150 OFFCURVE",
"449 117 OFFCURVE",
"381 117 CURVE SMOOTH",
"260 117 OFFCURVE",
"171 221 OFFCURVE",
"171 355 CURVE SMOOTH",
"171 483 OFFCURVE",
"252 593 OFFCURVE",
"373 593 CURVE SMOOTH",
"449 593 OFFCURVE",
"518 554 OFFCURVE",
"554 484 CURVE",
"657 560 LINE",
"609 654 OFFCURVE",
"511 715 OFFCURVE",
"378 715 CURVE SMOOTH",
"181 715 OFFCURVE",
"32 553 OFFCURVE",
"32 359 CURVE SMOOTH",
"32 154 OFFCURVE",
"182 -5 OFFCURVE",
"369 -5 CURVE SMOOTH",
"444 -5 OFFCURVE",
"509 22 OFFCURVE",
"567 80 CURVE"
);
}
);
width = 725;
}
);
leftKerningGroup = C;
rightKerningGroup = G;
},
{
glyphname = seven.denominator;
layers = (
{
layerId = "23F2D7CD-FF69-4F10-BF0B-9629FD16792A";
name = Bold;
paths = (
{
closed = 1;
nodes = (
"50 0 LINE",
"140 0 LINE",
"388 422 LINE",
"24 422 LINE",
"24 342 LINE",
"263 342 LINE"
);
}
);
width = 388;
}
);
},
{
glyphname = six.denominator;
layers = (
{
layerId = "23F2D7CD-FF69-4F10-BF0B-9629FD16792A";
name = Bold;
paths = (
{
closed = 1;
nodes = (
"396 220 OFFCURVE",
"322 281 OFFCURVE",
"219 281 CURVE SMOOTH",
"177 281 OFFCURVE",
"129 267 OFFCURVE",
"108 241 CURVE",
"110 310 OFFCURVE",
"155 349 OFFCURVE",
"223 349 CURVE SMOOTH",
"267 349 OFFCURVE",
"308 333 OFFCURVE",
"329 305 CURVE",
"375 360 LINE",
"342 402 OFFCURVE",
"287 425 OFFCURVE",
"226 425 CURVE SMOOTH",
"109 425 OFFCURVE",
"34 341 OFFCURVE",
"34 191 CURVE SMOOTH",
"34 66 OFFCURVE",
"105 -5 OFFCURVE",
"215 -5 CURVE SMOOTH",
"318 -5 OFFCURVE",
"396 59 OFFCURVE",
"396 141 CURVE SMOOTH"
);
},
{
closed = 1;
nodes = (
"161 67 OFFCURVE",
"112 101 OFFCURVE",
"112 141 CURVE SMOOTH",
"112 180 OFFCURVE",
"159 212 OFFCURVE",
"216 212 CURVE SMOOTH",
"274 212 OFFCURVE",
"320 180 OFFCURVE",
"320 140 CURVE SMOOTH",
"320 101 OFFCURVE",
"273 67 OFFCURVE",
"217 67 CURVE SMOOTH"
);
}
);
width = 424;
}
);
},
{
glyphname = six.numerator;
layers = (
{
layerId = "23F2D7CD-FF69-4F10-BF0B-9629FD16792A";
name = Bold;
paths = (
{
closed = 1;
nodes = (
"395 525 OFFCURVE",
"322 586 OFFCURVE",
"219 586 CURVE SMOOTH",
"177 586 OFFCURVE",
"128 572 OFFCURVE",
"108 546 CURVE",
"109 615 OFFCURVE",
"154 655 OFFCURVE",
"222 655 CURVE SMOOTH",
"266 655 OFFCURVE",
"308 638 OFFCURVE",
"328 610 CURVE",
"374 666 LINE",
"342 707 OFFCURVE",
"286 730 OFFCURVE",
"225 730 CURVE SMOOTH",
"108 730 OFFCURVE",
"34 646 OFFCURVE",
"34 496 CURVE SMOOTH",
"34 372 OFFCURVE",
"105 299 OFFCURVE",
"214 299 CURVE SMOOTH",
"317 299 OFFCURVE",
"395 364 OFFCURVE",
"395 446 CURVE SMOOTH"
);
},
{
closed = 1;
nodes = (
"160 372 OFFCURVE",
"111 406 OFFCURVE",
"111 446 CURVE SMOOTH",
"111 486 OFFCURVE",
"158 517 OFFCURVE",
"216 517 CURVE SMOOTH",
"273 517 OFFCURVE",
"320 486 OFFCURVE",
"320 446 CURVE SMOOTH",
"320 406 OFFCURVE",
"273 372 OFFCURVE",
"216 372 CURVE SMOOTH"
);
}
);
width = 423;
}
);
},
{
glyphname = t.alt;
layers = (
{
layerId = "23F2D7CD-FF69-4F10-BF0B-9629FD16792A";
name = Bold;
paths = (
{
closed = 1;
nodes = (
"242 0 LINE",
"242 403 LINE",
"363 403 LINE",
"363 524 LINE",
"242 524 LINE",
"242 694 LINE",
"104 694 LINE",
"104 524 LINE",
"26 524 LINE",
"26 403 LINE",
"104 403 LINE",
"104 0 LINE"
);
}
);
width = 379;
}
);
leftKerningGroup = t.alt;
rightKerningGroup = t.alt;
},
{
glyphname = d.alt;
layers = (
{
layerId = "23F2D7CD-FF69-4F10-BF0B-9629FD16792A";
name = Bold;
paths = (
{
closed = 1;
nodes = (
"350 -10 OFFCURVE",
"421 25 OFFCURVE",
"460 91 CURVE",
"463 58 LINE SMOOTH",
"467 19 OFFCURVE",
"500 -7 OFFCURVE",
"548 -7 CURVE SMOOTH",
"563 -7 OFFCURVE",
"580 -5 OFFCURVE",
"605 0 CURVE",
"605 114 LINE",
"582 115 OFFCURVE",
"574 126 OFFCURVE",
"574 154 CURVE SMOOTH",
"574 730 LINE",
"440 730 LINE",
"440 432 LINE",
"405 491 OFFCURVE",
"340 533 OFFCURVE",
"263 533 CURVE SMOOTH",
"127 533 OFFCURVE",
"29 413 OFFCURVE",
"29 262 CURVE SMOOTH",
"29 110 OFFCURVE",
"133 -10 OFFCURVE",
"278 -10 CURVE SMOOTH"
);
},
{
closed = 1;
nodes = (
"229 104 OFFCURVE",
"168 172 OFFCURVE",
"168 259 CURVE SMOOTH",
"168 343 OFFCURVE",
"224 419 OFFCURVE",
"305 419 CURVE SMOOTH",
"359 419 OFFCURVE",
"418 375 OFFCURVE",
"440 317 CURVE",
"440 192 LINE",
"422 141 OFFCURVE",
"364 104 OFFCURVE",
"313 104 CURVE SMOOTH"
);
}
);
width = 645;
}
);
leftKerningGroup = d;
rightKerningGroup = d;
},
{
glyphname = u.alt;
layers = (
{
layerId = "23F2D7CD-FF69-4F10-BF0B-9629FD16792A";
name = Bold;
paths = (
{
closed = 1;
nodes = (
"309 -10 OFFCURVE",
"385 26 OFFCURVE",
"432 98 CURVE",
"435 56 LINE",
"440 17 OFFCURVE",
"472 -6 OFFCURVE",
"520 -6 CURVE SMOOTH",
"535 -6 OFFCURVE",
"551 -5 OFFCURVE",
"578 0 CURVE",
"578 114 LINE",
"555 115 OFFCURVE",
"546 126 OFFCURVE",
"546 154 CURVE SMOOTH",
"546 524 LINE",
"412 524 LINE",
"412 199 LINE",
"381 135 OFFCURVE",
"329 104 OFFCURVE",
"277 104 CURVE SMOOTH",
"220 104 OFFCURVE",
"190 145 OFFCURVE",
"190 225 CURVE SMOOTH",
"190 524 LINE",
"56 524 LINE",
"56 196 LINE SMOOTH",
"56 61 OFFCURVE",
"113 -10 OFFCURVE",
"221 -10 CURVE SMOOTH"
);
}
);
width = 618;
}
);
leftKerningGroup = u;
rightKerningGroup = u;
},
{
glyphname = uni0406;
layers = (
{
layerId = "23F2D7CD-FF69-4F10-BF0B-9629FD16792A";
name = Bold;
paths = (
{
closed = 1;
nodes = (
"215 0 LINE",
"215 710 LINE",
"77 710 LINE",
"77 0 LINE"
);
}
);
width = 292;
}
);
rightKerningGroup = uni0406;
unicode = 0406;
},
{
glyphname = uni0409;
layers = (
{
layerId = "23F2D7CD-FF69-4F10-BF0B-9629FD16792A";
name = Bold;
paths = (
{
closed = 1;
nodes = (
"18 -7 LINE",
"208 -7 OFFCURVE",
"272 118 OFFCURVE",
"302 481 CURVE SMOOTH",
"311 589 LINE",
"479 589 LINE",
"479 0 LINE",
"795 0 LINE SMOOTH",
"927 0 OFFCURVE",
"1021 79 OFFCURVE",
"1021 219 CURVE SMOOTH",
"1021 357 OFFCURVE",
"925 435 OFFCURVE",
"790 435 CURVE SMOOTH",
"616 435 LINE",
"616 710 LINE",
"186 710 LINE",
"169 510 LINE SMOOTH",
"140 171 OFFCURVE",
"102 124 OFFCURVE",
"10 117 CURVE"
);
},
{
closed = 1;
nodes = (
"616 117 LINE",
"616 323 LINE",
"782 323 LINE SMOOTH",
"847 323 OFFCURVE",
"881 281 OFFCURVE",
"881 220 CURVE SMOOTH",
"881 157 OFFCURVE",
"847 117 OFFCURVE",
"782 117 CURVE SMOOTH"
);
}
);
width = 1044;
}
);
leftKerningGroup = uni0409;
rightKerningGroup = uni0409;
unicode = 0409;
},
